<svg xmlns="http://www.w3.org/2000/svg" width="1000" height="700" viewBox="0 0 1000 700">
<style type="text/css">

.style01 {fill:none; stroke:#703D29; }

</style>
<path fill="#D0103A" d="M0 0h1000v700H0z"></path>
<path fill="#FEDF00" d="M0 0h680v700H0z"></path>
<path fill="#0018A8" d="M0 0h320v700H0z"></path>
<path fill="#C7B37F" d="M469.37 188.48c12.05 0 16.98 10.338 29.03 10.338 7.437 0 11.775-2.43 18.26-6.087 4.523-2.56 7.41-3.926 12.604-3.926 5.32 0 8.58 1.608 11.302 6.167 1.537 2.58 2.813 7.63 2.138 10.526-1.282 5.494-2.07 7.88-4.263 12.953-1.04 2.437-2.026 3.897-2.026 6.565 0 6.396 8.704 8.594 14.622 8.686 1.29.02 12.14.2 18.814-6.56-3.622-.16-7.675-2.964-7.675-6.587 0-4.1 2.88-6.874 6.785-8.057.742-.212 2.006.443 2.678.09.954-.495.508-1.568 1.355-2.24 1.943-1.555 3.207-2.525 5.698-2.525 1.627 0 2.58.23 3.887 1.167.69.495.942 1.107 1.79 1.107 1.785 0 2.67-1.13 4.454-1.13 1.45 0 2.333.194 3.605.847 1.06.55 1.037 2.35 2.238 2.35.602 0 3.78-1.295 5.44-1.295 3.445 0 5.284 1.247 7.51 3.862.603.707.986 2.137 1.598 2.137 1.23 0 4.066.792 5.833 2.56.76.76 1.097 1.12 1.68 2.038.406.654 1.03 2.25 1.748 2.526.843.324 1.55.262 2.656.97 2.525 1.62 4.47 4.663 4.377 7.612-.03.988-.48 2.367-.75 3.31-2.94 10.284-9.94 13.548-17.01 22.382-3.003 3.764-5.374 6.767-5.374 11.59 0 1.168 1.436 3.303 2.07 4.275-.388-2.266.648-5.05 3.045-5.18 3.28-.178 5.816 2.317 6.258 5.57.09.76-.194 2.07-.518 2.848 1.767-1.166 4.096-1.954 6.217-2.202 1.148-.124 1.812-.16 2.98-.13 5.244.13 11.033 3.08 14.546 6.065 10.75 9.13 12.05 22.492 11.462 26.203-1.305 8.247-.483 23.17-21.56 29.118 3.897 1.642 6.55 4.573 6.55 8.178 0 3.923-3.005 7.28-6.927 7.28-2.245 0-3.8-.55-5.372-2.12-4.38 4.38-5.23 8.852-5.23 15.053 0 3.71.708 5.9 2.263 9.258 1.644 3.552 2.827 5.637 5.796 8.198 1.57-2.367 3.232-4.1 6.077-4.1 2.757 0 5.09.885 6.22 3.394.336.76.035 1.378.424 2.12.496.954 1.326 1.166 1.84 2.12.794 1.467.018 2.722.706 4.24.44.99 1.414 1.132 1.838 2.12.67 1.52.848 2.563.848 4.24 0 4.7-4.276 8.06-8.977 8.06-1.413 0-2.19-.566-3.604-.425 2.688 2.686 4.737 3.852 6.786 7.067 2.97 4.647 3.71 7.952 4.383 13.43.122 1.024.14 1.644.14 2.686 0 7.032-1.095 11.238-4.24 17.528-3.004 6.025-5.566 9.365-11.025 13.287-8.518 6.13-14.72 7.898-25.02 9.895-6.61 1.272-10.39 1.838-17.105 2.262-8.588.548-13.482.565-22.053 1.13-11.237.76-19.03 2.352-27 10.32 3.765 2.756 6.362 5.46 6.362 10.107 0 4.77-2.952 8.18-7.493 9.683-1.06.354-1.837.035-2.827.565-1.184.618-1.13 1.98-2.262 2.686-1.996 1.273-3.552 1.556-5.937 1.556-4.205 0-7.067-.99-10.036-3.958-3.445 2.863-4.612 5.442-8.48 7.634-1.273.706-1.927 1.696-3.394 1.696-2.314 0-3.375-1.467-5.23-2.827-2.95-2.155-4.523-3.586-6.927-6.36-3.516 2.103-5.672 3.816-9.754 3.816-2.51 0-4.1-.354-6.22-1.696-1.114-.688-1.29-1.714-2.404-2.402-1.166-.725-2.138-.46-3.393-.99-4.718-2.03-7.774-5.53-7.774-10.672 0-4.506 2.844-7.368 6.926-9.26-7.828-7.826-15.532-9.187-26.576-9.894-8.534-.548-13.394-.565-21.91-1.132-6.77-.46-10.532-1.148-17.247-2.262-5.07-.83-8.075-1.095-12.722-3.25-15.99-7.457-26.187-17.688-28.27-35.2-.178-1.5-.142-2.366-.142-3.886 0-9.118 3.587-14.684 10.036-21.133-1.66-.39-2.774.157-4.383-.426-4.027-1.466-6.925-4.258-6.925-8.552 0-1.59.07-2.65.848-4.03.548-.97 1.59-1.165 1.838-2.26.318-1.45-.105-2.474.566-3.817.44-.9 1.272-1.078 1.696-1.98 1.396-2.897 3.146-5.23 6.36-5.23 2.757 0 4.524 1.45 5.938 3.817 2.687-1.236 3.428-3.25 4.947-5.795 2.527-4.224 3.676-7.174 3.676-12.086 0-3.427-.336-5.442-1.413-8.692-.778-2.333-1.096-3.923-2.827-5.655-1.573 1.573-3.128 2.12-5.372 2.12-4.487 0-7.915-3.852-7.915-8.34 0-3.34 1.644-5.812 4.665-7.208-2.42-2.085-4.523-2.262-7.21-3.958-4.08-2.58-5.513-5.3-8.198-9.33-1.75-2.633-2.21-4.47-3.11-7.492-1.077-3.64-1.696-5.813-1.696-9.612 0-.99.02-1.572.142-2.544 1.007-7.67 2.386-12.476 7.21-18.52 2.86-3.586 4.806-5.795 9.046-7.632 3.604-1.555 5.76-2.686 9.684-2.686 1.184 0 1.873 0 3.04.142 1.8.23 2.95.39 4.522 1.272.6.336 1.696 1.343 1.696.636 0-.813-.424-1.237-.424-2.05 0-3.25 2.332-6.22 5.584-6.22 2.35 0 3.304 2.067 4.452 4.1.742-1.237 1.13-2.085 1.13-3.534 0-5.372-2.88-8.11-6.22-12.298-7.278-9.1-16.396-13.358-16.396-25.02 0-3.48 1.68-5.85 4.665-7.633.865-.513 2.03 0 2.877-.542.725-.46.642-1.395 1.102-2.137.724-1.148 1.365-1.642 2.373-2.525 1.66-1.45 3.118-1.015 4.956-2.287.918-.636 1.135-1.462 1.842-2.31 2.05-2.475 3.89-3.67 7.123-3.67 1.627 0 2.54.01 4.04.608.514.195 1.47.967 1.595.817.324-.387 1.2-1.317 2.244-1.812 1.36-.654 1.91-.907 3.43-.907 1.732 0 2.867.973 4.6.973.636 0 .782-.636 1.295-.972 1.537-1.04 2.422-1.63 4.295-1.63 1.802 0 2.798.595 4.317 1.567 1.43.9 1.637 2.108 3.104 2.956.813.478 1.503.266 2.404.566 4.028 1.342 7.067 4.027 7.067 8.268 0 2.297-.547 3.94-2.26 5.442-1.36 1.202-2.65.99-4.383 1.555 5.62 4.488 10.508 5.6 17.682 5.6 6.572 0 14.61-2.686 14.61-9.26 0-3.056-1.688-4.698-2.89-7.508-2.156-5-3.326-7.942-3.326-13.384 0-4.312.47-6.927 2.98-10.426 2.578-3.604 5.73-4.445 10.166-4.445v-.002z"></path>
<path class="style01" stroke-width="1.041" stroke-linejoin="round" d="M425.59 223.46c.433 1.63 1.752 3.16 3.82 3.807 1.244.39 4.12.233 5.986-2.177 1.513-1.954 1.396-4.374.832-6.297-.365-1.245-1.37-2.446-2.698-3.468l-7.938 8.057-.002.078z"></path>
<path class="style01" stroke-width="1.037" stroke-linecap="round" d="M626.61 343.94c-1.866-4.51-6.687-2.488-6.983 0-.683 5.732 4.34 7.464 7.916 6.53 1.77-.46 3.067-1.577 3.896-3.03.934-1.64 1.217-3.78.61-5.824-.276-.927-.663-1.707-1.326-2.58-.666-.88-1.354-1.48-2-1.892-1.375-.878-2.873-.965-5.224-.965-8.708 0-16.327 10.288-18.886 20.976-.843 3.52-2 11.37-.396 18.815 1.71 7.932 5.138 13.42 9.16 17.586 2.176 2.255 5.145 4.262 8.99 6.436 1.185.67 4.318 2.06 6.495 2.683 2.236.64 4.3.546 6.158.142 5.16-1.12 7.56-5.92 4.96-10.828-2.127-4.022-8.395-6.222-11.35-1.09-.25.435-.642 1.384-.63 2.41.017 1.368.585 3.018 1.563 3.64 2.245 1.43 5.838 1.025 5.67-2.94"></path>
<path class="style01" stroke-width="1.276" d="M599.69 403.07c1.747-2.057 5.757-5.14 10.343-5.704 4.654-.57 8.698.784 12.828 3.005 8.06 4.336 12.555 8.996 15.55 17.643.76 2.195 1.392 5.505 1.304 9.02-.14 5.605-1.563 11.73-3.092 14.693-1.334 2.583-4.82 13.994-23.946 21.868-11.16 4.595-28.3 5.653-40.117 6.12-16.258.642-31.256 1.244-39.964 11.973"></path>
<g class="style01" stroke-width="1.121">
<path d="M603.75 421.45c-.467-1.71-.035-3.35 1.32-5.21 1.815-2.484 5.677-3.343 9.176-1.398 1.17.65 2.638 1.507 3.965 3.265.503.666 1.352 1.74 1.79 2.488 1.058 1.81 1.493 3.293 1.702 3.888 3.846 10.928-2.266 22.77-10.255 27.52-6.206 3.692-13.607 5.337-22.47 6.376-3.98.467-6.256.437-10.262.622-3.224.148-6.01.096-8.63.063-2.158-.026-4.205-.016-6.297-.063-3.416-.08-6.95-.16-11.274.155-4.55.33-7.973.447-11.818 1.09-2.512.417-5.455.82-8.542 1.514-.926.208-1.865.378-2.81.663-.634.19-1.26.385-1.88.574-5.572 1.7-10.985 3.77-15.258 6.52-1.32.852-2.81 1.702-3.877 2.71-.666.626-1.473 1.256-2.125 1.897-2.99 2.94-6.047 6.126-6.762 10.438-.132.796-.132 1.63-.132 2.507 0 2.798 2.278 6.607 8.42 7.852M516.37 229.11c1.285 2.324 1.992 3.738 1.244 6.142-.848 2.723-2.778 4.354-5.52 4.354-6.22 0-9.88-7.364-7.076-12.05 4.977-8.32 14.54-3.647 23.402.473-.428-2.135-1.174-2.83-1.096-5.472.193-6.564 5.06-9.54 7.005-15.605 1.156-3.612 1.617-6.75-1.026-9.315-2.308-2.24-4.982-2.206-7.994-1.025-6.018 2.36-13.246 9.137-25.97 9.326-12.724-.19-20.012-6.968-26.03-9.327-3.012-1.18-5.686-1.215-7.993 1.025-2.644 2.566-2.183 5.703-1.025 9.315 1.943 6.064 6.812 9.04 7.005 15.605.077 2.644-.67 3.337-1.096 5.47 8.864-4.12 18.8-9.21 23.402-.473 2.565 4.87-.854 12.05-7.075 12.05-2.74 0-4.667-1.747-5.52-4.353-.76-2.322 0-4.354 1.244-6.142"></path>
<path stroke-linecap="round" d="M491.5 224.79c2.403 1.838 4.1 4.1 3.816 7.775-.307 3.986-1.272 4.947-4.382 7.068M494.68 233.7c-.14 2.403-1.13 3.958-3.533 4.947"></path>
</g>
<path fill="#C7B37F" d="M432.4 214.49l1.088.777 1.166 1.244.777 1.556.39 1.322.078 1.71-.078 1.166-.39 1.322-.776.933-.933 1.01-1.32.7-1.71.39-1.478.232-1.556-.7-1.4-1.01-.854-1.244-.622-1.555v-.622l7.62-7.23z"></path>
<path class="style01" stroke-width="1.041" stroke-linecap="round" d="M430.01 220.57c-.48-2.58-3.495-3.11-4.664-1.586-1.8 2.348-.485 6.257 3.176 7.4 1.243.39 4.12.234 5.986-2.176 1.513-1.954 1.396-4.374.832-6.297-.365-1.244-1.364-2.33-2.698-3.342-4.25-3.233-11.118-2.488-13.373 2.954-2.91 7.02 3.42 12.284 9.25 16.25 7.342 4.99 15.706 5.898 22.004 5.83 14.307-.156 25.19-6.998 32.266-10.884 1.648-.905 3.345-.72 4.198.31.963 1.166.947 3.044-.39 4.277"></path>
<path class="style01" stroke-width="1.057" d="M387.6 414.35l-3.188 1.167-3.266 2.487-1.4 1.944-1.787 3.11-.778 2.33-.622 2.878-.31 2.177M405.95 414.66l-.233 2.8-.467 1.942-1.4 3.344-2.176 2.876-2.332 1.866-1.71.855-2.41.544"></path>
<path class="style01" stroke-width="1.197" d="M499.6 489.23c-.58 2.587-3.004 5.548-8.278 6.616l-1.025.212"></path>
<path class="style01" stroke-width="1.356" d="M631.59 406.57c3.34 3.113 5.686 6.904 7.488 12.108.76 2.195 1.39 5.506 1.304 9.02-.14 5.605-1.563 11.73-3.092 14.693-1.334 2.584-4.82 13.994-23.946 21.868-11.16 4.596-28.3 5.654-40.118 6.12-16.02.634-30.822 1.228-39.582 11.517"></path>
<path class="style01" stroke-width=".929" d="M605.45 416.95c1.188-1.62 5.518-3.674 9.017-1.73 1.15.64 2.516 1.45 3.713 3.243"></path>
<path class="style01" stroke-width="1.356" d="M627.51 402.79c.782.3 1.56.57 2.244.767 2.235.64 4.337.688 6.158.143 4.422-1.327 7.26-5.46 4.96-10.83-.534-1.244-1.556-2.438-2.717-3.332"></path>
<path class="style01" stroke-width="1.041" stroke-linecap="round" d="M375.44 287.13c-2.97 1.838-5.183 2.273-7.492 4.948-2.3 4.553-3.204 7-4.1 10.65M435.88 221.96c0 2.686-1.98 4.382-4.665 4.947"></path>
<path class="style01" stroke-width=".997" d="M620.49 275.03c7.39-.15 28.858 5.64 29.012 30.876.15 24.925-15.383 28.997-21.607 30.656"></path>
<path class="style01" stroke-width="1.037" d="M622.43 275.03c12.743-.554 25.893 8.826 26.473 32.236.452 18.29-12.518 26.584-18.742 28.243"></path>
<g class="style01" stroke-width=".881">
<path d="M615.33 363.16l.196-2.502.834-3.975 1.177-3.09 1.325-2.552 1.717-2.06M632.74 343.67l-.194 2.45-.7 1.67-1.09 1.595-1.242.933-1.905.7-1.672.116-1.244-.194M602.33 268.42l.544-2.644 1.166-2.45 1.517-2.448 2.604-3.343 2.062-2.293 3.343-3.382 2.877-2.916 1.826-2.1 2.41-2.915 2.14-3.228 1.282-2.644.7-3.42.212-4.242-.39-1.23M605.44 429.44l2.526-.506 1.905-1.01 1.05-1.05.74-1.206.504-1.943.04-1.36M364.94 403.38l1.866.155 2.41-.194 2.41-.854M379.44 345.38l-.312 2.177-.505.972-.74.932-1.01.777-1.127.504-1.478.233-1.01.078M388.73 326.65l-.545 3.382-.66 1.478-1.36 1.866-1.828 1.4-1.865.932-3.615.894M402.76 274.48l-.7 2.02-.854 1.478-1.166 1.633-1.633 1.478-1.943.933-1.633.39-1.01-.078M394.41 272.65l.04 1.555"></path>
</g>
<g class="style01" stroke-width=".987">
<path stroke-linecap="round" d="M397.32 325.09c-1.128 1.01-2.25 1.63-3.266 2.03M629.24 397.16c.133.145.58.217.738.31 2.216 1.323 6.577-.325 5.295-3.746"></path>
<path d="M621.54 349.38c1.572 2.055 4.538 2.588 6.883 1.977 1.77-.462 3.067-1.578 3.896-3.03.934-1.64 1.216-3.78.61-5.825-.276-.927-.663-1.707-1.326-2.58-.666-.878-1.492-1.812-2.133-2.23-.168-.112-.338-.262-.517-.384M638.99 390.46c.067-.364.104-.74.104-1.125 0-1.81-.758-3.468-2.01-4.585-.428-.383-.84-.975-1.36-1.233M636.47 384.25c-.072-2.912-2.456-4.996-5.41-5.514M624.54 383.17c-.68-.555-1.406-1.024-2.042-1.69-3.826-4.003-6.704-9.923-6.742-16.676-.037-6.474 2.565-13.062 5.598-15.627M533.07 481.44l2.8-2.566 1.942-1.477 3.654-2.255 3.42-1.633 2.41-.623 4.82-1.088 5.6-.856M511.61 501.2c-2.022 3.11-6.843 7.774-11.896 9.64-5.054-1.865-9.874-6.53-11.895-9.64"></path>
<path stroke-linecap="round" d="M491.28 494.73c-.634 2.35-1.785 4.626-3.468 6.45"></path>
<path d="M491.78 491.47l-.7 3.42M487.43 501.42l-1.477 1.478-2.644 1.477-3.033.934M471.46 227.45c.38-1.182.768-2.072.71-4.015-.193-6.564-5.06-9.54-7.005-15.606-1.157-3.613-1.618-6.75 1.025-9.316 2.308-2.24 4.98-2.206 7.994-1.025 6.017 2.358 13.308 9.137 26.03 9.325-12.723-.188-20.014-6.967-26.03-9.326-3.013-1.182-5.936-1.526-8.243.713-2.642 2.566-1.933 6.014-.775 9.626 1.944 6.063 6.563 9.04 6.756 15.605.06 1.942-.454 2.833-.833 4.015M500.18 206.37c12.518-.66 23.245-9.07 26.706-9.757 3.086-.612 4.81-.335 7.072 1.72-2.264-2.056-4.842-1.992-7.77-.844-6.02 2.358-13.247 9.136-25.97 9.325M624.59 383.2c-5.21-3.73-9.672-10.856-9.718-19.274-.036-6.474 2.565-13.06 5.597-15.627M511.17 500.76c-2.02 3.11-6.842 7.775-11.895 9.64-5.054-1.864-9.874-6.53-11.896-9.64"></path>
<path stroke-linecap="round" d="M479.17 230.74c1.302-.72 2.51-1.407 3.624-2.02 1.648-.905 3.63-.715 4.482.317.963 1.165 1.11 3.183-.226 4.416"></path>
<path d="M460.48 239.49c8.587-1.792 15.585-5.638 20.875-8.597M531.78 487.43c.71.484 1.166 1.493 1.166 1.493.196.468.45.91.52 1.326.404 2.378-1.155 3.86-3.082 4.084-2.647.308-4.635-1.265-5.482-3.17M460.04 239.05c8.588-1.792 15.585-5.638 20.875-8.597M633.38 397.49c-1.633.63-2.525.544-4.557-.358-.834-.37-1.788-.943-2.907-1.578-3.98-2.26-8.707-5.823-13.14-14.144-1.31-2.46-2.124-4.742-2.672-6.992-.423-1.734-.716-3.45-.78-5.21-.106-3 .216-6.133.965-9.722 1.235-5.926 2.725-9.143 6.375-14.15 1.795-2.462 3.343-3.965 6.686-4.042M398.83 279.88c2.78 2.362 4.12 5.287 4.12 8.94 0 4.842-4.05 12.75-14 15.55-3.815 1.072-7.59.207-9.872-1.18"></path>
<path d="M400.46 296.28c1.788 1.244 2.488 2.64 2.488 5.07 0 1.665-1.076 3.823-2.907 5.867-2.997 3.346-8.08 6.19-13.716 6.26-3.056.038-6.23-.6-9.42-2.736-3.414-2.28-5.21-5.363-5.988-8.395"></path>
<path d="M400.3 306.71c2.026 1.862 2.648 4.193 2.648 7.13 0 4.288-1.742 7.6-5.75 11.106-.896.784-1.904 1.52-3.032 2.18M596.4 292.63v5.52M595.96 291.27v7.774M596.4 274.44v10.185M595.96 272.19v13.918M592.99 414.17c-1.93 3.835-3.473 5.85-6.53 8.863-3.086 3.04-5.225 4.435-9.097 6.375-3.772 1.89-6.148 2.492-10.264 3.42-4.113.93-6.52 1.132-10.73 1.322-3.862.176-6.053.015-9.91-.254-4.127-.286-6.416-.86-10.538-1.223-3.403-.3-5.326-.574-8.743-.565-3.513.01-5.525.03-8.983.643-3.224.572-5.053 1.027-8.086 2.256-4.197 1.7-8.94 4.665-9.95 5.987-1.012-1.322-5.755-4.286-9.953-5.987-3.033-1.23-4.862-1.684-8.085-2.255-3.46-.61-5.472-.633-8.983-.642-3.418-.01-5.34.267-8.744.565-4.12.36-6.41.937-10.538 1.223-3.857.267-6.048.43-9.91.254-4.21-.19-6.617-.39-10.728-1.32-4.115-.933-6.488-1.535-10.263-3.422-3.875-1.937-6.01-3.334-9.097-6.375-.333-.328-.648-.646-.948-.953M478.8 505.47l2.8-.35M528.9 501.44l2.824-.27 2.69-1.076 1.884-1.144 2.557-3.027.537-1.144.404-2.624.135-1.21M613.23 277.36c1.213-4.127-.268-8.483-4.267-8.366M402.79 341.75c-1.014 3.428-3.194 5.77-5.62 7.293M402.86 276.05c-1 2.89-2.83 4.953-5.724 6.26-2.887 1.305-6.228.087-8.015-1.29"></path>
<path stroke-linecap="round" d="M380.95 291.2c2.392 1.252 4.82-.584 4.32-3.696-.232-1.458-1.804-3.3-3.932-3.433"></path>
<path d="M390.87 422.86c.516.484.626 1.114 1.32 1.243 1.05.194 1.867.583 2.917-.816 1.294-1.725.6-4.408-.747-6.097-1.44-1.81-5.614-3.406-9.112-1.462-1.17.65-2.638 1.506-3.965 3.266-.502.665-1.35 1.738-1.788 2.487-1.06 1.812-1.494 3.294-1.704 3.89-3.2 9.097.602 18.663 6.49 24.492"></path>
<path stroke-linecap="round" d="M531.59 487.23c.638.664 1.01 1.244 1.01 1.244.197.468.358.91.43 1.326.402 2.38-1.157 3.86-3.084 4.085-2.647.308-4.42-1.252-5.268-3.157"></path>
<path d="M608.5 216.81c5.228.638 9.783 5.627 9.783 10.992 0 6.92-2.33 9.496-5.974 14.446-3.9 5.297-16.64 15.005-16.64 26.045 0 6.687 1.866 10.962 6.687 13.14 3.108 1.402 6.743-.117 8.397-1.612 4.043-3.653 2.426-10.06-1.788-10.827-5.132-.933-6.097 7.145-1.09 6.608M635.73 383.51c-.46-2.77-2.813-4.88-5.648-4.88-3.164 0-5.73 2.628-5.73 5.87 0 1.588.616 3.03 1.615 4.086"></path>
<path d="M599.79 279.88c-2.78 2.362-4.12 5.287-4.12 8.94 0 4.842 4.05 12.75 14 15.55 3.814 1.072 7.46.97 9.74-.417M375.61 287.8c-2.38.794-5.35 2.277-7.55 5.396-1.856 2.63-2.938 6.286-3.61 9.484-.292 1.4-.642 5.832.254 10.41.66 3.38 2.058 6.527 3.602 8.807.554.817 1.056 1.367 1.62 1.932.52.517 1.253.974 1.774 1.372M471.72 469.02c7.577 3.36 13.13 5.875 17.84 13.31 1.477 2.333 1.865 5.677 1.865 7.62 0 4.198-1.71 8.94-5.21 11.895-3.245 2.742-6.452 3.577-10.417 3.188-3.007-.295-5.83-2.488-6.298-4.043M396.88 325.2c4.276 3.343 6.064 6.586 6.064 11.74 0 5.91-2.877 9.563-6.22 11.662"></path>
<path stroke-linecap="round" d="M392.99 344.41c6.375 7.93 9.758 12.637 9.95 22.08.183 8.862-2.643 14.927-7.93 21.303"></path>
<path d="M515.23 239.57c1.158-.76 2.01-1.98 2.497-3.485.753-2.325.77-4.308-.475-6.096 1.534 2.007 1.676 3.704 1.243 6.14-.274 1.553-1.264 2.37-2.497 3.486M596.4 374.24v25.24h.066c0 .02-.01 2.39-.212 3.888-.133.982-.27 1.87-.43 2.702"></path>
<path d="M595.96 371.81v27.224h.067c0 .02-.01 2.39-.212 3.888-.212 1.562-.437 2.887-.73 4.124M595.96 339.94v22.703M596.4 341.73v18.463M596.4 318.25v13.84M595.96 316.62v17.064M596.4 304.1v5.37M595.96 303.01v7.776M593.08 412.65c-.166.35-.342.71-.53 1.084-1.93 3.835-3.473 5.85-6.53 8.863-3.086 3.04-5.224 4.434-9.097 6.375-3.77 1.89-6.147 2.49-10.263 3.42-4.112.93-6.518 1.132-10.73 1.322-3.86.175-6.052.01-9.908-.255-4.127-.286-6.417-.86-10.538-1.223-3.403-.3-5.326-.574-8.743-.566-3.51.012-5.523.032-8.98.645-3.225.57-5.054 1.025-8.087 2.255-4.198 1.7-8.94 4.665-9.952 5.986-1.01-1.32-5.753-4.286-9.95-5.986-3.034-1.23-4.862-1.684-8.086-2.255-3.46-.612-5.472-.635-8.983-.644-3.416-.01-5.34.268-8.742.567-4.12.36-6.41.937-10.538 1.222-3.856.267-6.047.43-9.91.254-4.21-.19-6.616-.39-10.728-1.32-4.114-.934-6.49-1.535-10.263-3.422-3.876-1.938-6.013-3.334-9.098-6.375-1.615-1.593-2.81-2.906-3.858-4.355M406.42 413.26c.666 4.942-1.413 9.8-3.522 12.034-1.322 1.4-4.2 4.073-7.775 4.12-5.908.078-7.672-3.986-8.03-4.976"></path>
<path d="M399.4 410.7c1.096 1.083 2.07 2.404 2.893 3.965 1.478 2.8 1.022 7.48-.147 9.64-.13.238-.288.49-.476.75M370.04 453.2c3.514 3.688 8.827 7.69 16.99 11.052 11.16 4.596 28.3 5.654 40.118 6.12 15.715.62 30.192 1.267 39.01 10.998M493.29 475.01c2.6 2.557 5.247 5.296 6.366 8.798M488.18 501.7c-.34.362-.7.706-1.083 1.03-3.246 2.74-6.453 3.575-10.418 3.187-3.008-.295-5.908-2.548-6.686-4.025M461.63 497.35c.146.198.298.39.457.577 1.888 2.198 4.868 3.576 7.978 3.833M512.05 501.64c-2.02 3.11-6.842 7.774-11.895 9.64-5.054-1.865-9.874-6.53-11.896-9.64-.164-.25-.32-.493-.473-.727M512.13 501.62c.36.392.746.763 1.156 1.108 3.246 2.74 6.453 3.576 10.418 3.188 3.007-.295 5.396-2.304 6.36-4.043 0 0 .54-.58.69-1.137"></path>
<path d="M529.75 500.99l-1.16 1.866-1.766 1.464-2.674 1.11-2.422.1"></path>
<path d="M536.03 483.22c1.43 1.097 2.835 2.76 3.6 4.534.49 1.142.717 2.396.786 3.698.133 2.468-.734 4.74-2.223 6.474-1.997 2.326-5.112 3.733-8.43 3.866-.245.01-.49.01-.733 0M529.32 501.35c-3.17.128-6.004-1.23-8.093-3.375M620.72 391.93c-2.474-2.28-5.036-5.44-7.507-10.076-1.31-2.46-2.124-4.744-2.672-6.993-.423-1.734-.716-3.45-.778-5.21-.108-3 .215-6.132.964-9.722 1.235-5.924 3.442-10.508 6.375-14.15 1-1.24 2.155-2.79 3.252-3.487M618.2 223.83c3.965.31 7.64 4.58 7.59 8.764-.07 6.078-2.108 8.59-6.89 14.545-4.12 5.13-16.482 14.15-16.172 22.78.055 1.53.88 3.114 1.802 4.39M599.59 279.72c.88.868 1.94 1.584 3.207 2.156 2.262 1.02 4.8.495 6.654-.443M576.37 213.9c1.327.904 2.682 2.29 3.415 4.062 2.908 7.02-3.42 12.284-9.252 16.25-4.182 2.842-8.694 4.36-12.97 5.128"></path>
<path d="M569.69 227.43c-1.414-.014-3.095-.417-4.92-2.34-.42-.442-.913-1.027-1.106-1.552M540.45 231.2c-.738-.37-1.53-.91-2.062-1.504-1.387-1.55-2.31-3.65-1.243-6.854.988-2.962 5.747-11.274 5.98-17.027.355-8.79-3.024-13.977-8.313-16"></path>
<path stroke-linecap="round" d="M542.68 203.85l-.206 3.305-.895 3.374-1.723 4.612-1.31 2.96-1.376 2.96-.687 2.067-.275 1.514.207 1.446M595.81 423.4c.272.66.934 1.306.934 1.306 1.01 1.688 4.94 4.654 8.515 4.7 5.907.08 7.31-4.056 7.463-4.975.745-4.508-.797-5.74-3.11-7.012 0 0-1.36-.705-2.994-.434"></path>
<path d="M370.23 403.67c-2.087.534-4.046.547-5.758.033-4.423-1.326-8.007-5.563-6.18-10.83M379.21 343.15c.443.445.586 1.108.653 1.67.683 5.73-4.34 7.4-7.916 6.47-1.77-.464-3.883-2.108-4.71-3.562-.598-1.047-.96-2.3-.963-3.6M400.74 307.15c.896.824 1.517 1.738 1.932 2.757M400.9 296.6c.83.577 1.425 1.312 1.824 2.042"></path>
<path stroke-linecap="round" d="M402.91 303.94c-.483 1.19-1.317 2.475-2.43 3.718-3 3.346-8.083 6.19-13.717 6.26-3.057.038-6.23-.6-9.422-2.735-3.412-2.283-5.637-5.528-6.376-8.716"></path>
<path d="M399.11 280.13c1.73 1.47 3.06 3.347 3.698 5.294"></path>
<path stroke-linecap="round" d="M402.86 292.56c-1.385 4.574-5.51 10.23-13.474 12.248-3.804.964-8.702-.24-10.374-1.664"></path>
<path d="M375.06 291.49c.417 4.12 3.175 7.208 8.4 7.308 7.352.14 11.82-10.574 5.288-18.094"></path>
<path stroke-linecap="round" d="M358.52 327.39c1.074 1.347 2.338 2.56 3.63 3.636 2.62 2.182 5.712 4.102 9.272 5.153M379.67 336.95c6.57-.79 10.272-5.684 9.538-11.41-.56-4.363-4.562-7.718-7.285-7.912"></path>
<path d="M390.39 268.92c2.85-.105 4.47 2.483 4.444 4.665"></path>
<path stroke-linecap="round" d="M389.72 229.81c1.562 4.083 4.604 7.275 7.86 9.1M622.86 287.29c2.686 3.68.927 10.932-6.38 11.07-2.854.054-5.43-1.528-6.938-3.924"></path>
<path d="M596.4 239.25v24.686"></path>
<path stroke-linecap="round" d="M380.87 291.14c2.255 1.632 5.15-1.124 4.03-4.05-.757-1.974-3.563-4.106-7.45-1.463-4.294 2.92-3.11 12.13 5.13 12.284 7.35.14 11.818-10.573 5.287-18.092-6.282-7.234-17.727-5.542-25.19.396-3.176 2.526-9.174 9.146-11.04 18.164-.58 2.808-.955 5.112-.91 7.93.028 1.857.2 3.937.755 6.53 1.123 5.24 2.968 9.08 4.806 11.746.704 1.02 1.347 1.87 2.037 2.56 1.278 1.28 1.66 1.958 2.954 3.033 4.222 3.515 9.664 6.27 16.325 5.987 7.31-.312 11.508-5.442 10.73-11.507-.755-5.88-6.69-8.805-10.575-6.064-2.644 1.866-3.584 7.645 1.09 9.02 2.643.776 4.975-2.566 3.108-4.51M584.4 210.68c4.218-2.29 7.47-1.867 9.874 1.47 2.613 3.626 2.985 8.453 2.41 11.28-.855 4.198-2.07 5.942-5.407 8.987"></path>
<path stroke-linecap="round" d="M594.58 212.55c4.82-3.187 10.04-1.833 12.906 2.41 2.1 3.11 2.636 5.712 2.487 9.563-.253 6.6-4.384 11.832-8.94 14.383"></path>
<path d="M617.28 223.67c3.965.31 7.152 3.9 7.152 8.086 0 5.986-1.67 8.583-6.453 14.54-4.12 5.13-16.483 14.15-16.172 22.78.117 3.262 2.868 6.337 5.242 6.508"></path>
<path stroke-linecap="round" d="M617.75 291.14c-2.255 1.632-5.13-1.003-3.888-3.803.86-1.933 3.42-4.354 7.31-1.71 4.292 2.92 3.11 12.13-5.132 12.284-7.35.14-12.317-10.296-5.287-18.092 6.416-7.116 18.314-5.724 25.777.214 3.177 2.527 9.566 9.466 10.937 18.573 1.658 11.02 1.445 24.575-9.937 32.922-4.577 3.356-10.918 4.882-16.517 4.636-7.308-.32-11.506-5.442-10.73-11.507.755-5.88 6.416-8.368 10.575-6.064 4.32 2.393 3.564 8.466-1.09 9.02-2.734.324-4.975-2.566-3.108-4.51"></path>
<path d="M613.86 287.34c1.212-5.454 5.884-5.962 9.657-5.907 10.296.15 17.416 12.364 17.535 24.178.15 14.924-6.334 23.712-17.24 24.18-2.823.12-7.685-1.222-7.77-4.666"></path>
<path stroke-linecap="square" d="M620.2 284.9c10.857 2.413 14.67 12.196 14.67 21.532 0 7.616-.754 18.022-15.575 21.682"></path>
<path d="M638.11 389.58c.067-.365.104-.74.104-1.125 0-3.37-2.733-6.104-6.104-6.104-3.37 0-6.104 2.733-6.104 6.105 0 1.94.905 3.668 2.315 4.785"></path>
<path stroke-linecap="round" d="M616.33 380.33c2.043 3.032 4.517 6.403 9.74 9.237M624.11 406.05c-5.12-3.358-14.84-7.762-23.624-3.428-3.26 1.608-5.442 3.597-6.676 6.84-2.22 5.84.262 12.275 2.788 14.95 1.32 1.398 4.2 4.072 7.774 4.12 5.91.077 7.313-4.058 7.464-4.977.7-4.275-1.788-5.986-3.11-6.453-1.014-.357-4.31-.266-5.012 2.065-.232.777-.274 2.133.348 3.144"></path>
<path stroke-linecap="round" d="M531.99 488.16c1.633 3.343-.225 5.023-2.488 5.286-3.343.39-5.13-2.254-5.364-4.664-.378-3.908 2.916-7.45 6.842-7.386 3.535.057 6.415 2.337 7.765 5.477.49 1.14.718 2.395.787 3.697.133 2.468-.734 4.74-2.223 6.474-1.998 2.326-5.113 3.733-8.43 3.866-6.6.265-11.74-5.908-11.74-12.206 0-12.05 17.873-18.623 24.958-20.313 8.707-2.077 14.006-2.854 27.988-3.632 5.6-.31 9.697-.153 15.86-.792 5.517-.57 8.397-.84 14.073-2.162 7.082-1.65 13.683-4.587 19.59-9.952 4.55-4.13 7.154-7.074 9.26-12.75 1.818-4.897 2.653-14.596-1.95-21.77-4.07-6.34-9.72-9.633-16.17-10.565-5.83-.843-10.943 1.673-13.996 7.457-1.478 2.8-1.022 7.48.148 9.64 1.01 1.866 3.896 4.618 7.47 4.666 5.91.077 7.314-4.058 7.465-4.977.7-4.275-1.788-5.986-3.11-6.453-1.014-.357-4.312-.266-5.012 2.065-.232.777-.274 2.133.348 3.144"></path>
<path stroke-linecap="round" d="M526.9 469.02c-7.577 3.36-13.13 5.875-17.84 13.31-1.477 2.333-1.865 5.677-1.865 7.62 0 4.198 1.71 8.94 5.21 11.895 3.245 2.742 6.452 3.577 10.417 3.188 3.007-.295 5.83-2.488 6.298-4.043"></path>
<path d="M601.73 325.2c-3.545 1.182-6.064 6.586-6.064 11.74 0 5.91 2.876 9.563 6.22 11.662"></path>
<path stroke-linecap="round" d="M605.62 344.41c-6.376 7.93-9.758 12.637-9.952 22.08-.182 8.862 2.644 14.927 7.93 21.303"></path>
<path d="M571.64 212.58l.548-.81c2.644-3.887 7.312-4.912 10.73-2.333 4.12 3.11 5.16 8.402 4.042 13.994-.7 3.5-3.073 6.414-6.325 8.522"></path>
<path stroke-linecap="round" d="M414.22 210.68c-4.043-1.866-7.37-1.507-9.874 1.47-2.877 3.42-2.986 8.453-2.41 11.28.855 4.198 2.068 5.942 5.407 8.987"></path>
<path d="M404.03 212.55c-4.82-3.187-10.04-1.833-12.906 2.41-2.1 3.11-2.636 5.712-2.488 9.563.254 6.6 4.385 11.832 8.94 14.383"></path>
<path d="M390.12 216.81c-5.228.638-9.4 5.07-9.4 10.433 0 6.92 1.703 9.718 5.59 15.005 3.897 5.3 16.64 15.005 16.64 26.045 0 6.687-1.867 10.962-6.688 13.14-3.108 1.402-6.742-.117-8.396-1.612-4.043-3.653-2.427-10.06 1.788-10.827 5.13-.933 6.096 7.145 1.088 6.608"></path>
<path d="M381.33 223.67c-3.965.31-7.866 3.723-7.866 7.908 0 5.986 2.384 8.76 7.166 14.716 4.12 5.13 15.763 13.972 15.45 22.602-.116 3.263-2.31 7.253-4.487 6.787"></path>
<path stroke-linecap="round" d="M372 343.94c1.866-4.51 6.687-2.488 6.982 0 .684 5.732-4.34 7.464-7.915 6.53-1.77-.46-3.067-1.577-3.896-3.03-.934-1.64-1.217-3.78-.61-5.824.275-.927.663-1.707 1.326-2.58.666-.88 1.354-1.48 2-1.892 1.375-.878 2.873-.965 5.224-.965 8.707 0 16.327 10.288 18.886 20.976.843 3.52 2 11.37.396 18.815-1.71 7.932-5.138 13.42-9.16 17.586-2.176 2.255-5.145 4.262-8.99 6.436-1.185.67-4.318 2.06-6.495 2.683-2.236.64-4.337.688-6.158.142-4.424-1.326-7.263-5.46-4.96-10.828 1.79-4.183 8.395-6.222 11.35-1.09.25.435.642 1.384.63 2.41-.017 1.368-.585 3.018-1.563 3.64-2.246 1.43-5.838 1.025-5.67-2.94"></path>
<path d="M365.24 397.49c1.633.63 2.525.544 4.557-.358.834-.37 1.79-.943 2.907-1.578 3.98-2.26 8.707-5.823 13.14-14.144 1.31-2.46 2.124-4.742 2.672-6.992.423-1.734.716-3.45.78-5.21.106-3-.217-6.133-.965-9.722-1.235-5.926-2.725-9.143-6.375-14.15-1.795-2.462-3.343-3.965-6.687-4.042"></path>
<path d="M360.51 389.58c-.067-.365-.104-.74-.104-1.125 0-3.37 2.732-6.104 6.104-6.104s6.104 2.733 6.104 6.105c0 1.94-.904 3.668-2.315 4.785M362.88 383.51c.46-2.77 2.813-4.88 5.647-4.88 3.164 0 5.73 2.628 5.73 5.87 0 1.588-.616 3.03-1.616 4.086"></path>
<path d="M374.02 383.2c5.21-3.73 9.673-10.856 9.72-19.274.035-6.474-2.566-13.06-5.6-15.627"></path>
<path stroke-linecap="round" d="M382.29 380.33c-2.043 3.032-4.517 6.403-9.74 9.237"></path>
<path d="M397.81 402.63c-1.448-3.41-4.328-4.985-9.02-5.485-4.66-.498-8.697.783-12.827 3.005-8.06 4.334-12.554 8.994-15.55 17.64-.76 2.196-1.392 5.507-1.304 9.022.14 5.604 1.562 11.73 3.09 14.69 1.335 2.585 4.82 13.995 23.947 21.87 11.16 4.594 28.3 5.653 40.118 6.12 16.256.64 31.255 1.243 39.962 11.973"></path>
<path stroke-linecap="round" d="M374.5 406.05c5.12-3.358 14.838-7.762 23.624-3.428 3.26 1.608 5.442 3.597 6.675 6.84 2.22 5.84-.263 12.275-2.788 14.95-1.322 1.398-4.2 4.072-7.775 4.12-5.908.077-7.313-4.058-7.464-4.977-.7-4.275 1.788-5.986 3.11-6.453 1.014-.357 4.312-.266 5.012 2.065.233.777.274 2.133-.347 3.144"></path>
<path d="M394.86 421.45c.466-1.71.227-3.507-1.322-5.21-1.555-1.71-5.675-3.343-9.174-1.398-1.17.65-2.64 1.507-3.965 3.265-.503.666-1.352 1.74-1.79 2.488-1.06 1.81-1.493 3.293-1.703 3.888-3.845 10.928 2.413 22.532 10.256 27.52 6.842 4.355 13.84 5.6 22.47 6.376 3.993.36 6.256.437 10.263.622 3.224.148 6.008.096 8.63.063 2.157-.026 4.205-.016 6.297-.063 3.416-.08 6.95-.16 11.274.155 4.55.33 7.973.447 11.817 1.09 2.512.417 5.456.82 8.543 1.514.926.208 1.864.378 2.81.663.633.19 1.26.385 1.88.574 5.572 1.7 10.985 3.77 15.258 6.52 1.32.852 2.84 1.672 3.877 2.71.796.795 1.472 1.256 2.123 1.897 2.99 2.94 6.048 6.126 6.763 10.438.132.796.132 1.63.132 2.507 0 2.798-2.277 6.607-8.42 7.852M466.62 488.16c-1.633 3.343.224 5.023 2.487 5.286 3.344.39 5.132-2.254 5.365-4.664.378-3.908-2.916-7.45-6.842-7.386-3.536.057-6.415 2.337-7.765 5.477-.49 1.14-.718 2.395-.788 3.697-.133 2.468.735 4.74 2.223 6.474 1.997 2.326 5.113 3.733 8.43 3.866 6.6.265 11.74-5.908 11.74-12.206 0-12.05-17.874-18.623-24.958-20.313-8.708-2.077-14.006-2.854-27.99-3.632-5.597-.31-9.696-.153-15.86-.792-5.515-.57-8.396-.84-14.072-2.162-7.083-1.65-13.685-4.587-19.592-9.952-4.55-4.13-7.153-7.074-9.26-12.75-1.817-4.897-2.652-14.596 1.95-21.77 4.07-6.34 9.72-9.633 16.173-10.565 5.83-.843 10.943 1.673 13.996 7.457 1.478 2.8 1.02 7.48-.148 9.64-1.01 1.866-3.896 4.618-7.47 4.666-5.91.077-7.314-4.058-7.465-4.977-.7-4.275 1.788-5.986 3.11-6.453 1.014-.357 4.31-.266 5.01 2.065.234.777.276 2.133-.346 3.144"></path>
<path stroke-linecap="round" d="M426.97 212.58l-.547-.81c-2.644-3.887-7.312-4.912-10.73-2.333-4.12 3.11-5.16 8.402-4.042 13.994.7 3.5 3.074 6.414 6.326 8.522"></path>
<path d="M573.04 224.37c-6.298 6.842-12.595 9.026-22.003 9.33-2.938.095-8.553-.933-11.818-3.258-2.1-1.494-4.433-4.05-2.955-8.48.987-2.963 5.746-11.274 5.98-17.028.355-8.79-3.026-13.606-8.313-15.472-9.773-3.45-20.267 6.21-26.59 8.32-3.304 1.1-4.99 1.23-8.007 1.242-3.018-.01-4.763-.14-8.068-1.243-6.322-2.107-16.815-11.768-26.59-8.318-5.286 1.866-8.668 6.682-8.312 15.472.233 5.753 4.992 14.064 5.98 17.027 1.477 4.432-.857 6.99-2.955 8.482-3.266 2.325-8.88 3.353-11.818 3.258-9.407-.303-15.705-2.488-22.003-9.33"></path>
<path stroke-linecap="round" d="M464.58 466.27c1.246.487.304-.295 8.194 3.204 7.577 3.358 12.954 6.3 17.663 13.735 1.478 2.33 1.866 5.675 1.866 7.618 0 1.253-.152 2.555-.46 3.842"></path>
<path d="M465.09 500.06c1.536.77 3.28 1.217 5.08 1.29 6.602.265 11.74-5.91 11.74-12.206 0-4.366-2.376-8.045-5.705-11"></path>
<path stroke-linecap="round" d="M466.52 488.15c-1.594 3.553.678 5.475 2.94 5.737 3.344.39 5.225-2.254 5.458-4.664.254-2.622-1.145-5.17-3.278-6.485"></path>
<path d="M609.53 216.87c5.018 0 9.394 5.585 9.394 11.317 0 6.605-3.513 10.648-6.087 13.705-2.072 2.46-4.315 4.663-6.982 7.348"></path>
<path stroke-linecap="round" d="M603.58 211.58c1.706.79 3.203 2.127 4.346 3.82 2.1 3.11 2.633 5.71 2.487 9.562-.25 6.6-4.997 11.17-9.246 13.96M593.71 211.58c.347.296.68.634 1 1.014 2.877 3.42 3.1 8.478 2.41 11.28-1.035 4.214-2.427 6.03-5.846 8.55M583.36 209.85c4.12 3.11 5.346 8.49 3.98 14.026-.976 3.957-3.464 6.328-6.565 8.217M598.16 296.28c.493 1.447 1.307 1.95 2.332 3.023 2.23 2.335 5.496 4.343 9.622 5.504 3.814 1.072 7.25.266 9.87-1.367M365.29 387.87c1.938-.035 3.87 1.272 5.133 3.468.25.436.64 1.383.628 2.41-.015 1.37-.614 2.83-1.592 3.453-2.245 1.43-6.232.815-6.065-3.15"></path>
<path d="M377.33 336.4c7.703 1.438 15.12 10.73 17.546 20.866.843 3.52 2.002 11.37.396 18.814-1.71 7.93-5.138 13.42-9.16 17.585-.952.987-2.058 1.928-3.322 2.854l-1.643 1.112M368.76 378.67c3.164 0 5.934 3.03 5.934 6.273 0 1.588-.615 3.027-1.614 4.085"></path>
<path d="M366.62 382.35c3.297 0 6.433 3.176 6.433 6.547 0 1.94-.905 3.668-2.315 4.785"></path>
<path stroke-linecap="round" d="M396.84 349.2c3.027 4.062 5.025 7.562 5.954 12.07M402.69 374.53c-.5 2.245-1.26 4.324-2.265 6.32-1.272 2.532-3.49 5.35-5.552 7.254"></path>
<path d="M397.32 325.52c2.918 2.282 4.678 4.64 5.5 7.47"></path>
<path stroke-linecap="round" d="M402.9 317.92c-.767 2.66-2.506 4.674-5.267 7.193M383.33 298.27l3.368-.887 1.995-1.507 1.285-1.818 1.107-2.836.443-2.305"></path>
<path d="M376.51 286.41c-1.063.266-2.41.66-3.823 1.333-1.894.902-3.903 2.306-5.507 4.576-1.855 2.63-2.938 6.285-3.608 9.484-.293 1.4-.643 5.832.253 10.41.66 3.38 2.057 6.527 3.602 8.806.554.817 1.056 1.522 1.62 2.087 2.02 2.02 3.888 3.265 6.997 2.643"></path>
<path stroke-linecap="round" d="M395.38 271.58c-.546 2.006-1.625 4.493-4.773 4.22"></path>
<path d="M383.87 285.2c-3.023-2.956-9.43-3.727-15.798.302-.818.52-1.638 1.183-2.448 1.86-.876.73-1.575 1.568-2.25 2.48-.734.994-1.637 2.68-2.182 3.802-.75 1.544-1.06 2.558-1.475 4.14-1.163 4.456-1.157 8.597-1.02 9.777.175 1.514.32 2.904.566 4.183.846 4.372 2.14 7.44 3.476 9.657 1.405 2.333 4.904 7.69 12.057 8.396 2.812.278 7.612-1.01 7.768-4.665"></path>
<path stroke-linecap="round" d="M568.38 220.42c.48-2.58 3.59-3.08 4.76-1.555 1.8 2.348.608 6.382-3.053 7.526-1.244.39-4.12.234-5.986-2.176-1.512-1.954-1.396-4.373-.832-6.297.366-1.244 1.364-2.33 2.698-3.343 4.25-3.233 11.118-2.488 13.372 2.954 2.91 7.02-3.42 12.284-9.252 16.25-7.34 4.99-15.705 5.898-22.003 5.83-14.306-.156-25.19-6.997-32.265-10.884-1.648-.906-3.346-.72-4.198.31-.963 1.165-.947 3.043.39 4.276"></path>
<path stroke-linecap="round" d="M571.26 218c1.517.07 1.922.662 2.387 1.268 1.8 2.348.485 6.382-3.176 7.526M598.34 307.33c-5.45 5.933-.437 16.116 3.637 18.418 1.41 1.097 2.013.515 3.14 1.175"></path>
<path d="M598.63 295.99c-1.788 1.244-2.418 2.64-2.487 5.07-.06 2.03.296 4.288 2.203 6.272 2.97 3.092 8.786 5.784 14.42 5.854 3.057.038 6.23-.6 9.422-2.735 3.413-2.282 5.21-5.364 5.986-8.395M595.58 398.6c0 .02-.01 2.39-.212 3.888-.592 4.363-1.286 6.874-3.266 10.807-1.93 3.836-3.473 5.85-6.53 8.863-3.086 3.04-5.224 4.435-9.097 6.376-3.77 1.89-6.147 2.49-10.263 3.42-4.112.93-6.518 1.132-10.73 1.322-3.86.175-6.052.01-9.908-.255-4.127-.284-6.417-.86-10.538-1.222-3.404-.3-5.326-.574-8.743-.565-3.513.01-5.525.03-8.983.644-3.224.57-5.052 1.025-8.086 2.255-4.197 1.7-8.94 4.664-9.95 5.986-1.012-1.322-5.755-4.286-9.953-5.986-3.033-1.23-4.86-1.685-8.085-2.255-3.458-.612-5.47-.635-8.983-.644-3.417-.01-5.34.267-8.743.565-4.122.362-6.41.938-10.538 1.223-3.857.268-6.048.43-9.91.256-4.212-.19-6.617-.394-10.73-1.322-4.114-.93-6.49-1.53-10.263-3.42-3.873-1.94-6.012-3.335-9.097-6.376-3.06-3.014-4.6-5.027-6.53-8.863-1.98-3.933-2.675-6.443-3.267-10.807-.203-1.5-.21-3.87-.21-3.888V239.58h192.55V398.6h.064z"></path>
</g>
<g fill="#C7B37F">
<path stroke="#C7B37F" stroke-width=".513" d="M387.41 421.32c0-2.158 1.75-3.907 3.907-3.907s3.906 1.75 3.906 3.907-1.75 3.906-3.906 3.906c-2.158 0-3.907-1.748-3.907-3.906zM363.42 393.71c0-1.933 1.235-3.5 2.76-3.5s2.76 1.567 2.76 3.5-1.235 3.5-2.76 3.5-2.76-1.567-2.76-3.5z"></path>
<path d="M377.05 324.36c0-1.587 1.193-2.874 2.665-2.874s2.665 1.287 2.665 2.874-1.193 2.874-2.665 2.874-2.665-1.287-2.665-2.874zM424.91 221.81c-.168-1.592.787-2.997 2.135-3.138 1.348-.14 2.576 1.035 2.744 2.627.168 1.59-.788 2.996-2.136 3.137s-2.576-1.035-2.744-2.627z"></path>
</g>
<g fill="none" stroke="#C7B37F" stroke-width=".987">
<path stroke-linecap="round" d="M373.92 340.54c-.573.25-.89.456-1.32.91-.413.434-.5.59-.817 1.298-.233.518-.295 1.118-.382 1.858M378.77 386.4c.543-.658.87-1.012 1.392-1.688.434-.562.692-.87 1.073-1.47.344-.538.498-.867.8-1.43.43-.794.642-1.257 1.05-2.06M381.11 401.53c-.926.425-1.473.612-2.372 1.088-.684.362-1.055.594-1.71 1.003-.774.485-1.207.768-1.944 1.308-.767.562-1.16.93-1.904 1.523M396.56 347.25c-.5-.515-.77-.817-1.282-1.32-.534-.528-.825-.84-1.4-1.323-.557-.47-.91-.683-1.492-1.12"></path>
<path d="M397.17 326.47c-.743.33-1.133.593-1.904.847-.886.292-1.485.443-2.34.482"></path>
<path stroke-linecap="round" d="M371 300.68c.255.907.31 1.448.653 2.324.43 1.102.79 1.682 1.446 2.667.682 1.028 1.108 1.595 1.99 2.458.772.757 1.263 1.14 2.168 1.733.86.565 1.418.76 2.325 1.245M378.04 301.95c.758.406 1.15.712 1.944 1.042.72.3 1.146.425 1.904.6 1.026.234 1.63.293 2.683.318 1.14.027 1.478 0 2.916-.233M398.69 240.15c-1.247-.728-2.01-1.046-3.196-1.866-1.207-.834-1.873-1.346-2.923-2.372-.756-.74-1.18-1.17-1.81-2.02-.563-.76-.78-1.258-1.276-2.062M401.2 224.72c.39 1.046.503 1.684 1.003 2.683.68 1.355 1.202 2.067 2.224 3.188 1.415 1.554 2.613 1.993 4.283 3.267M410.98 224.61c.388.94.506 1.518.995 2.41.432.79.73 1.208 1.298 1.905.726.89 1.197 1.352 2.1 2.06 1.05.824 1.792 1.068 2.938 1.75"></path>
</g>
<path fill="#703D29" stroke="#703D29" stroke-width=".277" d="M520.78 211.91c-.08-2.65-2.69-2.924-3.69-2.924-2.885 0-3.665 1.8-7.265 3.732-4.513 2.423-6.455 2.96-10.466 2.998-4.012-.036-6.006-.574-10.52-2.998-3.6-1.933-4.204-3.675-7.09-3.675-1.566 0-3.59 1.353-3.513 3.833 0 0-.03.803.093 1.346.047.205.296.14.374.32-.037-1.203.207-1.825.8-2.633.76-1.04 2.024-1.314 2.54-1.314 2.885 0 3.953 1.852 7.553 3.785 4.512 2.424 6.453 2.962 10.464 3 4.012-.037 6.008-.576 10.52-3 3.6-1.932 4.635-3.937 7.52-3.937 1 0 1.706.647 2.034 1.667.2.627.088 1.045.14 1.293.025.122.174.11.207.24.1-.467.333-.633.3-1.733z"></path>
<g fill="#703D29">
<path d="M413.12 434.42c.81-.872 1.423-.544 1.572-.945.11-.298-.13-.327-.46-.45-.44-.165-.905-.26-1.346-.425-.456-.17-.87-.405-1.327-.575-.19-.07-.626-.294-.75.04-.23.61 1.602.558.987 2.2-.104.28-.364.88-1.274 1.874l-4.14 4.506c-.094.105-.25.326-.343.29-.095-.034-.082-.31-.083-.45l.06-6.39c.005-1.213.107-2.11.304-2.636.275-.733 1.12-.12 1.298-.59.11-.298.025-.31-.478-.498-.252-.094-.734-.195-1.74-.57-.535-.2-1.044-.47-1.562-.665-.236-.088-.672-.41-.828.01-.046.123.12.305.16.34.58.416.728.69.74 1.472l.113 11.634c.01.84.1 1.073.258 1.132.175.065.292-.01.635-.4l8.205-8.906zM417.95 436.22c.533-1.69 1.532-.67 1.723-1.276.067-.213 0-.274-.48-.426-.914-.287-1.513-.398-2.09-.58-.56-.177-1.162-.444-1.787-.642-.144-.046-.527-.226-.623.077-.196.623 1.77.695 1.26 2.314l-2.692 8.54c-.532 1.69-1.54.865-1.736 1.488-.028.09-.035.224.11.27.415.13 1.126.276 1.814.493 1.25.395 1.82.652 2.412.84.368.115.535.09.597-.106.18-.57-1.872-.316-1.182-2.505l2.675-8.487zM423.73 437.93c.317-1.073.816-.926 1.412-.75 1.626.482 2.136 2.073 1.616 3.827-.312 1.055-.706 2.028-3.153 1.304-.482-.143-1.078-.318-.946-.766l1.07-3.614zm-4.434 7.696c-.667 2.254-1.797 1.277-1.966 1.85-.106.358.248.404.425.457.805.238 1.63.405 2.5.663.677.2 1.09.4 1.364.48.37.11.53.04.577-.12.19-.644-1.62-.382-1.054-2.296l.917-3.095c.186-.626.126-.78.98-.527.804.238 1.046.485 1.184 1.382l.515 3.227c.19 1.187.372 2.466 1.645 2.843.644.19 1.823.11 1.987-.443.042-.143-.022-.278-.168-.32-.16-.05-.354.01-.515-.037-.13-.038-.436-.13-.495-.458-.492-2.598-1.092-5.597-1.06-5.704.052-.18.567-.2 1.155-.475.595-.29 1.258-.814 1.597-1.96.244-.822.67-3.44-2.857-4.484-1.078-.32-2.194-.573-3.273-.894-1.014-.3-1.122-.41-1.862-.63-.193-.057-.38-.016-.434.164-.19.644 1.762.502 1.168 2.505l-2.332 7.87zM432.46 449.48c-.52 2.158-2.154.845-2.324 1.552-.096.4.187.448.48.52.653.155 1.21.213 2.303.476s1.614.465 2.268.62c.474.115.787.247.892-.187.122-.507-2.095-.483-1.56-2.715l1.97-8.2c.21-.87.395-.922 1.063-.76l1.388.332c1.897.378.89 2.267 1.544 2.423.424.103.414-.648.435-.874l.22-1.712c.027-.186.088-.44-.156-.498-1.52-.365-2.63-.555-5.014-1.128-2.385-.572-3.46-.907-4.98-1.27-.243-.06-.305.194-.364.37l-.836 2.333c-.09.23-.283.605.06.688.734.176.815-2.318 2.66-1.875l1.372.33c.67.16.81.29.602 1.16l-2.024 8.417zM452.3 444.42c.646-1 1.307-.782 1.385-1.204.058-.312-.184-.3-.53-.364-.462-.086-.938-.098-1.4-.184-.48-.09-.928-.248-1.406-.337-.2-.035-.668-.18-.732.17-.12.642 1.675.27 1.354 1.996-.054.294-.206.93-.93 2.067l-3.295 5.157c-.073.12-.188.364-.286.346-.1-.02-.133-.29-.16-.43l-1.05-6.304c-.206-1.195-.26-2.098-.16-2.647.145-.77 1.084-.312 1.176-.808.058-.312-.028-.31-.557-.406-.265-.048-.758-.063-1.814-.26-.56-.104-1.108-.28-1.653-.382-.248-.046-.732-.288-.814.152-.024.13.17.278.216.306.643.31.837.554.984 1.32l2.133 11.44c.154.825.285 1.04.45 1.07.182.033.285-.062.555-.505l6.532-10.19zM453.23 454.93c.01.456-.033.6.362.78.92.4 1.69.982 2.702 1.15 2.17.364 3.967-1.02 4.37-3.43.392-2.337-.57-3.31-2.197-4.472-2.037-1.457-2.908-1.85-2.7-3.082.205-1.232 1.067-1.808 2.16-1.624 2.85.477 2.524 3.94 2.905 4.004.364.062.45-.15.485-.562l.23-2.496c.038-.43.134-.696-.114-.738-.216-.036-.68.19-.895.153-.496-.083-1.072-.917-2.43-1.145-1.938-.324-3.52 1-3.876 3.116-.323 1.932.534 2.812 1.84 3.75 2.45 1.753 3.452 2.167 3.19 3.73-.246 1.473-1.388 2.19-2.68 1.974-1.838-.308-2.585-2.154-2.82-4.01-.024-.25-.03-.42-.295-.465-.415-.07-.338.492-.332.758l.095 2.61zM477.95 447.96c.538-1.062 1.217-.915 1.25-1.343.025-.316-.213-.28-.564-.307-.47-.037-.943 0-1.412-.036-.485-.038-.948-.15-1.434-.188-.2-.017-.683-.11-.71.243-.05.65 1.693.096 1.556 1.844-.023.298-.107.946-.708 2.152l-2.738 5.474c-.06.127-.148.382-.25.374-.1-.01-.162-.275-.202-.41l-1.705-6.16c-.33-1.167-.478-2.058-.434-2.616.06-.78 1.043-.423 1.082-.926.024-.315-.06-.304-.596-.346-.268-.02-.76.016-1.83-.07-.57-.044-1.133-.163-1.686-.206-.25-.02-.758-.21-.793.236-.012.13.198.26.247.282.672.24.89.463 1.117 1.21l3.317 11.153c.24.807.393 1.005.56 1.02.185.013.277-.092.5-.56l5.433-10.82zM480.6 457c-.016 1.902-1.625 1.553-1.632 2.3-.002.316.334.227.52.228.452 0 .906-.066 1.443-.062.59.01 1.16.085 1.982.092.218 0 .638.024.64-.236.007-.877-2.152.372-2.12-3.21l.054-6.343c0-.17.036-.3.138-.3.084.002.184.097.3.247l7.992 9.77c.116.15.2.264.434.266.202 0 .203-.147.207-.558l.09-10.466c.017-1.96 1.44-1.5 1.446-2.06 0-.056.002-.242-.316-.245-.15 0-.74.067-1.798.06-1.16-.012-1.646-.09-1.914-.092-.22 0-.27.185-.27.314-.006.616 2.045.298 2.03 1.996l-.055 6.213c-.004.466-.038.69-.14.688-.1 0-.3-.227-.516-.49l-6.68-8.286c-.298-.356-.096-.485-.633-.49-.89-.01-1.326.063-1.763.06-.32 0-.62-.08-.94-.084-.2 0-.286.147-.287.315-.01.895 1.883-.302 1.852 3.28L480.6 457zM496.86 448.6c.016-1.772 1.27-1.09 1.274-1.724.002-.224-.082-.262-.586-.267-.957-.01-1.562.06-2.166.055-.588 0-1.242-.086-1.897-.09-.15-.002-.57-.062-.573.256-.005.653 1.804.147 1.788 1.846l.017 8.955c-.017 1.773-1.22 1.277-1.227 1.93 0 .094.032.226.183.227.437.01 1.16-.064 1.882-.058 1.31.01 1.93.09 2.55.096.388 0 .54-.07.54-.275.006-.596-1.882.246-1.86-2.05l.075-8.9zM503.9 457.27c.02 2.22-1.887 1.342-1.88 2.07.005.41.29.39.59.386.673-.01 1.227-.085 2.352-.095 1.125-.01 1.68.06 2.352.055.486 0 .823.05.82-.4-.006-.52-2.15.038-2.17-2.256l-.074-8.435c-.007-.896.16-.99.848-.996l1.428-.012c1.93-.09 1.41 1.984 2.083 1.98.436 0 .244-.73.21-.954l-.2-1.715c-.02-.19-.022-.45-.273-.447-1.562.015-2.686.1-5.138.12-2.452.02-3.578-.044-5.14-.03-.252 0-.25.264-.265.45l-.247 2.465c-.03.243-.13.654.224.65.756-.01.23-2.445 2.128-2.462l1.41-.014c.69-.01.857.086.865.98l.075 8.658zM513.68 453.74c-.3.023-.534.06-.55-.125-.02-.26.065-.474.13-.703l1.03-3.394c.068-.21.134-.235.167-.237.084-.01.034 0 .146.14l1.638 3.258c.103.217.22.413.24.674.013.186-.222.186-.523.21l-2.277.178zm2.875.784c.436-.034.533.146 1.2 1.553.224.487.367.813.4 1.223.088 1.134-1.116 1.023-1.074 1.562.022.26.236.206.537.183.486-.038 1.1-.16 1.836-.22 1.105-.087 1.562-.048 2.166-.096.45-.036.604-.012.58-.327-.05-.614-.896.183-1.536-1.096l-5.415-11.028c-.263-.542-.3-.576-.45-.564-.217.018-.273.377-.367.685l-3.65 11.61c-.337 1.074-1.2 1.03-1.165 1.458.02.242.283.184.518.165.485-.038.966-.15 1.468-.19.535-.042 1.044-.01 1.58-.05.35-.027.88.063.85-.328-.04-.502-1.824-.062-1.93-1.4-.035-.447.147-1.117.235-1.498.288-1.258.634-1.36.918-1.383l3.297-.26zM529.53 446.79c-.17-1.276-.104-1.304 1.91-1.568 3.213-.424 2.2 1.912 2.982 1.81.382-.05.22-.65.17-.89l-.307-1.822c-.022-.166-.163-.336-.38-.308-1.465.193-2.604.42-3.786.574-2.548.335-3.756.42-4.44.51-.232.03-.346.195-.324.362.098.74 1.9-.1 2.12 1.564l1.14 8.657c.297 2.256-1.1 1.424-.987 2.274.015.11.125.19.342.162.915-.12 1.604-.287 2.12-.354.733-.098 1.36-.104 1.992-.188.416-.055.775-.026.727-.396-.064-.5-1.885.21-2.155-1.843l-.36-2.737c-.142-1.073-.237-1.286.528-1.388l1.232-.162c1.73-.228 1.523 1.795 2.056 1.725.4-.053.213-.705.165-.943l-.55-3.277c-.083-.497-.26-.437-.377-.42-.334.043-.16 1.75-1.59 1.94l-1.05.138c-.716.095-.733-.034-.838-.83l-.34-2.59zM535.67 451.03c.69 3.724 3.378 5.787 6.697 5.172 5.267-.976 5.44-5.657 4.965-8.225-.72-3.89-3.62-5.8-6.833-5.167-3.94.768-5.574 4.203-4.83 8.22zm1.837-1.422c-.493-2.66-.137-5.346 2.644-5.917 2.124-.43 4.532 1.324 5.284 5.378.564 3.046.096 5.675-2.734 6.257-2.946.603-4.696-3.04-5.193-5.717zM550.53 443.11c-.262-1.09.245-1.21.85-1.355 1.648-.396 2.885.728 3.31 2.505.26 1.07.404 2.11-2.077 2.706-.49.117-1.095.262-1.203-.19l-.88-3.666zm.01 8.882c.548 2.285-.918 2.004-.78 2.585.088.362.418.226.598.183.816-.195 1.615-.465 2.497-.676.686-.165 1.144-.198 1.422-.265.375-.09.48-.23.44-.395-.156-.653-1.595.48-2.06-1.463l-.755-3.14c-.152-.634-.28-.737.585-.945.816-.195 1.15-.103 1.717.605l2.06 2.537c.76.93 1.556 1.947 2.845 1.638.652-.157 1.635-.814 1.5-1.377-.035-.145-.16-.23-.307-.194-.163.04-.3.188-.464.227-.13.03-.44.105-.658-.15-1.725-2.003-3.744-4.3-3.77-4.41-.044-.18.39-.457.764-.988.37-.55.682-1.334.402-2.495-.2-.834-1.14-3.313-4.717-2.455-1.093.263-2.186.602-3.28.864-1.027.246-1.176.204-1.927.385-.196.047-.338.177-.294.358.155.653 1.774-.445 2.262 1.587l1.917 7.982zM564.01 448.98c.557 2.15-1.505 1.757-1.323 2.462.103.397.375.308.668.232.65-.17 1.168-.38 2.257-.66 1.09-.283 1.645-.35 2.295-.518.47-.122.81-.15.698-.585-.13-.505-2.076.557-2.65-1.665l-2.112-8.164c-.224-.866-.085-1 .582-1.17l1.382-.358c1.85-.556 1.85 1.584 2.5 1.415.422-.11.06-.768-.028-.976l-.61-1.614c-.06-.177-.127-.43-.37-.366-1.513.39-2.583.745-4.957 1.358-2.373.614-3.48.823-4.993 1.215-.243.062-.18.315-.148.5l.357 2.452c.027.243.032.666.373.577.73-.188-.368-2.43 1.47-2.904l1.365-.354c.666-.172.853-.123 1.076.743l2.166 8.383zM572.6 437.52c-.474-1.707.92-1.396.75-2.008-.06-.216-.15-.23-.636-.096-.923.256-1.485.49-2.067.65-.566.157-1.218.26-1.85.436-.145.04-.564.1-.48.404.176.63 1.864-.38 2.318 1.255l2.394 8.63c.473 1.71-.822 1.564-.647 2.194.024.09.092.207.237.166.42-.116 1.097-.38 1.793-.574 1.262-.35 1.88-.444 2.48-.61.372-.104.497-.216.442-.413-.16-.575-1.742.754-2.355-1.457l-2.38-8.576zM576.18 441.69c1.202 3.592 4.15 5.26 7.352 4.19 5.08-1.7 4.6-6.36 3.77-8.837-1.254-3.75-4.39-5.24-7.483-4.165-3.796 1.31-4.936 4.937-3.64 8.812zm1.622-1.664c-.86-2.565-.88-5.273 1.794-6.228 2.042-.723 4.672.68 5.98 4.59.982 2.938.884 5.606-1.838 6.576-2.832 1.008-5.073-2.355-5.936-4.938zM589.72 431.56c-.41-1.04.074-1.23.652-1.46 1.578-.62 2.96.318 3.63 2.02.402 1.024.69 2.033-1.683 2.97-.47.184-1.048.41-1.22-.023l-1.38-3.507zm1.245 8.794c.86 2.187-.63 2.112-.41 2.668.136.348.443.166.615.1.78-.31 1.535-.687 2.38-1.02.655-.258 1.104-.354 1.37-.46.36-.14.443-.294.38-.45-.245-.625-1.51.696-2.243-1.16l-1.183-3.004c-.24-.608-.38-.692.447-1.02.782-.307 1.125-.262 1.785.36l2.393 2.227c.88.815 1.812 1.713 3.046 1.227.625-.246 1.506-1.034 1.294-1.573-.055-.14-.19-.207-.33-.15-.156.06-.27.227-.428.288-.125.05-.422.166-.672-.056-1.986-1.744-4.306-3.738-4.347-3.843-.068-.175.324-.51.62-1.087.288-.595.488-1.416.05-2.527-.313-.798-1.59-3.122-5.012-1.774-1.047.412-2.082.9-3.13 1.312-.982.388-1.135.367-1.854.65-.188.074-.31.222-.24.396.246.625 1.696-.688 2.462 1.256l3.01 7.638z"></path>
</g>
<path fill="#D52B1E" d="M412.66 249.25h82.18v82.023h-82.18V249.25z"></path>
<path fill="#FFF" d="M451.2 313.83s-.048 2.93-.855 5.287c-.933 2.72-.94 2.72-1.796 4.043-1.153 1.78-2.558 3.083-3.81 3.887-1.96 1.26-3.95 1.888-5.95 1.71-5.49-.486-8.037-6.44-9.282-11.273-1.32-5.13-5.073-7.923-7.463-6.064-1.4 1.088-1.48 2.914-.312 4.665 1.244 1.866 4.1 2.8 4.1 2.8l-2.934 3.73s-6.303-.82-7.535-7.393c-.466-2.488.742-7.133 4.89-8.522 5.298-1.773 8.688 2.004 10.32 5.19 2.245 4.385 3.21 12.435 9.43 11.19 3.383-.676 4.975-5.597 4.975-7.852l2.468-2.643 3.653 1.167.1.078z"></path>
<path fill="#FFF" d="M451.2 313.83s-.047 2.93-.854 5.287c-.934 2.72-.94 2.72-1.796 4.043-1.152 1.78-2.557 3.083-3.81 3.887-1.958 1.26-3.948 1.888-5.948 1.71-5.49-.486-8.038-6.44-9.283-11.273-1.322-5.13-5.074-7.923-7.465-6.064-1.4 1.088-1.478 2.914-.31 4.665 1.243 1.866 4.1 2.8 4.1 2.8l-2.935 3.73s-6.302-.82-7.534-7.393c-.466-2.488.742-7.133 4.89-8.522 5.298-1.773 8.688 2.004 10.32 5.19 2.244 4.385 3.21 12.435 9.43 11.19 3.383-.676 4.975-5.597 4.975-7.852l2.468-2.643 3.654 1.167.1.078z"></path>
<path fill="#FEDF00" d="M461.12 278.95l10.76-11.643s1.624-1.31 1.61-3.402l-2.22.346-.496-1.14-.11-1.148 2.98-.63c.048-.483.008-.85.093-1.384.08-.494.19-.76.312-1.244l-3.267.22c.166-.573.128-.876.31-1.408.155-.447.198-.618.504-1.103.606-.09 1.158-.228 1.907-.304.728-.074 1.144-.04 1.873-.086 1.78-3.32 9.19-6.373 14.454-.904 3.81 3.958 2.988 11.22-1.95 13.14-2.798 1.087-5.053.444-6.86-1.11l1.97-3.866c2.722 1.625 4.976-.396 4.82-2.496-.196-2.653-1.918-4.296-4.354-4.51-2.254-.196-3.872 1.094-4.898 3.11-.626 1.23-.336 2.134-.544 3.5-.226 1.483-.1 2.31-.537 3.81-.318 1.088-1.154 2.434-2.37 3.592l-11.03 11.935-42.94 46.445-3.227-2.983 43.21-46.737z"></path>
<path fill="#FFF" d="M429.51 283.04s2.7 13.372 11.874 33.43c4.665-1.71 7.42-2.798 12.362-2.798s7.697.933 12.362 2.8c9.174-20.06 11.874-33.432 11.874-33.432l-24.236-31.177-24.236 31.177z"></path>
<path fill="#FEDF00" d="M456.12 262.41l16.82 21.637s-2.244 10.52-9.08 26.354c-2.645-.602-4.914-1.126-7.73-1.318l-.01-46.672zM451.38 262.41l-16.82 21.637s2.244 10.52 9.08 26.354c2.645-.602 4.914-1.126 7.73-1.318l.01-46.672z"></path>
<g>
<path fill="#FEDF00" d="M503.6 249.25h82.18v82.023H503.6V249.25z"></path>
<path fill="#D52B1E" d="M515.11 249.25h12.253v82.023H515.11V249.25zM538.59 249.25h12.253v82.023H538.59V249.25zM562.07 249.25h12.253v82.023H562.07V249.25z"></path>
</g>
<g>
<path fill="#FEDF00" d="M412.97 402.41c.233 1.478.76 4.012 2.163 6.608 1.477 2.332.933 2.27 4.276 6 1.645 1.838 4.212 3.412 6.226 4.496 2.02 1.088 3.517 1.622 6.842 2.495 6.518 1.71 11.09 1.815 16.574 1.597 4.278-.17 7.544-.697 10.25-1.06 3.856-.52 6.73-.83 11.117-1.012 2.132-.09 4.147-.11 6.14 0 2.407.133 4.783.505 7.31 1.01 5.442 1.09 10.962 3.19 10.962 3.19l.014-85.656-82.193-.024V398.6c-.002 0 .167 2.86.317 3.81z"></path>
<path fill="#D52B1E" stroke="#D52B1E" stroke-width=".513" d="M422.51 417.43l3.852 2.24 5.278 1.9-.005-81.527h-9.126v77.387zM468.17 421.14l.012-81.1h-9.144v82.397s6.257-.803 9.13-.99l.002-.307zM486.41 340.05h-9.113v81.38c2.97.322 6.023.854 9.13 1.684l-.017-83.064zM449.92 340.05v83.33c-.09.01-6.1.316-9.173-.002l.002-83.314 9.17-.014z"></path>
</g>
<g>
<path fill="#FEDF00" d="M585.48 402.39c-.233 1.478-.76 4.012-2.163 6.608-1.478 2.333-.933 2.27-4.276 6-1.645 1.838-4.213 3.412-6.226 4.496-2.02 1.09-3.517 1.623-6.842 2.495-6.518 1.71-11.09 1.816-16.574 1.598-4.277-.17-7.544-.697-10.25-1.062-3.856-.52-6.73-.828-11.117-1.01-2.132-.09-4.147-.11-6.14 0-2.406.132-4.782.505-7.31 1.01-5.442 1.09-11.032 3.188-11.032 3.188l.056-85.655 82.193-.024v58.543s-.167 2.858-.317 3.81z"></path>
<path fill="#D52B1E" d="M524.62 346.91s-.366.175-.594.28c-.3.328-.447.52-.78.813-.444.39-.77.503-1.25.844-.23.163-.42.215-.595.438-.25.32-.078.63-.25 1-.186.404-.368.596-.655.938-.366.435-.65.61-1.062 1-.418.395-.588.727-1.094 1-.135.072-.2.143-.345.188-.216.067-.35-.01-.562.063-.39.134-.51.562-.78.72.11.216.105.37.218.593.158.322.706 1.215.813 1.438.21.305.27.7.53.78.538.17.86.153 1.313.126.792.182 1.28.157 2.03.47.613.253.863.573 1.47.843.474.21.77.34 1.28.438.388.074.608.132 1 .095.25-.024.378-.12.626-.156.05-.01.08 0 .125 0l-.03.374c-.006 0 .004.027 0 .03v.063h.06l2.063.906c-.074.118-.15.257-.188.375-.1.32-.114.688-.062.844.63 1.888 1.16 3.068 1.47 3.188.614.236.805.864 1.155 1.5-.124.132-.228.2-.344.312-.614.59-1.15 1.01-1.655 1.812-.745 1.188-1.25 1.204-.312 2.78.55.926.814 1.1 1.53 2.407.362.66.563 1.174.782 1.97.207.752.277 1.19.312 1.97l.97.374.655-.656.625-1.188.03-.906c-.238-.202-.307-.474-.25-.78.07-.37.515-.292.72-.626.283-.462-.332-.734-.656-1.094-.604-.67-1.43-.833-1.624-1.844-.053-.272.077-.427.375-.72.855-.84 1.13-.973 1.97-1.81.242.14.61.192.97.124.278-.054.528.125 1.405.375.61.173.873.085 1.22.03l.374-.095c.05.212.11.416.124.688.053 1.06-.155 2.995.156 3.5.13.213.186.332.28.562.1.24.215.396.22.656.01.697.047 1.142 0 1.876-.044.69-.104 1.043-.22 1.75-.073.45-.165.714-.437 1.062-.283.364-.595.418-.97.688l-.093 1 1.125.47 1.28.31.69-.28c0-.254.04-.398.155-.625.127-.245.23-.437.47-.53.36-.142.758.13.905-.094.16-.242.06-.338.03-.75-.045-.662-.183-.988-.28-1.656-.164-1.11-.21-1.687-.156-2.75.03-.616.037-.956.155-1.562.172-.883.485-1.31.688-2.188.226-.978.265-1.605.375-2.47 3.17.454 5.808.398 9.344-.374.17-.037.75-.25.75-.25.8.69 1.706 1.265 2.72 1.625-.007.103-.017.847 0 .97.035.287-.043.48.124.72.105.15.196.24.375.28.264.06.456.023.657-.156.227-.2.185-.454.25-.75.032-.14.007-.564 0-.688.366.055.49.062.875.062.357 0 .53.014.875-.03.005.08.02.368.03.468.027.244-.075.435.032.656.11.23.248.36.5.406.205.04.353.018.53-.094.295-.186.263-.498.312-.844.015-.11.01-.69 0-.78.21-.068.827-.293 1.03-.376-.004.242-.038.517-.093.812-.07.376-.12.578-.25.938-.207.567-.442.855-.75 1.375-.378.633-.574.984-1.032 1.56-.21.267-.357.386-.562.657-.256.338-.343.566-.594.906-.324.438-.51.724-.938 1.062-.694.55-1.15.11-2.094.844l-.22 1.03 1.44.53 1.28.25.438-.25c-.012-.3.03-.513.22-.75.212-.27.44-.35.78-.405.36-.06.746.033 1.03-.22.35-.31.35-.913.626-1.468.858-1.724 1.62-2.562 3-3.906.612-.596 1.137-.757 1.656-1.437.246-.322.52-.47.53-.875.01-.283-.144-.415-.218-.688-.104-.377-.188-1-.188-1 1.52.744.97.646 1.25 1.406.226.615-.033 1.04.062 1.688.11.756.466 1.113.53 1.875.078.903-.143 1.42-.31 2.31-.15.785-.13 1.277-.47 2-.323.69-.57 1.077-1.156 1.563-.212.175-.37.25-.594.406l-.125 1.03 1.126.375 1.625.438.376-.344c.163-.655-.055-1.618.406-1.69.405-.06.692 0 .78-.31.037-.132.06-.327.095-.626.22-1.887.42-3.646.625-4.5.23-.968.214-1.178.406-1.906.175-.664-.086-.283.406-1.688.733-2.098-.21-2.375-1.062-3.656-.463-.693-.622-.944-.688-1.5-.098-.816.164-1.494.125-2.75-.042-1.32-.023-2.16 0-2.875.114-.054.22-.122.343-.19 1.17-.642 1.636-.835 2.375-2.468.224-.496.32-.994.312-1.47-.006-.33-.065-.65-.094-1.03-.03-.4-.19-.638-.312-.938-.13-.318-.325-.56-.562-.844-.772-.925-1.78-1.132-2.72-1.47-1.483-.53-2.505-.434-4.124-.56-1.673-.133-2.606-.16-4.28-.063-2.008.114-3.13.52-5.126.75-1.916.223-2.98.37-4.906.406-2.26.043-4.42-.46-5.78-.344-2.452.21-2.494.76-6.19 1.06-1.926.16-3.843.19-3.843.19l-2.156-.69c.856-.305 1.065-.487 1.47-1.03.27-.366.232-.678.56-1.062.268-.312.443-.623.782-.97-.312-.25-.645-.375-.94-.437-.363-.075-.572-.04-.937 0-.494.057-.772.125-1.22.345-.358.177-.623.357-.843.594 0 0-1.286-.83-2.188-1.22-1.12-.484-1.6-.712-3-.906v.006zm1.97 11.906h.06c-.012.01-.018.02-.03.03l-.03-.03z"></path>
<g stroke="#FEDF00">
<path fill="none" stroke-width=".987" stroke-linecap="round" d="M568.77 359.52l-.763.244c-.867.402-1.578.418-2.6.496-2.645.202-4.27-1.057-6.998-.848-1.405.108-2.026 1.19-3.46 1.55-.653.16-1.032.224-1.702.28l.513-1.033s-1.283.26-2.114.263c-.597 0-.937-.027-1.523-.13l1.018-.95s-.812-.133-1.292-.336c-.443-.187-.684-.33-1.06-.63.662-.112 1.035-.19 1.688-.353 1.556-.385 2.04-1.146 3.89-1.325 1.15-.112 3.033-.047 7.645.716 3.036.502 4.383.267 5.536-.257.76-.347 1.01-1.013 1.103-1.79.092-.776-.404-1.404-.874-1.81-.123-.106-.444-.335-1.113-.363"></path>
<path fill="#FCD900" stroke-width=".513" d="M524.8 350.61c-.53-.066-.884.01-1.34.29-.48.297-.54.697-.888 1.143.445.1.698.36 1.142.254.347-.084.527-.238.762-.508.315-.362.43-.676.427-1.156l-.103-.025z"></path>
<path fill="none" stroke-width=".987" stroke-linecap="round" d="M536.04 363.79s.264.48.406.8c.248.555.377.878.524 1.467.2.8.114 1.284.24 2.098.023.144.05.264.077.377l-.05 1.13M544.04 362.71s-.22.812-.354 1.333c-.352 1.354-.676 2.086-.943 3.46-.045.23-.078.442-.104.644M531.78 364.17c.79.176.544 3.36 1.788 4.09"></path>
<path fill="none" stroke-width=".987" d="M560.12 369.78l.384-.25c1.015-.414 1.926-1.026 2.687-1.79"></path>
<path fill="none" stroke-width=".987" stroke-linecap="round" d="M552.38 368.02h.007c3.533-.883 5.885-2.646 7.58-2.868"></path>
<path fill="none" stroke-width=".987" stroke-linecap="round" d="M555.97 363.61c.3-.01.585-.033.83-.068 1.468-.21 1.704.687 2.726 1.26 1.856 1.036 2.098 2.306 4.3 3.354.115.055.223.106.32.154l.848.43"></path>
<path fill="#FCD900" stroke-width=".513" d="M517.7 354.53c.268.067.432.08.707.054.332-.03.484-.238.816-.25.27-.01.463-.03.685.125.14.1.2.188.28.342.087.167.162.282.124.466-.06.285-.324.418-.614.42-.237 0-.435-.062-.544-.27-.07-.136-.082-.243-.04-.39-.283.106-.49.11-.776.016-.304-.1-.476-.24-.638-.515z"></path>
</g>
<g fill="#0065BD">
<path d="M525.13 364.17c-.797-.237-1.966-.826-1.966-.826.323-.25.587-.265.863-.555.39-.41.372-.79.592-1.32.215-.52.184-.954.67-1.343.29-.23.764-.27 1.118-.164.354.11.76.4.85.766.137.56-.16.884-.247 1.453-.084.567-.292.894-.193 1.46.065.374.227.52.354.906 0 0-1.265-.15-2.04-.38zM524.14 365.12c-.007-.348.27-.634.618-.64.348-.01.634.27.64.617.008.348-.27.635-.617.64-.347.01-.634-.27-.64-.617zM522.38 348.61s-.09-.06-.144-.104c-.383-.31-.42-.653-.602-1.11-.172-.435-.257-.692-.314-1.154-.05-.406 0-.64 0-1.05 0-.367.04-.577 0-.942-.04-.375-.03-.612-.21-.944-.097-.18-.395-.337-.314-.42.095-.096.257-.02.42 0 .4.05.63.167.943.42.376.306.525.57.67 1.048.167.548.25.898.408 1.468.083.295.13.47.283.734.162.276.32.384.525.63l-.01.022c-.3.327-.445.54-.778.833-.305.27-.56.404-.847.574l-.032-.01.002.006zM525.98 359.25l2.23 1.03c1.148-.634 2.473-1.923 3.496-3.92.88-1.716 1.02-2.65 1.364-4.31l-1.79-.582-.356.073c-.552 1.724-.692 2.704-1.618 4.193-.802 1.29-1.718 2.305-2.648 3.034l-.678.483zM530.92 377.37c.36-.493.514-.812.922-1.264.456-.505.8-.702 1.312-1.15.156.016.336-.012.48.07-.027.546-.056.95-.18 1.542-.1.48-.186.746-.347 1.21-.135.388-.158.64-.39.978-.154.227-.29.315-.476.52-.51-.743-1.328-1.297-1.32-1.906zM563.93 379.22c.573.21.92.27 1.47.538.61.3.895.576 1.467.944.027.153.104.32.063.482-.532.123-.928.208-1.53.25-.49.038-.77.028-1.26 0-.41-.02-.657.025-1.048-.103-.26-.086-.384-.192-.63-.314.573-.695.88-1.635 1.468-1.795zM554.17 377.18c.572.21.92.27 1.47.538.61.3.895.576 1.467.944.026.154.104.318.062.482-.532.123-.928.207-1.53.25-.49.037-.77.028-1.26 0-.41-.02-.658.025-1.048-.103-.26-.085-.385-.19-.63-.313.573-.696.88-1.637 1.468-1.797zM536.83 379.31c.573.21.92.27 1.47.538.61.3.895.576 1.467.944.026.154.104.32.063.482-.532.122-.928.208-1.53.25-.49.038-.77.028-1.26 0-.41-.02-.658.025-1.048-.103-.26-.085-.384-.19-.63-.312.574-.696.88-1.637 1.468-1.797zM527.85 349.51c-.612-.278-1.05-1.044-.66-1.594.155-.22.413-.173.566-.395.188-.27.142-.507.136-.838-.007-.377-.144-.573-.21-.944-.072-.406-.14-.636-.136-1.048.005-.628-.038-1.076.346-1.573.244-.317.66-.592.824-.612.147.136-.057.502-.032.822.035.462.13.717.287 1.153.204.562.48.81.704 1.363.208.516.4.808.42 1.363.016.457-.024.735-.21 1.153-.165.37-.3.578-.61.838-.27.225-.458.325-.796.42-.248.02-.402-.01-.628-.108z"></path>
</g>
<g>
<path fill="#D52B1E" d="M524.62 383.5s-.366.176-.594.282c-.3.327-.447.52-.78.812-.444.39-.77.503-1.25.844-.23.163-.42.216-.595.438-.25.32-.078.63-.25 1-.186.405-.368.597-.655.938-.366.435-.65.61-1.062 1-.418.396-.588.726-1.094 1-.135.07-.2.142-.345.188-.216.067-.35-.01-.562.062-.39.135-.51.562-.78.72.11.218.105.372.218.593.158.324.706 1.216.813 1.438.21.305.27.7.53.78.538.17.86.154 1.313.126.792.183 1.28.16 2.03.47.613.254.863.575 1.47.844.474.21.77.34 1.28.438.388.074.608.133 1 .094.25-.023.378-.12.626-.156.05-.01.08 0 .125 0l-.03.375c-.006 0 .004.03 0 .03v.063h.06l2.063.906c-.074.117-.15.257-.188.375-.1.32-.114.687-.062.843.63 1.888 1.16 3.068 1.47 3.188.614.237.805.866 1.155 1.5-.124.133-.228.202-.344.313-.614.59-1.15 1.01-1.655 1.812-.745 1.188-1.25 1.204-.312 2.78.55.926.814 1.1 1.53 2.407.362.66.563 1.173.782 1.97.207.75.277 1.188.312 1.968l.97.375.655-.656.625-1.19.03-.905c-.238-.203-.307-.474-.25-.78.07-.37.515-.292.72-.626.283-.463-.332-.735-.656-1.095-.604-.67-1.43-.833-1.624-1.844-.053-.272.077-.426.375-.718.855-.84 1.13-.974 1.97-1.812.242.142.61.193.97.125.278-.053.528.125 1.405.375.61.174.873.086 1.22.03l.374-.094c.05.212.11.416.124.688.053 1.06-.155 2.995.156 3.5.13.214.186.332.28.562.1.24.215.396.22.656.01.696.047 1.14 0 1.875-.044.69-.104 1.042-.22 1.75-.073.45-.165.714-.437 1.062-.283.363-.595.417-.97.687l-.093 1 1.125.47 1.28.31.69-.28c0-.254.04-.398.155-.625.127-.246.23-.438.47-.53.36-.143.758.13.905-.095.16-.242.06-.337.03-.75-.045-.662-.183-.988-.28-1.656-.164-1.11-.21-1.686-.156-2.75.03-.615.037-.955.155-1.56.172-.883.485-1.313.688-2.19.226-.977.265-1.605.375-2.468 3.17.453 5.808.397 9.344-.375.17-.037.75-.25.75-.25.8.69 1.706 1.265 2.72 1.625-.007.102-.017.846 0 .97.035.287-.043.48.124.718.105.15.196.24.375.28.264.063.456.024.657-.155.227-.2.185-.454.25-.75.032-.14.007-.564 0-.688.366.055.49.062.875.062.357 0 .53.013.875-.032.005.08.02.37.03.47.027.243-.075.434.032.655.11.23.248.36.5.406.205.038.353.017.53-.095.295-.186.263-.5.312-.844.015-.11.01-.69 0-.78.21-.067.827-.292 1.03-.375-.004.242-.038.517-.093.812-.07.376-.12.578-.25.938-.207.567-.442.855-.75 1.375-.378.634-.574.985-1.032 1.562-.21.266-.357.386-.562.656-.256.337-.343.566-.594.906-.324.438-.51.724-.938 1.062-.694.55-1.15.11-2.094.844l-.22 1.03 1.44.532 1.28.25.438-.25c-.012-.302.03-.514.22-.75.212-.27.44-.352.78-.406.36-.06.746.034 1.03-.22.35-.31.35-.913.626-1.468.858-1.724 1.62-2.563 3-3.906.612-.597 1.137-.758 1.656-1.438.246-.322.52-.47.53-.875.01-.284-.144-.416-.218-.69-.104-.376-.188-1-.188-1 1.52.745.97.647 1.25 1.407.226.614-.033 1.04.062 1.688.11.756.466 1.113.53 1.875.078.904-.143 1.42-.31 2.312-.15.784-.13 1.276-.47 2-.323.688-.57 1.076-1.156 1.562-.212.175-.37.25-.594.406l-.125 1.03 1.126.376 1.625.438.376-.344c.163-.654-.055-1.616.406-1.688.405-.062.692 0 .78-.312.037-.132.06-.326.095-.625.22-1.886.42-3.646.625-4.5.23-.968.214-1.18.406-1.906.175-.665-.086-.283.406-1.69.733-2.097-.21-2.374-1.062-3.655-.463-.693-.622-.944-.688-1.5-.098-.817.164-1.495.125-2.75-.042-1.32-.023-2.16 0-2.875.114-.054.22-.12.343-.188 1.17-.644 1.636-.837 2.375-2.47.224-.494.32-.993.312-1.468-.006-.333-.065-.652-.094-1.032-.03-.398-.19-.637-.312-.938-.13-.317-.325-.56-.562-.843-.772-.924-1.78-1.13-2.72-1.47-1.483-.53-2.505-.433-4.124-.56-1.673-.132-2.606-.158-4.28-.063-2.008.114-3.13.52-5.126.75-1.916.222-2.98.37-4.906.407-2.26.04-4.42-.46-5.78-.345-2.452.21-2.494.76-6.19 1.06-1.926.158-3.843.19-3.843.19l-2.156-.69c.856-.305 1.065-.486 1.47-1.03.27-.366.232-.68.56-1.06.268-.313.443-.624.782-.97-.312-.25-.645-.377-.94-.44-.363-.074-.572-.04-.937 0-.494.057-.772.125-1.22.346-.358.176-.623.356-.843.593 0 0-1.286-.83-2.188-1.22-1.12-.483-1.6-.712-3-.906v.007zm1.97 11.906h.06c-.012.01-.018.022-.03.03l-.03-.03z"></path>
<g stroke="#FEDF00">
<path fill="none" stroke-width=".987" stroke-linecap="round" d="M568.77 396.11l-.763.244c-.867.402-1.578.418-2.6.496-2.645.202-4.27-1.058-6.998-.848-1.405.108-2.026 1.19-3.46 1.55-.653.16-1.032.225-1.702.28l.513-1.033s-1.283.26-2.114.263c-.597 0-.937-.028-1.523-.13l1.018-.95s-.812-.132-1.292-.335c-.443-.188-.684-.33-1.06-.63.662-.114 1.035-.192 1.688-.354 1.556-.385 2.04-1.147 3.89-1.325 1.15-.112 3.033-.048 7.645.716 3.036.502 4.383.267 5.536-.258.76-.346 1.01-1.01 1.103-1.788.092-.776-.404-1.404-.874-1.81-.123-.106-.444-.336-1.113-.363"></path>
<path fill="#FCD900" stroke-width=".513" d="M524.8 387.2c-.53-.065-.884.012-1.34.292-.48.296-.54.697-.888 1.143.445.1.698.36 1.142.254.347-.085.527-.24.762-.51.315-.362.43-.675.427-1.155l-.103-.024z"></path>
<path fill="none" stroke-width=".987" stroke-linecap="round" d="M536.04 400.38s.264.48.406.8c.248.556.377.88.524 1.47.2.797.114 1.282.24 2.096.023.144.05.264.077.377l-.05 1.13M544.04 399.3s-.22.813-.354 1.333c-.352 1.354-.676 2.088-.943 3.46-.045.23-.078.443-.104.645M531.78 400.76c.79.177.544 3.36 1.788 4.092"></path>
<path fill="none" stroke-width=".987" d="M560.12 406.37l.384-.248c1.015-.415 1.926-1.027 2.687-1.79"></path>
<path fill="none" stroke-width=".987" stroke-linecap="round" d="M552.38 404.61h.007c3.533-.883 5.885-2.647 7.58-2.868"></path>
<path fill="none" stroke-width=".987" stroke-linecap="round" d="M555.97 400.2c.3-.01.585-.032.83-.067 1.468-.21 1.704.687 2.726 1.26 1.856 1.037 2.098 2.306 4.3 3.354.115.055.223.106.32.154l.848.43"></path>
<path fill="#FCD900" stroke-width=".513" d="M517.7 391.12c.268.067.432.08.707.055.332-.03.484-.237.816-.25.27-.01.463-.03.685.126.14.1.2.19.28.343.087.166.162.282.124.467-.06.283-.324.417-.614.42-.237 0-.435-.062-.544-.272-.07-.135-.082-.243-.04-.39-.283.107-.49.11-.776.017-.304-.102-.476-.24-.638-.514z"></path>
</g>
<g fill="#0065BD">
<path d="M525.13 400.76c-.797-.236-1.966-.825-1.966-.825.323-.25.587-.265.863-.555.39-.408.372-.788.592-1.32.215-.52.184-.953.67-1.342.29-.23.764-.27 1.118-.165.354.113.76.4.85.767.137.56-.16.885-.247 1.454-.084.567-.292.894-.193 1.46.065.374.227.52.354.907 0 0-1.265-.15-2.04-.38zM524.14 401.71c-.007-.347.27-.633.618-.64.348-.01.634.272.64.618.008.348-.27.634-.617.64-.347.01-.634-.27-.64-.617zM522.38 385.2s-.09-.06-.144-.103c-.383-.31-.42-.654-.602-1.11-.172-.435-.257-.692-.314-1.155-.05-.405 0-.64 0-1.048 0-.368.04-.577 0-.943-.04-.374-.03-.61-.21-.943-.097-.18-.395-.337-.314-.42.095-.096.257-.02.42 0 .4.05.63.166.943.42.376.307.525.57.67 1.05.167.548.25.897.408 1.468.083.295.13.47.283.733.162.275.32.384.525.63l-.01.02c-.3.33-.445.54-.778.835-.305.27-.56.404-.847.573l-.032-.01.002.005zM525.98 395.84l2.23 1.032c1.148-.635 2.473-1.925 3.496-3.92.88-1.717 1.02-2.65 1.364-4.31l-1.79-.583-.356.07c-.552 1.725-.692 2.706-1.618 4.194-.802 1.29-1.718 2.305-2.648 3.033l-.678.484zM530.92 413.96c.36-.492.514-.81.922-1.263.456-.505.8-.702 1.312-1.15.156.016.336-.012.48.07-.027.546-.056.95-.18 1.542-.1.48-.186.745-.347 1.21-.135.387-.158.638-.39.978-.154.227-.29.315-.476.518-.51-.742-1.328-1.298-1.32-1.905zM563.93 415.81c.573.212.92.272 1.47.54.61.3.895.575 1.467.943.027.154.104.318.063.482-.532.123-.928.207-1.53.25-.49.037-.77.028-1.26 0-.41-.02-.657.025-1.048-.103-.26-.086-.384-.19-.63-.314.573-.696.88-1.637 1.468-1.797zM554.17 413.77c.572.21.92.272 1.47.54.61.3.895.575 1.467.943.026.153.104.318.062.482-.532.122-.928.207-1.53.25-.49.037-.77.028-1.26 0-.41-.02-.658.025-1.048-.103-.26-.086-.385-.19-.63-.314.573-.696.88-1.637 1.468-1.797zM536.83 415.9c.573.21.92.27 1.47.54.61.298.895.574 1.467.942.026.154.104.32.063.482-.532.123-.928.207-1.53.252-.49.035-.77.026-1.26 0-.41-.022-.658.023-1.048-.105-.26-.085-.384-.19-.63-.313.574-.695.88-1.635 1.468-1.797zM527.85 386.1c-.612-.277-1.05-1.043-.66-1.593.155-.22.413-.174.566-.396.188-.27.142-.507.136-.837-.007-.377-.144-.573-.21-.944-.072-.406-.14-.637-.136-1.05.005-.628-.038-1.075.346-1.572.244-.317.66-.593.824-.612.147.137-.057.502-.032.822.035.46.13.717.287 1.152.204.562.48.81.704 1.363.208.516.4.808.42 1.363.016.457-.024.736-.21 1.154-.165.37-.3.578-.61.838-.27.226-.458.326-.796.42-.248.02-.402-.01-.628-.107z"></path>
</g>
</g>
</g>
<g class="style01" stroke-width=".797">
<path d="M412.66 249.25h82.18v82.023h-82.18V249.25zM503.6 249.25h82.18v82.023H503.6V249.25zM412.97 402.41c.233 1.478.76 4.012 2.163 6.608 1.477 2.332.933 2.27 4.276 6 1.645 1.838 4.212 3.412 6.226 4.496 2.02 1.088 3.517 1.622 6.842 2.495 6.518 1.71 11.09 1.815 16.574 1.597 4.278-.17 7.544-.697 10.25-1.06 3.856-.52 6.73-.83 11.117-1.012 2.132-.09 4.147-.11 6.14 0 2.407.133 4.783.505 7.31 1.01 5.442 1.09 10.962 3.19 10.962 3.19l.014-85.656-82.193-.024V398.6c-.002 0 .167 2.86.317 3.81zM585.48 402.39c-.233 1.478-.76 4.012-2.163 6.608-1.478 2.333-.933 2.27-4.276 6-1.645 1.838-4.213 3.412-6.226 4.496-2.02 1.09-3.517 1.623-6.842 2.495-6.518 1.71-11.09 1.816-16.574 1.598-4.277-.17-7.544-.697-10.25-1.062-3.856-.52-6.73-.828-11.117-1.01-2.132-.09-4.147-.11-6.14 0-2.406.132-4.782.505-7.31 1.01-5.442 1.09-11.032 3.188-11.032 3.188l.056-85.655 82.193-.024v58.543s-.167 2.858-.317 3.81z"></path>
</g></svg>