<svg xmlns="http://www.w3.org/2000/svg" viewBox="0 0 640 480"><g stroke-width="1.25"><path fill="#006" d="m0 0h640v480h-640z"></path><g transform="scale(5.7614 8.3333)"><g fill="#fff"><path d="m0 0v3.354l53.29 26.646h6.708v-3.354l-53.29-26.646h-6.708m60 0v3.354l-53.29 26.646h-6.708v-3.354l53.29-26.646h6.708"></path><path d="m25 0v30h10v-30h-10m-25 10v10h60v-10h-60"></path></g><g fill="#c00"><path d="m0 12v6h60v-6h-60m27-12v30h6v-30h-6"></path><path d="m0 30l20-10h4.472l-20 10h-4.472m0-30l20 10h-4.472l-15.528-7.764v-2.236m35.528 10l20-10h4.472l-20 10h-4.472m24.472 20l-20-10h4.472l15.528 7.764v2.236"></path></g></g><g fill-rule="evenodd" fill="#fff" transform="matrix(1.0075 0 0 1.0075 1.354-37.74)"><path transform="matrix(7.6727 0 0 7.6727-1.315 66.42)" d="m38.774 47l-5.644.49.775 5.62-3.905-4.11-3.91 4.11.783-5.62-5.643-.49 4.87-2.89-3.136-4.72 5.296 2.01 1.74-5.4 1.736 5.4 5.304-2.01-3.14 4.72z"></path><g transform="matrix(6.9999 0 0 6.9999-135.43 119.74)"><path d="m88.14 49.576l-1.49-2.246 2.52.95.83-2.566.83 2.566 2.52-.95-1.49 2.246 2.32 1.378-2.69.236.37 2.671-1.86-1.956-1.86 1.956.37-2.671-2.69-.236z"></path><path d="m88.14 9.576l-1.49-2.248 2.52.956.83-2.57.83 2.57 2.52-.956-1.49 2.248 2.32 1.378-2.69.234.37 2.673-1.86-1.956-1.86 1.956.37-2.673-2.69-.234z"></path><path d="m73.14 25.826l-1.49-2.248 2.52.956.83-2.57.826 2.57 2.524-.956-1.493 2.248 2.323 1.374-2.69.238.37 2.672-1.86-1.95-1.86 1.95.37-2.672-2.688-.238z"></path><path d="m101.48 21.826l-1.5-2.248 2.53.956.82-2.57.83 2.57 2.52-.956-1.49 2.248 2.32 1.374-2.69.238.37 2.672-1.86-1.95-1.86 1.95.37-2.672-2.68-.238z"></path><path d="m96 33.611l-1.47.911.41-1.679-1.32-1.115 1.73-.127.65-1.601.65 1.601 1.73.127-1.32 1.115.41 1.679z"></path></g></g></g></svg>