<svg version="1.0" id="Ebene_1" xmlns="http://www.w3.org/2000/svg" xmlns:xlink="http://www.w3.org/1999/xlink" x="0px" y="0px" viewBox="0 0 610.667 458" enable-background="new 0 0 610.667 458" xml:space="preserve">
<g>
<rect x="-0.667" fill="#C8313E" width="611.334" height="458.15"></rect>
<rect x="-0.667" y="305.434" fill="#4AA657" width="611.334" height="152.717"></rect>
<rect x="-0.667" fill="#FFFFFF" width="101.808" height="458.15"></rect>
<polygon fill="#C8313E" points="17.038,0 30.313,0 30.313,7.505 34.753,7.505 34.753,15.021 39.171,15.021 39.171,22.526
43.6,22.526 43.6,30.042 48.028,30.042 48.028,37.546 43.6,37.546 43.6,45.062 39.171,45.062 39.171,52.578 34.753,52.578
34.753,60.083 30.313,60.083 30.313,67.599 25.895,67.599 25.895,75.104 21.466,75.104 21.466,67.599 17.038,67.599 17.038,60.083
12.609,60.083 12.609,52.578 8.191,52.578 8.191,45.062 3.762,45.062 3.762,37.546 -0.667,37.546 -0.667,30.042 3.762,30.042
3.762,22.526 8.191,22.526 8.191,15.021 12.609,15.021 12.609,7.505 17.038,7.505 	"></polygon>
<polygon fill="#C8313E" points="21.466,15.021 25.895,15.021 25.895,22.526 30.313,22.526 30.313,30.042 34.753,30.042
34.753,37.546 30.313,37.546 30.313,45.062 25.895,45.062 25.895,52.578 21.466,52.578 21.466,45.062 17.038,45.062 17.038,37.546
12.609,37.546 12.609,30.042 17.038,30.042 17.038,22.526 21.466,22.526 	"></polygon>
<rect x="21.466" y="30.042" fill="#C8313E" width="4.429" height="7.505"></rect>
<rect x="-0.667" y="7.505" fill="#C8313E" width="4.429" height="7.505"></rect>
<rect x="-0.667" y="52.578" fill="#C8313E" width="4.429" height="7.505"></rect>
<rect x="48.028" fill="#C8313E" width="2.65" height="15.021"></rect>
<rect x="48.028" y="52.578" fill="#C8313E" width="2.65" height="15.021"></rect>
<polygon fill="#C8313E" points="8.191,67.599 12.609,67.599 12.609,75.104 17.038,75.104 17.038,82.62 21.466,82.62 21.466,90.125
17.038,90.125 17.038,97.641 12.609,97.641 12.609,105.146 8.191,105.146 8.191,97.641 3.762,97.641 3.762,90.125 -0.667,90.125
-0.667,82.62 3.762,82.62 3.762,75.104 8.191,75.104 	"></polygon>
<rect x="8.191" y="82.62" fill="#C8313E" width="4.429" height="7.505"></rect>
<polygon fill="#C8313E" points="34.753,67.599 39.171,67.599 39.171,75.104 43.6,75.104 43.6,82.62 48.028,82.62 48.028,90.125
43.6,90.125 43.6,97.641 39.171,97.641 39.171,105.146 34.753,105.146 34.753,97.641 30.313,97.641 30.313,90.125 25.895,90.125
25.895,82.62 30.313,82.62 30.313,75.104 34.753,75.104 	"></polygon>
<rect x="34.753" y="82.62" fill="#C8313E" width="4.429" height="7.505"></rect>
<rect x="-0.667" y="112.661" fill="#C8313E" width="4.429" height="7.516"></rect>
<rect x="48.028" y="105.146" fill="#C8313E" width="2.65" height="15.021"></rect>
<polygon fill="#C8313E" points="-0.667,135.198 3.762,135.198 3.762,127.682 8.191,127.682 8.191,120.177 12.609,120.177
12.609,112.661 17.038,112.661 17.038,105.146 21.466,105.146 21.466,97.641 25.895,97.641 25.895,105.146 30.313,105.146
30.313,112.661 34.753,112.661 34.753,120.177 39.171,120.177 39.171,127.682 43.6,127.682 43.6,135.198 48.028,135.198
48.028,142.703 50.679,142.703 50.679,172.745 48.028,172.745 48.028,180.25 43.6,180.25 43.6,187.765 39.171,187.765
39.171,195.281 34.753,195.281 34.753,202.786 30.313,202.786 30.313,210.302 25.895,210.302 25.895,229.828 17.038,229.828
17.038,225.323 12.609,225.323 12.609,217.807 8.191,217.807 8.191,210.302 3.762,210.302 3.762,202.786 -0.667,202.786
-0.667,180.25 3.762,180.25 3.762,187.765 8.191,187.765 8.191,195.281 12.609,195.281 12.609,202.786 17.038,202.786
17.038,195.281 21.466,195.281 21.466,187.765 25.895,187.765 25.895,180.25 30.313,180.25 30.313,172.745 34.753,172.745
34.753,165.229 39.171,165.229 39.171,157.724 34.753,157.724 34.753,150.219 30.313,150.219 30.313,142.703 17.038,142.703
17.038,150.219 25.895,150.219 25.895,157.724 21.466,157.724 21.466,165.229 17.038,165.229 17.038,172.745 12.609,172.745
12.609,165.229 8.191,165.229 8.191,157.724 3.762,157.724 3.762,150.219 -0.667,150.219 	"></polygon>
<rect x="-0.667" y="165.229" fill="#C8313E" width="4.429" height="7.505"></rect>
<rect x="48.028" y="187.765" fill="#C8313E" width="2.65" height="7.516"></rect>
<polygon fill="#C8313E" points="39.171,202.786 43.6,202.786 43.6,210.302 48.028,210.302 48.028,217.807 50.679,217.807
50.679,229.828 48.028,229.828 48.028,225.323 43.6,225.323 43.6,217.807 39.171,217.807 	"></polygon>
<rect x="30.313" y="225.323" fill="#C8313E" width="4.429" height="4.505"></rect>
<polygon fill="#C8313E" points="83.437,0 70.161,0 70.161,7.505 65.732,7.505 65.732,15.021 61.304,15.021 61.304,22.526
56.875,22.526 56.875,30.042 52.457,30.042 52.457,37.546 56.875,37.546 56.875,45.062 61.304,45.062 61.304,52.578 65.732,52.578
65.732,60.083 70.161,60.083 70.161,67.599 74.579,67.599 74.579,75.104 79.008,75.104 79.008,67.599 83.437,67.599 83.437,60.083
87.866,60.083 87.866,52.578 92.283,52.578 92.283,45.062 96.723,45.062 96.723,37.546 101.141,37.546 101.141,30.042
96.723,30.042 96.723,22.526 92.283,22.526 92.283,15.021 87.866,15.021 87.866,7.505 83.437,7.505 	"></polygon>
<polygon fill="#C8313E" points="79.008,15.021 74.579,15.021 74.579,22.526 70.161,22.526 70.161,30.042 65.732,30.042
65.732,37.546 70.161,37.546 70.161,45.062 74.579,45.062 74.579,52.578 79.008,52.578 79.008,45.062 83.437,45.062 83.437,37.546
87.866,37.546 87.866,30.042 83.437,30.042 83.437,22.526 79.008,22.526 	"></polygon>
<rect x="74.579" y="30.042" fill="#C8313E" width="4.429" height="7.505"></rect>
<rect x="96.723" y="7.505" fill="#C8313E" width="4.429" height="7.505"></rect>
<rect x="96.723" y="52.578" fill="#C8313E" width="4.429" height="7.505"></rect>
<rect x="49.795" fill="#C8313E" width="2.662" height="15.021"></rect>
<rect x="49.795" y="52.578" fill="#C8313E" width="2.662" height="15.021"></rect>
<polygon fill="#C8313E" points="92.283,67.599 87.866,67.599 87.866,75.104 83.437,75.104 83.437,82.62 79.008,82.62
79.008,90.125 83.437,90.125 83.437,97.641 87.866,97.641 87.866,105.146 92.283,105.146 92.283,97.641 96.723,97.641
96.723,90.125 101.141,90.125 101.141,82.62 96.723,82.62 96.723,75.104 92.283,75.104 	"></polygon>
<rect x="87.866" y="82.62" fill="#C8313E" width="4.429" height="7.505"></rect>
<polygon fill="#C8313E" points="65.732,67.599 61.304,67.599 61.304,75.104 56.875,75.104 56.875,82.62 52.457,82.62
52.457,90.125 56.875,90.125 56.875,97.641 61.304,97.641 61.304,105.146 65.732,105.146 65.732,97.641 70.161,97.641
70.161,90.125 74.579,90.125 74.579,82.62 70.161,82.62 70.161,75.104 65.732,75.104 	"></polygon>
<rect x="61.304" y="82.62" fill="#C8313E" width="4.429" height="7.505"></rect>
<rect x="96.723" y="112.661" fill="#C8313E" width="4.429" height="7.516"></rect>
<rect x="49.795" y="105.146" fill="#C8313E" width="2.662" height="15.021"></rect>
<polygon fill="#C8313E" points="101.141,135.198 96.723,135.198 96.723,127.682 92.283,127.682 92.283,120.177 87.866,120.177
87.866,112.661 83.437,112.661 83.437,105.146 79.008,105.146 79.008,97.641 74.579,97.641 74.579,105.146 70.161,105.146
70.161,112.661 65.732,112.661 65.732,120.177 61.304,120.177 61.304,127.682 56.875,127.682 56.875,135.198 52.457,135.198
52.457,142.703 49.795,142.703 49.795,172.745 52.457,172.745 52.457,180.25 56.875,180.25 56.875,187.765 61.304,187.765
61.304,195.281 65.732,195.281 65.732,202.786 70.161,202.786 70.161,210.302 74.579,210.302 74.579,229.828 83.437,229.828
83.437,225.323 87.866,225.323 87.866,217.807 92.283,217.807 92.283,210.302 96.723,210.302 96.723,202.786 101.141,202.786
101.141,180.25 96.723,180.25 96.723,187.765 92.283,187.765 92.283,195.281 87.866,195.281 87.866,202.786 83.437,202.786
83.437,195.281 79.008,195.281 79.008,187.765 74.579,187.765 74.579,180.25 70.161,180.25 70.161,172.745 65.732,172.745
65.732,165.229 61.304,165.229 61.304,157.724 65.732,157.724 65.732,150.219 70.161,150.219 70.161,142.703 83.437,142.703
83.437,150.219 74.579,150.219 74.579,157.724 79.008,157.724 79.008,165.229 83.437,165.229 83.437,172.745 87.866,172.745
87.866,165.229 92.283,165.229 92.283,157.724 96.723,157.724 96.723,150.219 101.141,150.219 	"></polygon>
<rect x="96.723" y="165.229" fill="#C8313E" width="4.429" height="7.505"></rect>
<rect x="49.795" y="187.765" fill="#C8313E" width="2.662" height="7.516"></rect>
<polygon fill="#C8313E" points="61.304,202.786 56.875,202.786 56.875,210.302 52.457,210.302 52.457,217.807 49.795,217.807
49.795,229.828 52.457,229.828 52.457,225.323 56.875,225.323 56.875,217.807 61.304,217.807 	"></polygon>
<rect x="65.732" y="225.323" fill="#C8313E" width="4.429" height="4.505"></rect>
<polygon fill="#C8313E" points="17.038,458.15 30.313,458.15 30.313,450.646 34.753,450.646 34.753,443.129 39.171,443.129
39.171,435.624 43.6,435.624 43.6,428.108 48.028,428.108 48.028,420.604 43.6,420.604 43.6,413.088 39.171,413.088
39.171,405.583 34.753,405.583 34.753,398.067 30.313,398.067 30.313,390.562 25.895,390.562 25.895,383.046 21.466,383.046
21.466,390.562 17.038,390.562 17.038,398.067 12.609,398.067 12.609,405.583 8.191,405.583 8.191,413.088 3.762,413.088
3.762,420.604 -0.667,420.604 -0.667,428.108 3.762,428.108 3.762,435.624 8.191,435.624 8.191,443.129 12.609,443.129
12.609,450.646 17.038,450.646 	"></polygon>
<polygon fill="#C8313E" points="21.466,443.129 25.895,443.129 25.895,435.624 30.313,435.624 30.313,428.108 34.753,428.108
34.753,420.604 30.313,420.604 30.313,413.088 25.895,413.088 25.895,405.583 21.466,405.583 21.466,413.088 17.038,413.088
17.038,420.604 12.609,420.604 12.609,428.108 17.038,428.108 17.038,435.624 21.466,435.624 	"></polygon>
<rect x="21.466" y="420.604" fill="#C8313E" width="4.429" height="7.505"></rect>
<rect x="-0.667" y="443.129" fill="#C8313E" width="4.429" height="7.505"></rect>
<rect x="-0.667" y="398.067" fill="#C8313E" width="4.429" height="7.505"></rect>
<rect x="48.028" y="443.129" fill="#C8313E" width="2.65" height="15.021"></rect>
<rect x="48.028" y="390.562" fill="#C8313E" width="2.65" height="15.021"></rect>
<polygon fill="#C8313E" points="8.191,390.562 12.609,390.562 12.609,383.046 17.038,383.046 17.038,375.53 21.466,375.53
21.466,368.015 17.038,368.015 17.038,360.51 12.609,360.51 12.609,352.994 8.191,352.994 8.191,360.51 3.762,360.51
3.762,368.015 -0.667,368.015 -0.667,375.53 3.762,375.53 3.762,383.046 8.191,383.046 	"></polygon>
<rect x="8.191" y="368.015" fill="#C8313E" width="4.429" height="7.505"></rect>
<polygon fill="#C8313E" points="34.753,390.562 39.171,390.562 39.171,383.046 43.6,383.046 43.6,375.53 48.028,375.53
48.028,368.015 43.6,368.015 43.6,360.51 39.171,360.51 39.171,352.994 34.753,352.994 34.753,360.51 30.313,360.51
30.313,368.015 25.895,368.015 25.895,375.53 30.313,375.53 30.313,383.046 34.753,383.046 	"></polygon>
<rect x="34.753" y="368.015" fill="#C8313E" width="4.429" height="7.505"></rect>
<rect x="-0.667" y="337.973" fill="#C8313E" width="4.429" height="7.505"></rect>
<rect x="48.028" y="337.973" fill="#C8313E" width="2.65" height="15.021"></rect>
<polygon fill="#C8313E" points="-0.667,322.952 3.762,322.952 3.762,330.468 8.191,330.468 8.191,337.973 12.609,337.973
12.609,345.489 17.038,345.489 17.038,352.994 21.466,352.994 21.466,360.51 25.895,360.51 25.895,352.994 30.313,352.994
30.313,345.489 34.753,345.489 34.753,337.973 39.171,337.973 39.171,330.468 43.6,330.468 43.6,322.952 48.028,322.952
48.028,315.447 50.679,315.447 50.679,285.406 48.028,285.406 48.028,277.901 43.6,277.901 43.6,270.385 39.171,270.385
39.171,262.88 34.753,262.88 34.753,255.364 30.313,255.364 30.313,247.859 25.895,247.859 25.895,228.323 17.038,228.323
17.038,232.828 12.609,232.828 12.609,240.343 8.191,240.343 8.191,247.859 3.762,247.859 3.762,255.364 -0.667,255.364
-0.667,277.901 3.762,277.901 3.762,270.385 8.191,270.385 8.191,262.88 12.609,262.88 12.609,255.364 17.038,255.364
17.038,262.88 21.466,262.88 21.466,270.385 25.895,270.385 25.895,277.901 30.313,277.901 30.313,285.406 34.753,285.406
34.753,292.921 39.171,292.921 39.171,300.426 34.753,300.426 34.753,307.931 30.313,307.931 30.313,315.447 17.038,315.447
17.038,307.931 25.895,307.931 25.895,300.426 21.466,300.426 21.466,292.921 17.038,292.921 17.038,285.406 12.609,285.406
12.609,292.921 8.191,292.921 8.191,300.426 3.762,300.426 3.762,307.931 -0.667,307.931 	"></polygon>
<rect x="-0.667" y="285.406" fill="#C8313E" width="4.429" height="7.505"></rect>
<rect x="48.028" y="262.88" fill="#C8313E" width="2.65" height="7.505"></rect>
<polygon fill="#C8313E" points="39.171,255.364 43.6,255.364 43.6,247.859 48.028,247.859 48.028,240.343 50.679,240.343
50.679,228.323 48.028,228.323 48.028,232.828 43.6,232.828 43.6,240.343 39.171,240.343 	"></polygon>
<rect x="30.313" y="228.323" fill="#C8313E" width="4.429" height="4.505"></rect>
<polygon fill="#C8313E" points="83.437,458.15 70.161,458.15 70.161,450.646 65.732,450.646 65.732,443.129 61.304,443.129
61.304,435.624 56.875,435.624 56.875,428.108 52.457,428.108 52.457,420.604 56.875,420.604 56.875,413.088 61.304,413.088
61.304,405.583 65.732,405.583 65.732,398.067 70.161,398.067 70.161,390.562 74.579,390.562 74.579,383.046 79.008,383.046
79.008,390.562 83.437,390.562 83.437,398.067 87.866,398.067 87.866,405.583 92.283,405.583 92.283,413.088 96.723,413.088
96.723,420.604 101.141,420.604 101.141,428.108 96.723,428.108 96.723,435.624 92.283,435.624 92.283,443.129 87.866,443.129
87.866,450.646 83.437,450.646 	"></polygon>
<polygon fill="#C8313E" points="79.008,443.129 74.579,443.129 74.579,435.624 70.161,435.624 70.161,428.108 65.732,428.108
65.732,420.604 70.161,420.604 70.161,413.088 74.579,413.088 74.579,405.583 79.008,405.583 79.008,413.088 83.437,413.088
83.437,420.604 87.866,420.604 87.866,428.108 83.437,428.108 83.437,435.624 79.008,435.624 	"></polygon>
<rect x="74.579" y="420.604" fill="#C8313E" width="4.429" height="7.505"></rect>
<rect x="96.723" y="443.129" fill="#C8313E" width="4.429" height="7.505"></rect>
<rect x="96.723" y="398.067" fill="#C8313E" width="4.429" height="7.505"></rect>
<rect x="49.795" y="443.129" fill="#C8313E" width="2.662" height="15.021"></rect>
<rect x="49.795" y="390.562" fill="#C8313E" width="2.662" height="15.021"></rect>
<polygon fill="#C8313E" points="92.283,390.562 87.866,390.562 87.866,383.046 83.437,383.046 83.437,375.53 79.008,375.53
79.008,368.015 83.437,368.015 83.437,360.51 87.866,360.51 87.866,352.994 92.283,352.994 92.283,360.51 96.723,360.51
96.723,368.015 101.141,368.015 101.141,375.53 96.723,375.53 96.723,383.046 92.283,383.046 	"></polygon>
<rect x="87.866" y="368.015" fill="#C8313E" width="4.429" height="7.505"></rect>
<polygon fill="#C8313E" points="65.732,390.562 61.304,390.562 61.304,383.046 56.875,383.046 56.875,375.53 52.457,375.53
52.457,368.015 56.875,368.015 56.875,360.51 61.304,360.51 61.304,352.994 65.732,352.994 65.732,360.51 70.161,360.51
70.161,368.015 74.579,368.015 74.579,375.53 70.161,375.53 70.161,383.046 65.732,383.046 	"></polygon>
<rect x="61.304" y="368.015" fill="#C8313E" width="4.429" height="7.505"></rect>
<rect x="96.723" y="337.973" fill="#C8313E" width="4.429" height="7.505"></rect>
<rect x="49.795" y="337.973" fill="#C8313E" width="2.662" height="15.021"></rect>
<polygon fill="#C8313E" points="101.141,322.952 96.723,322.952 96.723,330.468 92.283,330.468 92.283,337.973 87.866,337.973
87.866,345.489 83.437,345.489 83.437,352.994 79.008,352.994 79.008,360.51 74.579,360.51 74.579,352.994 70.161,352.994
70.161,345.489 65.732,345.489 65.732,337.973 61.304,337.973 61.304,330.468 56.875,330.468 56.875,322.952 52.457,322.952
52.457,315.447 49.795,315.447 49.795,285.406 52.457,285.406 52.457,277.901 56.875,277.901 56.875,270.385 61.304,270.385
61.304,262.88 65.732,262.88 65.732,255.364 70.161,255.364 70.161,247.859 74.579,247.859 74.579,228.323 83.437,228.323
83.437,232.828 87.866,232.828 87.866,240.343 92.283,240.343 92.283,247.859 96.723,247.859 96.723,255.364 101.141,255.364
101.141,277.901 96.723,277.901 96.723,270.385 92.283,270.385 92.283,262.88 87.866,262.88 87.866,255.364 83.437,255.364
83.437,262.88 79.008,262.88 79.008,270.385 74.579,270.385 74.579,277.901 70.161,277.901 70.161,285.406 65.732,285.406
65.732,292.921 61.304,292.921 61.304,300.426 65.732,300.426 65.732,307.931 70.161,307.931 70.161,315.447 83.437,315.447
83.437,307.931 74.579,307.931 74.579,300.426 79.008,300.426 79.008,292.921 83.437,292.921 83.437,285.406 87.866,285.406
87.866,292.921 92.283,292.921 92.283,300.426 96.723,300.426 96.723,307.931 101.141,307.931 	"></polygon>
<rect x="96.723" y="285.406" fill="#C8313E" width="4.429" height="7.505"></rect>
<rect x="49.795" y="262.88" fill="#C8313E" width="2.662" height="7.505"></rect>
<polygon fill="#C8313E" points="61.304,255.364 56.875,255.364 56.875,247.859 52.457,247.859 52.457,240.343 49.795,240.343
49.795,228.323 52.457,228.323 52.457,232.828 56.875,232.828 56.875,240.343 61.304,240.343 	"></polygon>
<rect x="65.732" y="228.323" fill="#C8313E" width="4.429" height="4.505"></rect>
</g>
</svg>