<svg version="1.0" id="Ebene_1" xmlns="http://www.w3.org/2000/svg" xmlns:xlink="http://www.w3.org/1999/xlink" x="0px" y="0px" viewBox="0 0 610.667 458" enable-background="new 0 0 610.667 458" xml:space="preserve">
<g>
<rect y="-0.057" fill="#002395" width="610.667" height="457.202"></rect>
<path fill="#FECB00" d="M153.465-0.057h457.202v457.202L153.465-0.057z"></path>
<path id="s_1_" fill="#FFFFFF" d="M102.795,87.092l25.526-78.575l25.537,78.575L87.021,38.526h82.611L102.795,87.092z"></path>
<path id="s_2_" fill="#FFFFFF" d="M159.945,144.242l25.526-78.575l25.526,78.575l-66.836-48.565h82.622L159.945,144.242z"></path>
<path id="s_5_" fill="#FFFFFF" d="M331.395,315.692l25.538-78.575l25.537,78.575l-66.849-48.576h82.622L331.395,315.692z"></path>
<path id="s_4_" fill="#FFFFFF" d="M274.234,258.553l25.526-78.585l25.548,78.585l-66.836-48.576h82.611L274.234,258.553z"></path>
<path id="s_3_" fill="#FFFFFF" d="M217.084,201.392l25.526-78.575l25.537,78.575l-66.836-48.565h82.612L217.084,201.392z"></path>
<path id="s_6_" fill="#FFFFFF" d="M388.535,372.854l25.537-78.586l25.538,78.586l-66.838-48.576h82.611L388.535,372.854z"></path>
<path id="s_7_" fill="#FFFFFF" d="M445.686,430.004l25.536-78.586l25.548,78.586l-66.859-48.577h82.634L445.686,430.004z"></path>
<polygon fill="#FFFFFF" points="55.44,-0.221 45.459,29.941 71.182,11.32 96.882,29.941 87.021,-0.112 	"></polygon>
<polygon fill="#FFFFFF" points="512.544,457.329 487.149,438.578 518.609,438.578 528.154,408.568 538.147,438.578
569.684,438.458 544.222,456.948 	"></polygon>
</g></svg>