<svg version="1.0" xmlns="http://www.w3.org/2000/svg" xmlns:xlink="http://www.w3.org/1999/xlink" x="0px" y="0px" viewBox="0 0 610.667 458" enable-background="new 0 0 610.667 458" xml:space="preserve">
<g id="Ebene_2">
<g id="layer1">
<rect id="rect3220" y="0.165" fill="#FFFFFF" stroke="#FFFFFF" stroke-width="4" width="610.667" height="457.67"></rect>
</g>
</g>
<g id="Ebene_1">
<path id="path3048" fill="#435024" stroke="#435024" d="M145.594,279.163c0,0-1.18,10.021,2.947,14.737
c4.126,4.715,14.146,10.021,17.683,10.609c3.538,0.591-4.126-12.969-4.126-12.969S150.898,277.394,145.594,279.163z"></path>
<path id="path3050" fill="#435024" stroke="#435024" d="M147.361,304.51c0,0,1.18,9.432,7.663,10.608
c6.484,1.181,12.378,0.592,12.378,0.592S167.403,305.101,147.361,304.51z"></path>
<path id="path3052" fill="#435024" stroke="#435024" d="M168.583,285.058c0,0,6.483,2.357,6.483,8.252s-0.589,11.791-0.589,11.791
s-4.716-5.896-4.716-8.846C169.762,293.31,168.583,285.058,168.583,285.058z"></path>
<path id="path3054" fill="#435024" stroke="#435024" d="M166.184,320.536c0,0-0.835,5.838,5.834,5.838
S172.853,318.87,166.184,320.536z"></path>
<path id="path3056" fill="#435024" stroke="#435024" d="M165.767,329.707c0,0,7.086-2.083,15.422-0.414
c8.336,1.666,12.504,7.917,12.504,7.917s-8.753,2.5-18.756,0C164.932,334.711,165.767,329.707,165.767,329.707z"></path>
<path id="path3060" fill="#435024" stroke="#435024" d="M170.352,308.867c0,0,10.003-2.918,19.591,18.757
C189.942,327.624,171.602,323.039,170.352,308.867z"></path>
<path id="path3062" fill="#435024" stroke="#435024" d="M180.771,304.282c0,0,11.256-6.253,20.424,22.925
C201.195,327.207,188.275,322.203,180.771,304.282z"></path>
<path id="path3064" fill="#435024" stroke="#435024" d="M195.777,331.376c0,0,11.256-4.169,25.844,12.919
C197.862,343.462,195.777,331.376,195.777,331.376z"></path>
<path id="path3054-9" fill="#435024" stroke="#435024" stroke-width="0.863" d="M203.306,323.431c0,0-0.552,6.573,3.858,6.573
S207.715,321.555,203.306,323.431z"></path>
<path id="path3054-9-4" fill="#435024" stroke="#435024" stroke-width="0.7124" d="M195.189,340.503c0,0-0.432,5.739,3.01,5.739
C201.639,346.242,198.628,338.861,195.189,340.503z"></path>
<path id="path3054-9-7" fill="#435024" stroke="#435024" stroke-width="0.863" d="M229.566,358.236c0,0-0.552,6.573,3.858,6.573
C237.835,364.81,233.976,356.358,229.566,358.236z"></path>
<path id="path3054-9-71" fill="#435024" stroke="#435024" stroke-width="0.863" d="M239.985,338.646c0,0-0.552,6.571,3.862,6.571
C248.256,345.218,244.395,336.769,239.985,338.646z"></path>
<path id="path3127" fill="#435024" stroke="#435024" d="M212.451,327.207c0,0,15.84-4.168,22.508,15.84
C215.783,340.129,212.451,327.207,212.451,327.207z"></path>
<path id="path3129" fill="#435024" stroke="#435024" d="M198.276,349.298c0,0,17.927-4.584,26.263,1.667
C232.875,357.217,208.699,359.719,198.276,349.298z"></path>
<path id="path3131" fill="#435024" stroke="#435024" d="M229.54,349.715c0,0,12.087-5.835,25.427,7.088
C229.957,360.135,229.54,349.715,229.54,349.715z"></path>
<path id="path3133" fill="#435024" stroke="#435024" d="M249.963,341.795c0,0,12.088-3.751,23.76,18.34
C247.463,356.384,249.963,341.795,249.963,341.795z"></path>
<path id="path3135" fill="#435024" stroke="#435024" d="M270.805,365.972c0,0-13.339,9.17-30.012-0.419
C240.793,365.553,246.211,354.301,270.805,365.972z"></path>
<path id="path3048-1" fill="#435024" stroke="#435024" d="M430.631,278.953c0,0,1.182,10.019-2.946,14.735
c-4.126,4.717-14.146,10.021-17.685,10.609c-3.537,0.591,4.127-12.967,4.127-12.967S425.328,277.183,430.631,278.953z"></path>
<path id="path3050-1" fill="#435024" stroke="#435024" d="M428.865,304.298c0,0-1.18,9.434-7.663,10.611
c-6.486,1.18-12.378,0.589-12.378,0.589S408.824,304.889,428.865,304.298z"></path>
<path id="path3052-6" fill="#435024" stroke="#435024" d="M407.641,284.846c0,0-6.48,2.359-6.48,8.254s0.588,11.789,0.588,11.789
s4.715-5.895,4.715-8.843C406.463,293.1,407.641,284.846,407.641,284.846z"></path>
<path id="path3054-3" fill="#435024" stroke="#435024" d="M410.042,320.327c0,0,0.835,5.835-5.835,5.835
C397.538,326.162,403.374,318.661,410.042,320.327z"></path>
<path id="path3056-5" fill="#435024" stroke="#435024" d="M410.46,329.497c0,0-7.087-2.085-15.424-0.417
c-8.336,1.667-12.505,7.92-12.505,7.92s8.756,2.5,18.759,0C411.293,334.498,410.46,329.497,410.46,329.497L410.46,329.497z"></path>
<path id="path3060-7" fill="#435024" stroke="#435024" d="M405.875,308.655c0,0-10.004-2.916-19.592,18.757
C386.284,327.412,404.623,322.827,405.875,308.655z"></path>
<path id="path3062-6" fill="#435024" stroke="#435024" d="M395.454,304.07c0,0-11.256-6.251-20.426,22.928
C375.028,326.998,387.95,321.994,395.454,304.07z"></path>
<path id="path3064-8" fill="#435024" stroke="#435024" d="M380.449,331.163c0,0-11.253-4.165-25.844,12.922
C378.366,343.252,380.449,331.163,380.449,331.163z"></path>
<path id="path3054-9-2" fill="#435024" stroke="#435024" stroke-width="0.863" d="M372.919,323.222c0,0,0.553,6.57-3.857,6.57
C364.65,329.792,368.509,321.345,372.919,323.222z"></path>
<path id="path3054-9-4-1" fill="#435024" stroke="#435024" stroke-width="0.7124" d="M381.038,340.293c0,0,0.431,5.74-3.011,5.74
S377.598,338.652,381.038,340.293z"></path>
<path id="path3054-9-7-1" fill="#435024" stroke="#435024" stroke-width="0.863" d="M346.661,358.024c0,0,0.552,6.573-3.859,6.573
C338.388,364.598,342.25,356.148,346.661,358.024z"></path>
<path id="path3054-9-71-4" fill="#435024" stroke="#435024" stroke-width="0.863" d="M336.238,338.436c0,0,0.554,6.572-3.856,6.572
C327.972,345.008,331.828,336.557,336.238,338.436z"></path>
<path id="path3127-3" fill="#435024" stroke="#435024" d="M363.776,326.998c0,0-15.839-4.171-22.509,15.838
C360.44,339.92,363.776,326.998,363.776,326.998z"></path>
<path id="path3129-0" fill="#435024" stroke="#435024" d="M377.948,349.089c0,0-17.925-4.584-26.259,1.667
C343.353,357.007,367.527,359.509,377.948,349.089z"></path>
<path id="path3131-7" fill="#435024" stroke="#435024" d="M346.685,349.504c0,0-12.088-5.835-25.424,7.086
C346.269,359.925,346.685,349.504,346.685,349.504z"></path>
<path id="path3133-1" fill="#435024" stroke="#435024" d="M326.26,341.586c0,0-12.086-3.752-23.758,18.339
C328.762,356.174,326.26,341.586,326.26,341.586z"></path>
<path id="path3135-1" fill="#435024" stroke="#435024" d="M305.421,365.76c0,0,13.338,9.173,30.009-0.417
C335.43,365.343,330.011,354.088,305.421,365.76z"></path>
<path id="path3203" fill="#435024" stroke="#435024" d="M285.594,371.12c0,0-9.14,12.378-9.14,11.201
c0-1.181-6.482-6.486-6.482-6.486l11.199-8.252l-4.423-2.062l2.36-2.652l8.252,3.538"></path>
<path id="path3203-2" fill="#435024" stroke="#435024" d="M288.099,371.08c0,0,9.135,12.378,9.135,11.202
c0-1.182,6.486-6.487,6.486-6.487l-11.201-8.252l4.42-2.062l-2.357-2.652l-8.254,3.538"></path>
<path id="path3223" fill="#435024" stroke="#435024" d="M285.003,371.709h3.832"></path>
<path id="path3993" fill="#D87503" stroke="#D87503" d="M119.655,174.826c0,0,4.717,12.379,10.022,12.379
c5.305,0,19.453,1.179,19.453,1.179s7.074-1.179,9.431-7.664c2.359-6.484,8.842-33.6,41.262-17.095
c32.424,16.505,34.19-28.293,34.19-28.293l-5.303-7.664l1.177-14.737c0,0,17.687,12.379,28.886,11.79
c11.199-0.589,19.453,3.537,22.99,3.537c3.534,0,14.735,3.537,14.735,3.537l28.884,1.179c0,0,4.715-4.126,9.432-3.537
s4.717-2.947,13.558-2.947s17.687-11.201,17.687-11.201s2.354-2.357,15.325,0c0,0,8.841-7.073,21.808-11.199
c12.972-4.126,11.2-9.431,11.2-9.431s9.435-1.769,13.561-1.179c4.126,0.588,6.483-7.075,6.483-7.075l10.021-1.179l4.126-5.895
l10.023-1.769c0,0,11.789-8.253,13.554-13.558c1.771-5.304,15.327-1.178,15.327-1.178s5.896-5.307,6.485-8.253
c0.589-2.947,5.895-0.59,5.895-0.59l-0.589,9.431l-6.483,3.538v5.895h-10.022l-0.589,5.895l-8.252,0.59l-1.179,7.073l-1.769,2.949
l-2.357,1.179h-5.895l-2.36,3.535l-5.892,4.127l-4.126,5.305l-8.255-0.589l-5.306,7.073l-3.537-0.59l-5.304,8.843l-4.126,5.305
l-2.359,3.537l-4.127,1.179l-1.177,4.715l-7.075,1.769l-9.432,2.357l-3.537,4.128c0,0-10.02,20.041,0.593,27.115
c10.607,7.073,11.196,14.736,11.196,14.736l5.307,3.538l4.125,7.073l1.77,8.253c0,0-1.77,1.179-4.126,0.59
c-2.357-0.59-6.483-1.18-6.483-1.18l-4.718-4.126l-8.843-0.589l-4.715,5.305c0,0-2.358,3.537-2.358,5.895
c0,2.359-1.178,1.768-4.126,0c-2.946-1.769-7.665-4.716-7.665-4.716l-6.483-1.769l-0.587-2.947l-4.129,2.358
c0,0-1.178,3.538-3.536,2.357c-2.355-1.179-4.716-1.179-4.716-1.179h-4.126c0,0-9.429,7.073-8.252,30.062l-10.611,1.769
l-5.304,4.715l-2.948,2.949h-7.663l-4.126,3.536l-7.664,2.949l-3.537,4.714l-9.431,0.589l-4.126,2.949l-1.769,4.126l-6.486-4.126
l-8.841-2.36l-7.663,1.771c0,0-2.356,0.589-4.714,2.357c-2.36,1.769-8.844,2.945-8.844,2.945s-4.126,1.181-4.126,3.538
c0,2.359-1.18,6.485-1.18,6.485v8.84c0,0-1.178,5.895-5.895,5.895s-3.535,0-5.895-0.588c-2.357-0.592-1.769-5.895-1.769-5.895
v-6.485l-9.432-8.841l-5.896-2.36l-6.482,0.592l-5.897,3.537l-5.303,3.534c0,0,1.177,4.128-2.947,1.181
c-4.127-2.946-7.075-4.126-7.075-4.126l-5.305-2.946l-7.074-1.771l-5.304-6.483l-13.559-0.588l-11.79-13.559l-3.536-3.536
l-0.59-10.611l-7.663-1.179v-5.895l-2.947-5.896l1.179-10.61l-7.073-2.947l-2.947-10.021L119.655,174.826z"></path>
</g>
</svg>