<svg version="1.0" id="Ebene_2" xmlns="http://www.w3.org/2000/svg" xmlns:xlink="http://www.w3.org/1999/xlink" x="0px" y="0px" viewBox="0 0 610.667 458" enable-background="new 0 0 610.667 458" xml:space="preserve">
<rect x="1.139" fill="#FFFFFF" width="609.126" height="457.578"></rect>
<path fill="#FF0000" d="M265.094,0v173.365H1.139v81.217h263.955V458h81.216V254.582h263.955v-81.217H346.31V0H265.094z"></path>
<g>
<defs>
<path id="SVGID_1_" d="M-89.317,302.194c116.622,0,211.164-94.541,211.164-211.163c0-116.623-94.542-211.163-211.164-211.163
h442.632c-116.623,0-211.164,94.54-211.164,211.163c0,116.622,94.541,211.163,211.164,211.163H-89.317z"></path>
</defs>
<clipPath id="SVGID_2_">
<use xlink:href="#SVGID_1_" overflow="visible"></use>
</clipPath>
<path id="varm" clip-path="url(#SVGID_2_)" fill="#FF0000" d="M20.326,241.281c0-61.675,49.998-111.672,111.672-111.672
c61.676,0,111.673,49.998,111.673,111.672V-59.22c0,61.675-49.998,111.673-111.673,111.673
C70.324,52.454,20.326,2.455,20.326-59.22V241.281z"></path>
</g>
<g>
<defs>
<path id="SVGID_3_" d="M-79.164-130.284c0,116.623,94.541,211.164,211.163,211.164c116.624,0,211.163-94.542,211.163-211.164
v442.631c0-116.622-94.54-211.164-211.163-211.164c-116.622,0-211.163,94.542-211.163,211.164V-130.284z"></path>
</defs>
<clipPath id="SVGID_4_">
<use xlink:href="#SVGID_3_" overflow="visible"></use>
</clipPath>
<path id="varm_1_" clip-path="url(#SVGID_4_)" fill="#FF0000" d="M-18.252-20.642c61.676,0,111.673,49.999,111.673,111.673
c0,61.675-49.998,111.673-111.673,111.673H282.25c-61.675,0-111.672-49.998-111.672-111.673
c0-61.675,49.998-111.673,111.672-111.673H-18.252z"></path>
</g>
<g>
<defs>
<path id="SVGID_5_" d="M258.088,548.079c116.622,0,211.164-94.541,211.164-211.164c0-116.622-94.542-211.163-211.164-211.163
H700.72c-116.622,0-211.164,94.541-211.164,211.163c0,116.623,94.542,211.164,211.164,211.164H258.088z"></path>
</defs>
<clipPath id="SVGID_6_">
<use xlink:href="#SVGID_5_" overflow="visible"></use>
</clipPath>
<path id="varm_2_" clip-path="url(#SVGID_6_)" fill="#FF0000" d="M367.732,487.167c0-61.676,49.997-111.674,111.673-111.674
c61.675,0,111.672,49.998,111.672,111.674V186.665c0,61.675-49.997,111.672-111.672,111.672
c-61.676,0-111.673-49.997-111.673-111.672V487.167z"></path>
</g>
<g>
<defs>
<path id="SVGID_7_" d="M268.241,115.6c0,116.623,94.54,211.164,211.164,211.164c116.622,0,211.163-94.541,211.163-211.164v442.632
c0-116.623-94.541-211.164-211.163-211.164c-116.624,0-211.164,94.541-211.164,211.164V115.6z"></path>
</defs>
<clipPath id="SVGID_8_">
<use xlink:href="#SVGID_7_" overflow="visible"></use>
</clipPath>
<path id="varm_3_" clip-path="url(#SVGID_8_)" fill="#FF0000" d="M329.154,225.243c61.675,0,111.672,49.998,111.672,111.672
c0,61.676-49.997,111.673-111.672,111.673h300.502c-61.676,0-111.674-49.997-111.674-111.673
c0-61.675,49.998-111.672,111.674-111.672H329.154z"></path>
</g>
<g>
<defs>
<path id="SVGID_9_" d="M258.088,302.194c116.622,0,211.164-94.541,211.164-211.163c0-116.623-94.542-211.163-211.164-211.163
H700.72c-116.622,0-211.164,94.54-211.164,211.163c0,116.622,94.542,211.163,211.164,211.163H258.088z"></path>
</defs>
<clipPath id="SVGID_10_">
<use xlink:href="#SVGID_9_" overflow="visible"></use>
</clipPath>
<path id="varm_4_" clip-path="url(#SVGID_10_)" fill="#FF0000" d="M367.732,241.281c0-61.675,49.997-111.672,111.673-111.672
c61.675,0,111.672,49.998,111.672,111.672V-59.22c0,61.675-49.997,111.673-111.672,111.673
c-61.676,0-111.673-49.999-111.673-111.673V241.281z"></path>
</g>
<g>
<defs>
<path id="SVGID_11_" d="M268.241-130.284c0,116.623,94.54,211.164,211.164,211.164c116.622,0,211.163-94.542,211.163-211.164
v442.631c0-116.622-94.541-211.164-211.163-211.164c-116.624,0-211.164,94.542-211.164,211.164V-130.284z"></path>
</defs>
<clipPath id="SVGID_12_">
<use xlink:href="#SVGID_11_" overflow="visible"></use>
</clipPath>
<path id="varm_5_" clip-path="url(#SVGID_12_)" fill="#FF0000" d="M329.154-20.642c61.675,0,111.672,49.999,111.672,111.673
c0,61.675-49.997,111.673-111.672,111.673h300.502c-61.676,0-111.674-49.998-111.674-111.673
c0-61.675,49.998-111.673,111.674-111.673H329.154z"></path>
</g>
<g>
<defs>
<path id="SVGID_13_" d="M-89.317,548.079c116.622,0,211.164-94.541,211.164-211.164c0-116.622-94.542-211.163-211.164-211.163
h442.632c-116.623,0-211.164,94.541-211.164,211.163c0,116.623,94.541,211.164,211.164,211.164H-89.317z"></path>
</defs>
<clipPath id="SVGID_14_">
<use xlink:href="#SVGID_13_" overflow="visible"></use>
</clipPath>
<path id="varm_6_" clip-path="url(#SVGID_14_)" fill="#FF0000" d="M20.326,487.167c0-61.676,49.998-111.674,111.672-111.674
c61.676,0,111.673,49.998,111.673,111.674V186.665c0,61.675-49.998,111.672-111.673,111.672
c-61.675,0-111.672-49.997-111.672-111.672V487.167z"></path>
</g>
<g>
<defs>
<path id="SVGID_15_" d="M-79.164,115.6c0,116.623,94.541,211.164,211.163,211.164c116.624,0,211.163-94.541,211.163-211.164
v442.632c0-116.623-94.54-211.164-211.163-211.164c-116.622,0-211.163,94.541-211.163,211.164V115.6z"></path>
</defs>
<clipPath id="SVGID_16_">
<use xlink:href="#SVGID_15_" overflow="visible"></use>
</clipPath>
<path id="varm_7_" clip-path="url(#SVGID_16_)" fill="#FF0000" d="M-18.252,225.243c61.676,0,111.673,49.998,111.673,111.672
c0,61.676-49.998,111.673-111.673,111.673H282.25c-61.675,0-111.672-49.997-111.672-111.673
c0-61.675,49.998-111.672,111.672-111.672H-18.252z"></path>
</g></svg>