<svg version="1.0" id="Ebene_2" xmlns="http://www.w3.org/2000/svg" xmlns:xlink="http://www.w3.org/1999/xlink" x="0px" y="0px" viewBox="0 0 60 42" enable-background="new 0 0 60 42" xml:space="preserve">
<g>
<rect fill="#FFFFFF" width="60" height="42"></rect>
<rect fill="#0038B8" width="60" height="8"></rect>
<rect y="34" fill="#0038B8" width="60" height="8"></rect>
<polygon fill="#0038B8" points="20.196,27 30.013,9.964 39.829,27 	"></polygon>
<polygon fill="#0038B8" points="20.182,15 39.818,15 29.945,31.986 	"></polygon>
<polygon fill="#FFFFFF" points="30.007,12.883 28.813,15 31.2,15 	"></polygon>
<polygon fill="#FFFFFF" points="23.236,17 25.745,17 24.491,19.126 	"></polygon>
<polygon fill="#FFFFFF" points="34.255,17 36.764,17 35.509,19.126 	"></polygon>
<polygon fill="#FFFFFF" points="24.491,22.883 23.297,25 25.685,25 	"></polygon>
<polygon fill="#FFFFFF" points="35.509,22.883 34.315,25 36.702,25 	"></polygon>
<polygon fill="#FFFFFF" points="28.8,27 31.31,27 30.055,29.127 	"></polygon>
<polygon fill="#FFFFFF" points="27.818,17 32.182,17 34.366,20.898 32.212,25 27.818,25 25.562,21.036 	"></polygon>
</g></svg>