<svg version="1.0" id="Ebene_2" xmlns="http://www.w3.org/2000/svg" xmlns:xlink="http://www.w3.org/1999/xlink" x="0px" y="0px" viewBox="0 0 60 42" enable-background="new 0 0 60 42" xml:space="preserve">
<g>
<rect fill="#CC092F" width="60" height="42"></rect>
<rect fill="#FFD200" width="40" height="42"></rect>
<rect fill="#0046AE" width="20" height="42"></rect>
<path d="M28.256,12.108c-0.107,0-0.201,0.027-0.256,0.07c0.087,0.025,0.151,0.105,0.151,0.203v0.247h-0.248
c-0.097,0-0.177-0.062-0.203-0.148c-0.042,0.055-0.07,0.149-0.07,0.256c0,0.108,0.028,0.202,0.07,0.256
c0.025-0.087,0.105-0.15,0.203-0.15h0.248v1.189c0,0.093-0.059,0.171-0.14,0.199c0.118,0.016,0.22,0.175,0.248,0.261
c0.028-0.086,0.129-0.245,0.247-0.261c-0.083-0.028-0.142-0.105-0.142-0.199v-1.189h0.248c0.097,0,0.177,0.062,0.203,0.148
c0.043-0.055,0.071-0.149,0.071-0.256s-0.028-0.201-0.071-0.256c-0.025,0.087-0.105,0.15-0.203,0.15h-0.248v-0.247
c0-0.097,0.062-0.177,0.148-0.204C28.458,12.135,28.364,12.108,28.256,12.108L28.256,12.108z"></path>
<path fill="#F5D402" d="M28.256,12.159c-0.056,0-0.105,0.011-0.146,0.024c0.055,0.048,0.092,0.118,0.092,0.198v0.248
c0,0.003,0,0.006-0.001,0.01v0.039h-0.04c-0.003,0.001-0.006,0.002-0.01,0.002h-0.248c-0.079,0-0.148-0.036-0.196-0.09
c-0.014,0.042-0.026,0.09-0.026,0.147c0,0.056,0.011,0.105,0.024,0.146c0.048-0.055,0.118-0.092,0.198-0.092h0.298
c0,0.005-0.002,0.01-0.002,0.015v0.025c0,0.003,0.002,0.007,0.002,0.01v1.189c0,0.077-0.04,0.138-0.092,0.186
c0.038,0.023,0.069,0.052,0.097,0.085c0.025,0.029,0.035,0.059,0.052,0.089c0.017-0.03,0.026-0.06,0.051-0.089
c0.027-0.033,0.06-0.061,0.096-0.083c-0.053-0.048-0.092-0.11-0.092-0.188v-1.239h0.042c0.002-0.001,0.006-0.002,0.01-0.002h0.248
c0.079,0,0.148,0.036,0.196,0.091c0.014-0.042,0.026-0.09,0.026-0.147c0-0.056-0.01-0.105-0.024-0.147
c-0.048,0.056-0.118,0.092-0.198,0.092h-0.248c-0.004,0-0.007-0.001-0.01-0.002h-0.04v-0.039c0-0.003-0.001-0.006-0.001-0.01
v-0.247c0-0.079,0.037-0.148,0.091-0.197C28.361,12.171,28.313,12.159,28.256,12.159"></path>
<path d="M31.354,16.466c-0.151-0.107-0.275-0.229-0.363-0.371c-0.213-0.34-0.302-0.759-0.302-1.184c0-0.18,0.201-0.382,0.201-0.527
c0-0.22-0.02-0.352-0.02-0.352c0.071,0.01,0.196,0.137,0.196,0.137s-0.005-0.365-0.12-0.428c0,0,0.047-0.048,0.215-0.053
c-0.048-0.12-0.282-0.267-0.282-0.267c0.012-0.021,0.034-0.039,0.062-0.054c0.059-0.033,0.142-0.054,0.205-0.067
c-0.067-0.014-0.146-0.036-0.23-0.063c-0.194-0.063-0.424-0.157-0.638-0.26c-0.391-0.188-0.689-0.199-0.853-0.199
c-0.119,0-0.295,0.003-0.397,0.071c-0.094,0.063-0.086,0.144-0.12,0.173c-0.078,0.067-0.211,0.064-0.274,0.064
c-0.415,0-0.431,0.444-0.431,0.444s0.106-0.16,0.294-0.16c0.312,0,0.547,0.169,0.547,0.233c0,0.026-0.032,0.031-0.034,0.031
c-0.204,0-0.511-0.117-0.674-0.123v0.08c0.364,0.127,0.734,0.307,0.734,1.097c0,0.499-0.06,1.007-0.309,1.406
c-0.088,0.142-0.214,0.263-0.365,0.371l1.479,0.267L31.354,16.466z"></path>
<path d="M29.874,16.133l-1.479,0.333c-0.068-0.02-0.384-0.119-0.606-0.242c-0.391-0.218-0.593-0.435-1.058-0.456v-0.354
c0-0.188,0.068-0.359,0.068-0.539c-0.195-0.053-0.739-0.717-1.24-1.012c-0.738,0.478-1.309,1.262-1.309,1.623
c0,0,0.022,7.75,0,10.451c0,0.155-0.094,0.375-0.094,0.375c0.27-0.113,0.763-0.79,0.867-1.046v0.123
c0.407-0.186,0.705-0.673,0.838-0.925c0.002,0.036,0.008,0.128,0.008,0.128c0.363-0.318,0.826-2.202,0.826-2.202l0.771,0.758
c0,0-0.279,0.566-0.387,0.668c0,0,0.073,0.009,0.155,0.008c-0.05,0.073-0.438,0.631-0.559,0.842
c-0.114,0.196-0.194,0.109-0.369,0.109c-0.145,0-0.474,0.23-0.527,0.323c-0.057,0.099-0.099,0.218-0.099,0.316
c0,0.107,0.114,0.256,0.114,0.256c0.013-0.052,0.034-0.07,0.034-0.07s0.3,0.374,0.345,0.423c0.034,0.039,0.188,0.063,0.242,0.015
c0.136-0.124,0.267-0.21,0.387-0.388c0.062-0.092,0.067-0.196,0.139-0.296c0.239-0.329,0.714-0.96,0.823-1.104
c0.007,0.04,0.013,0.073,0.02,0.114c0.123-0.249,0.715-0.724,0.715-0.724l0.62,0.285c0,0-1.157,2.658-2.183,3.066
c0,0,0.446,0.189,0.995,0.475c0.08,0.042,0.163,0.086,0.246,0.132c0.069-0.084,0.142-0.176,0.213-0.271
c0.328-0.438,0.649-0.947,0.649-0.947c0.022,0.132-0.151,0.54-0.444,1.043c-0.058,0.099-0.118,0.201-0.184,0.307
c0.074,0.043,0.148,0.085,0.222,0.13c0.543,0.326,1.053,0.702,1.242,1.048l0.133-0.334l-0.133-0.334V16.576l0.066-0.167
L29.874,16.133z"></path>
<path fill="#B07F55" d="M29.874,28.24c-0.191-0.208-0.593-0.462-1.042-0.696c0.544-0.977,0.814-2.521,0.688-2.829
c0,0-0.224,0.802-0.497,1.258c-0.253,0.423-0.564,0.898-0.865,1.251c-0.248-0.105-0.488-0.194-0.693-0.256
c0.902-0.695,1.824-2.991,1.824-2.991l-0.953-0.442c0,0-0.356,0.416-0.473,0.493c0,0-0.049-0.206-0.079-0.279
c0,0-0.137,0.103-0.211,0.105c0,0-0.022-0.141-0.04-0.232c-0.094,0.063-0.25,0.05-0.25,0.05c0.137-0.064,0.3-0.465,0.3-0.465
l-0.91-1.21c0,0-0.32,1.537-0.685,1.853v-6.62l0.289,0.268l0.437-0.408v-0.311l-0.387,0.362v-0.937
c0.059-0.088,0.097-0.154,0.126-0.206c0.063,0.109,0.266,0.444,0.504,0.65c0.039-0.16,0.297-0.311,0.297-0.311
s0.092,0.25,0.234,0.312c0.049-0.088,0.346-0.282,0.346-0.282s-0.254,0.039-0.356,0.135c-0.089-0.02-0.111-0.369-0.111-0.369
s-0.374,0.182-0.438,0.312c-0.071-0.019-0.182-0.3-0.225-0.415c0.065-0.007,0.157-0.016,0.278-0.016
c0.107,0,0.243,0.051,0.386,0.118c0.157,0.074,0.321,0.167,0.468,0.233c0.188,0.085,0.472,0.102,0.554,0.106
c-0.095,0.067-0.199,0.127-0.312,0.184c0,0,0.447-0.004,0.761-0.16c0.112-0.072,0.228-0.144,0.327-0.229
c-0.042,0.12-0.11,0.262-0.215,0.382c0.461-0.039,0.691-0.302,0.756-0.391c0.031,0.079,0.085,0.206,0.17,0.316h0.167v11.333
L29.874,28.24z"></path>
<path fill="#B07F55" d="M26.475,14.91l0.008,0.211v0.623c-0.167-0.057-0.377-0.332-0.479-0.478v-0.085
c0-0.081,0.047-0.139,0.082-0.171l-0.101-0.036c-0.039,0.043-0.08,0.109-0.08,0.193v0.049l-0.3,0.323l-0.295-0.447v-0.109
c0-0.074,0.057-0.156,0.104-0.212l-0.099-0.036c-0.05,0.065-0.103,0.152-0.103,0.234v0.088c-0.069,0.072-0.339,0.35-0.339,0.35
s-0.136-0.292-0.172-0.37c0.207-0.287,0.542-0.607,0.858-0.837C25.559,14.201,26.244,14.83,26.475,14.91L26.475,14.91z"></path>
<path fill="#B07F55" d="M24.738,15.514v0.514l-0.239,0.222v-0.763c0-0.073,0.03-0.161,0.082-0.258L24.738,15.514z"></path>
<path fill="#B07F55" d="M25.481,15.712v0.317l-0.274,0.258v-0.993L25.481,15.712z"></path>
<path fill="#B07F55" d="M25.109,16.285l-0.275-0.256v-0.372l0.275-0.289V16.285z"></path>
<path fill="#B07F55" d="M26.364,15.899c-0.064,0.09-0.231,0.311-0.411,0.408v-0.872C25.994,15.504,26.184,15.812,26.364,15.899z"></path>
<path fill="#B07F55" d="M25.855,15.48v0.805l-0.274-0.256v-0.285L25.855,15.48z"></path>
<path fill="#B07F55" d="M24.737,16.338v0.804l-0.239-0.224v-0.356L24.737,16.338z"></path>
<path fill="#B07F55" d="M25.109,16.596v0.288l-0.275,0.256v-0.8L25.109,16.596z"></path>
<path fill="#B07F55" d="M25.481,16.34v0.801l-0.275-0.258v-0.285L25.481,16.34z"></path>
<path fill="#B07F55" d="M25.855,16.598v0.285l-0.274,0.257v-0.8L25.855,16.598z"></path>
<path fill="#B07F55" d="M26.227,17.142l-0.275-0.258v-0.268c0.095-0.058,0.19-0.164,0.275-0.276V17.142z"></path>
<path fill="#B07F55" d="M25.531,17.497l0.29-0.27v6.62c0,0,0.021,0.329,0.034,0.543c-0.129,0.131-0.614,0.622-0.614,0.622v-7.787
L25.531,17.497z"></path>
<path fill="#B07F55" d="M25.075,24.765c0,0.213-0.389,0.709-0.577,0.822v-8.358l0.287,0.268l0.29-0.27V24.765z"></path>
<path fill="#D10429" d="M27.485,24.046l0.211-0.145c0,0,0.014,0.07,0.033,0.166c-0.091,0.123-0.611,0.833-0.869,1.18
c-0.063,0.087-0.118,0.306-0.118,0.306s-0.094-0.044-0.094-0.124c0-0.079,0.01-0.172,0.01-0.172s-0.07,0.08-0.191,0.08
c0-0.098,0.188-0.202,0.195-0.34c-0.143,0.105-0.267,0.052-0.432,0.103c-0.18,0.055-0.229,0.13-0.285,0.128
c-0.033-0.002-0.062-0.059-0.049-0.093c0.021-0.059,0.244-0.225,0.399-0.254c0.038-0.008,0.331,0.063,0.389-0.027
c0.243-0.375,0.638-0.983,0.676-1.042c0.025-0.007,0.048-0.013,0.066-0.024C27.426,23.787,27.424,23.979,27.485,24.046
L27.485,24.046z"></path>
<path fill="#D10429" d="M26.124,25.215c0.012,0.014,0.011,0.034-0.001,0.044l-0.096,0.084c-0.013,0.012-0.033,0.009-0.044-0.005
s-0.011-0.033,0.002-0.045l0.095-0.083c0.006-0.005,0.014-0.008,0.022-0.007C26.11,25.204,26.118,25.208,26.124,25.215
L26.124,25.215z"></path>
<path fill="#D10429" d="M26.269,25.315c0.028,0.033,0.027,0.08-0.003,0.106l-0.232,0.203c-0.03,0.026-0.079,0.021-0.107-0.012
c-0.028-0.033-0.027-0.082,0.004-0.107l0.232-0.202c0.011-0.01,0.027-0.016,0.041-0.018C26.226,25.285,26.251,25.296,26.269,25.315
z"></path>
<path fill="#D10429" d="M26.402,25.473c0.029,0.033,0.027,0.079-0.003,0.106l-0.233,0.202c-0.03,0.027-0.077,0.021-0.106-0.012
c-0.029-0.032-0.027-0.081,0.003-0.107l0.232-0.201c0.011-0.01,0.025-0.017,0.039-0.017C26.357,25.442,26.384,25.452,26.402,25.473
L26.402,25.473z"></path>
<path fill="#D10429" d="M26.482,25.598c0.023-0.002,0.048,0.006,0.066,0.027c0.029,0.032,0.027,0.081-0.003,0.107l-0.232,0.201
c-0.03,0.026-0.077,0.021-0.105-0.013c-0.029-0.032-0.029-0.079,0.001-0.105l0.234-0.202
C26.454,25.604,26.468,25.599,26.482,25.598L26.482,25.598z"></path>
<path d="M29.873,16.133l1.479,0.333c0.068-0.02,0.385-0.119,0.606-0.242c0.391-0.218,0.594-0.435,1.059-0.456v-0.354
c0-0.188-0.068-0.359-0.068-0.539c0.195-0.053,0.739-0.717,1.24-1.012c0.737,0.478,1.309,1.262,1.309,1.623
c0,0-0.022,7.75,0,10.451c0,0.155,0.094,0.375,0.094,0.375c-0.27-0.113-0.763-0.79-0.867-1.046v0.123
c-0.406-0.186-0.704-0.673-0.838-0.925c-0.002,0.036-0.008,0.128-0.008,0.128c-0.363-0.318-0.826-2.202-0.826-2.202l-0.771,0.758
c0,0,0.278,0.566,0.387,0.668c0,0-0.072,0.009-0.154,0.008c0.05,0.073,0.438,0.631,0.559,0.842
c0.114,0.196,0.194,0.109,0.369,0.109c0.145,0,0.474,0.23,0.527,0.323c0.057,0.099,0.099,0.218,0.099,0.316
c0,0.107-0.114,0.256-0.114,0.256c-0.012-0.052-0.034-0.07-0.034-0.07s-0.3,0.374-0.345,0.423
c-0.034,0.039-0.188,0.063-0.242,0.015c-0.135-0.124-0.267-0.21-0.387-0.388c-0.062-0.092-0.067-0.196-0.139-0.296
c-0.239-0.329-0.714-0.96-0.823-1.104c-0.007,0.04-0.013,0.073-0.02,0.114c-0.123-0.249-0.715-0.724-0.715-0.724l-0.62,0.285
c0,0,1.157,2.658,2.182,3.066c0,0-0.446,0.189-0.994,0.475c-0.08,0.042-0.163,0.086-0.246,0.132
c-0.068-0.084-0.142-0.176-0.213-0.271c-0.328-0.438-0.649-0.947-0.649-0.947c-0.022,0.132,0.15,0.54,0.444,1.043
c0.058,0.099,0.117,0.201,0.184,0.307c-0.073,0.043-0.147,0.085-0.222,0.13c-0.542,0.326-1.053,0.702-1.242,1.048l-0.134-0.334
l0.134-0.334V16.576l-0.067-0.167L29.873,16.133z"></path>
<path fill="#B07F55" d="M29.874,28.24c0.191-0.208,0.592-0.462,1.042-0.696c-0.544-0.977-0.814-2.521-0.688-2.829
c0,0,0.224,0.802,0.497,1.258c0.253,0.423,0.564,0.898,0.866,1.251c0.246-0.105,0.487-0.194,0.692-0.256
c-0.902-0.695-1.824-2.991-1.824-2.991l0.953-0.442c0,0,0.356,0.416,0.473,0.493c0,0,0.05-0.206,0.079-0.279
c0,0,0.137,0.103,0.211,0.105c0,0,0.022-0.141,0.04-0.232c0.094,0.063,0.25,0.05,0.25,0.05c-0.137-0.064-0.3-0.465-0.3-0.465
l0.91-1.21c0,0,0.32,1.537,0.685,1.853v-6.62l-0.288,0.268l-0.438-0.408v-0.311l0.388,0.362v-0.937
c-0.059-0.088-0.097-0.154-0.126-0.206c-0.062,0.109-0.266,0.444-0.504,0.65c-0.039-0.16-0.296-0.311-0.296-0.311
s-0.093,0.25-0.234,0.312c-0.05-0.088-0.347-0.282-0.347-0.282s0.254,0.039,0.356,0.135c0.089-0.02,0.111-0.369,0.111-0.369
s0.374,0.182,0.438,0.312c0.071-0.019,0.183-0.3,0.226-0.415c-0.065-0.007-0.157-0.016-0.278-0.016
c-0.106,0-0.243,0.051-0.386,0.118c-0.157,0.074-0.321,0.167-0.468,0.233c-0.188,0.085-0.472,0.102-0.554,0.106
c0.095,0.067,0.198,0.127,0.312,0.184c0,0-0.446-0.004-0.761-0.16c-0.111-0.072-0.228-0.144-0.327-0.229
c0.042,0.12,0.11,0.262,0.215,0.382c-0.461-0.039-0.691-0.302-0.756-0.391c-0.031,0.079-0.085,0.206-0.17,0.316h-0.167v11.333
L29.874,28.24z"></path>
<path fill="#B07F55" d="M33.272,14.91l-0.01,0.211v0.623c0.168-0.057,0.379-0.332,0.48-0.478v-0.085
c0-0.081-0.048-0.139-0.082-0.171l0.101-0.036c0.038,0.043,0.08,0.109,0.08,0.193v0.049l0.3,0.323l0.296-0.447v-0.109
c0-0.074-0.057-0.156-0.104-0.212l0.1-0.036c0.05,0.065,0.103,0.152,0.103,0.234v0.088c0.068,0.072,0.339,0.35,0.339,0.35
s0.136-0.292,0.173-0.37c-0.207-0.287-0.543-0.607-0.858-0.837C34.188,14.201,33.503,14.83,33.272,14.91L33.272,14.91z"></path>
<path fill="#B07F55" d="M35.009,15.514v0.514l0.239,0.222v-0.763c0-0.073-0.03-0.161-0.082-0.258L35.009,15.514z"></path>
<path fill="#B07F55" d="M34.266,15.712v0.317l0.274,0.258v-0.993L34.266,15.712z"></path>
<path fill="#B07F55" d="M34.638,16.285l0.274-0.256v-0.372l-0.274-0.289V16.285z"></path>
<path fill="#B07F55" d="M33.383,15.899c0.063,0.09,0.231,0.311,0.411,0.408v-0.872C33.753,15.504,33.563,15.812,33.383,15.899z"></path>
<path fill="#B07F55" d="M33.892,15.48v0.805l0.274-0.256v-0.285L33.892,15.48z"></path>
<path fill="#B07F55" d="M35.009,16.338v0.804l0.239-0.224v-0.356L35.009,16.338z"></path>
<path fill="#B07F55" d="M34.638,16.596v0.288l0.274,0.256v-0.8L34.638,16.596z"></path>
<path fill="#B07F55" d="M34.266,16.34v0.801l0.274-0.258v-0.285L34.266,16.34z"></path>
<path fill="#B07F55" d="M33.892,16.598v0.285l0.274,0.257v-0.8L33.892,16.598z"></path>
<path fill="#B07F55" d="M33.52,17.142l0.275-0.258v-0.268c-0.095-0.058-0.19-0.164-0.275-0.276V17.142z"></path>
<path fill="#B07F55" d="M34.216,17.497l-0.29-0.27v6.62c0,0-0.021,0.329-0.034,0.543c0.129,0.131,0.614,0.622,0.614,0.622v-7.787
L34.216,17.497z"></path>
<path fill="#B07F55" d="M34.672,24.765c0,0.213,0.389,0.709,0.576,0.822v-8.358l-0.286,0.268l-0.29-0.27V24.765z"></path>
<path fill="#D10429" d="M32.262,24.046l-0.211-0.145c0,0-0.014,0.07-0.033,0.166c0.091,0.123,0.611,0.833,0.869,1.18
c0.063,0.087,0.117,0.306,0.117,0.306s0.095-0.044,0.095-0.124c0-0.079-0.011-0.172-0.011-0.172s0.07,0.08,0.191,0.08
c0-0.098-0.188-0.202-0.194-0.34c0.143,0.105,0.267,0.052,0.432,0.103c0.18,0.055,0.229,0.13,0.285,0.128
c0.032-0.002,0.062-0.059,0.05-0.093c-0.022-0.059-0.244-0.225-0.4-0.254c-0.037-0.008-0.33,0.063-0.389-0.027
c-0.243-0.375-0.638-0.983-0.676-1.042c-0.024-0.007-0.048-0.013-0.066-0.024C32.32,23.787,32.323,23.979,32.262,24.046
L32.262,24.046z"></path>
<path fill="#D10429" d="M33.623,25.215c-0.012,0.014-0.011,0.034,0.001,0.044l0.096,0.084c0.013,0.012,0.033,0.009,0.045-0.005
s0.011-0.033-0.002-0.045l-0.096-0.083c-0.006-0.005-0.014-0.008-0.022-0.007C33.637,25.204,33.629,25.208,33.623,25.215
L33.623,25.215z"></path>
<path fill="#D10429" d="M33.478,25.315c-0.028,0.033-0.026,0.08,0.004,0.106l0.231,0.203c0.031,0.026,0.079,0.021,0.108-0.012
c0.027-0.033,0.026-0.082-0.004-0.107l-0.232-0.202c-0.011-0.01-0.026-0.016-0.041-0.018
C33.521,25.285,33.495,25.296,33.478,25.315z"></path>
<path fill="#D10429" d="M33.345,25.473c-0.028,0.033-0.026,0.079,0.004,0.106l0.233,0.202c0.03,0.027,0.077,0.021,0.105-0.012
c0.029-0.032,0.027-0.081-0.003-0.107l-0.232-0.201c-0.011-0.01-0.025-0.017-0.039-0.017C33.39,25.442,33.363,25.452,33.345,25.473
L33.345,25.473z"></path>
<path fill="#D10429" d="M33.265,25.598c-0.023-0.002-0.049,0.006-0.066,0.027c-0.028,0.032-0.027,0.081,0.004,0.107l0.231,0.201
c0.03,0.026,0.077,0.021,0.105-0.013c0.029-0.032,0.029-0.079-0.001-0.105l-0.234-0.202C33.292,25.604,33.279,25.599,33.265,25.598
L33.265,25.598z"></path>
<path fill="#B07F55" d="M29.531,12.888c0.381,0,0.65,0.174,1.012,0.334c0.094,0.042,0.181,0.076,0.259,0.103
c-0.048,0.043-0.086,0.086-0.097,0.123c0,0,0.162,0.03,0.235,0.165c0,0-0.154,0.018-0.179,0.108
c0.086,0.006,0.171,0.115,0.172,0.22l-0.218-0.068c0,0,0.052,0.245,0.052,0.512c0,0.136-0.196,0.297-0.196,0.527
c0,0.725,0.183,1.003,0.312,1.227c0.051,0.088,0.092,0.188,0.177,0.265c-0.374-0.199-0.651-0.448-0.651-0.679v-0.875h-0.098v0.875
c0,0.167,0.041,0.246,0.041,0.246c0.059,0.186,0.177,0.472,0.251,0.587c-0.345-0.186-0.519-0.418-0.519-0.505v-1.203h-0.098v1.22
l0.019,0.083c-0.041,0.062-0.095,0.137-0.133,0.162c-0.037-0.025-0.089-0.1-0.131-0.162l0.019-0.083v-1.22h-0.097v1.203
c0,0.086-0.175,0.319-0.519,0.505c0.073-0.115,0.192-0.401,0.25-0.587c0,0,0.041-0.078,0.041-0.246v-0.875H29.34v0.875
c0,0.231-0.277,0.48-0.65,0.679c0.084-0.076,0.125-0.178,0.176-0.265c0.142-0.245,0.317-0.556,0.317-1.442
c0-0.333-0.049-0.559-0.135-0.717c-0.026-0.052-0.061-0.191,0.138-0.191c0.103,0,0.34,0.183,0.34,0.183s-0.01-0.146-0.13-0.229
c-0.02-0.014-0.052-0.057-0.052-0.097c0-0.03,0.051-0.104,0.092-0.123c0.027-0.012-0.407-0.088-0.407-0.285
c0-0.041,0.026-0.068,0.117-0.068c0.118,0,0.311,0.142,0.481,0.142c0.126,0,0.176-0.031,0.305-0.031
c0.158,0,0.488,0.299,0.601,0.289c-0.126-0.079-0.33-0.379-0.638-0.379c-0.107,0-0.204,0.024-0.304,0.024
c-0.127,0-0.254-0.118-0.392-0.118c-0.093,0-0.197,0.005-0.212-0.019c-0.026-0.042-0.002-0.066,0.022-0.101
c0.047-0.065,0.179-0.084,0.309-0.089c0.039-0.001,0.078-0.002,0.114-0.001S29.502,12.888,29.531,12.888L29.531,12.888z"></path>
<path fill="#CC092F" d="M28.291,13.356c0,0,0.081-0.153,0.285-0.153c0.085,0,0.366-0.006,0.366-0.006
c0.038,0.098,0.208,0.26,0.208,0.429c0,0-0.174-0.312-0.658-0.312C28.371,13.314,28.291,13.356,28.291,13.356L28.291,13.356z"></path>
<path fill="#D10429" d="M29.078,13.687c0,0-0.103,0.109-0.125,0.167c-0.102-0.039-0.28-0.222-0.28-0.222
S28.823,13.719,29.078,13.687L29.078,13.687z"></path>
<path d="M28.915,13.399c0,0-0.119-0.038-0.119-0.078c0-0.051,0.057-0.051,0.092-0.012C28.912,13.337,28.915,13.399,28.915,13.399
L28.915,13.399z"></path>
<ellipse cx="29.427" cy="13.402" rx="0.17" ry="0.135"></ellipse>
<circle fill="#F5D402" cx="29.427" cy="13.402" r="0.119"></circle>
<circle cx="29.427" cy="13.402" r="0.05"></circle>
<polygon points="26.712,25.731 27.252,26.026 27.121,26.627 26.582,26.333 	"></polygon>
<polygon points="24.197,19.958 24.002,20.046 26.2,24.86 26.434,24.86 	"></polygon>
<polygon points="26.789,25.635 26.63,25.799 26.729,26.018 26.922,25.929 	"></polygon>
<path d="M24.88,23.753c0,0,0.185,0.383,0.326,0.436c-0.073-0.021-0.309,0.066-0.309,0.066s0.417,0.372,0.77,0.396
c0.3,0.021,0.445-0.129,0.445-0.129l-0.06-0.317c0,0-0.184-0.221-0.477-0.323C25.278,23.778,24.88,23.753,24.88,23.753
L24.88,23.753z"></path>
<path d="M26.275,23.068c0,0-0.255,0.219-0.326,0.472c-0.07,0.254,0.046,0.542,0.046,0.542l0.215,0.4c0,0,0.297-0.158,0.424-0.396
c0.126-0.236,0.08-0.557,0.08-0.557s-0.235,0.088-0.266,0.127C26.499,23.395,26.275,23.068,26.275,23.068L26.275,23.068z"></path>
<path d="M25.454,22.966c0,0-0.291,0.099-0.573,0.081c-0.269-0.016-0.493-0.241-0.493-0.241s0.224-0.151,0.333-0.132
c-0.121-0.044-0.297-0.347-0.297-0.347s0.25-0.076,0.471,0.008s0.414,0.325,0.414,0.325L25.454,22.966L25.454,22.966z"></path>
<path d="M25.554,21.546c0,0,0.145,0.301,0.111,0.406c0.045-0.07,0.216-0.178,0.216-0.178s0.103,0.487,0.004,0.789
c-0.099,0.301-0.399,0.415-0.399,0.415l-0.332-0.645c0,0-0.049-0.238,0.054-0.428C25.312,21.716,25.554,21.546,25.554,21.546
L25.554,21.546z"></path>
<path d="M23.662,20.749c0,0,0.314-0.033,0.602,0.086c0.24,0.1,0.314,0.281,0.314,0.281l0.119,0.317c0,0-0.342,0.128-0.612,0.03
c-0.271-0.098-0.469-0.423-0.469-0.423s0.188-0.072,0.261-0.045C23.771,20.95,23.662,20.749,23.662,20.749L23.662,20.749
L23.662,20.749z"></path>
<path d="M24.65,20.16c0,0,0.138,0.177,0.142,0.38c0.037-0.108,0.209-0.228,0.209-0.228s0.177,0.428,0.138,0.733
c-0.039,0.304-0.294,0.484-0.294,0.484l-0.317-0.603c0,0-0.104-0.247-0.073-0.439C24.485,20.296,24.65,20.16,24.65,20.16
L24.65,20.16z"></path>
<path d="M23.562,19.007c0,0-0.057,0.329,0.04,0.518c0.086,0.169,0.142,0.206,0.142,0.206c-0.165-0.109-0.415-0.118-0.415-0.118
s0.088,0.357,0.301,0.521c0.212,0.163,0.54,0.125,0.54,0.125s0.215-0.287,0.201-0.596c-0.015-0.309-0.261-0.64-0.261-0.64
s-0.097,0.2-0.105,0.35C23.942,19.218,23.562,19.007,23.562,19.007L23.562,19.007z"></path>
<path d="M26.128,24.509l0.009,0.118c0.196,0.002,0.226-0.018,0.275,0.044c0.033,0.041,0.113,0.077,0.193,0.041
c0.08-0.037,0.116-0.133,0.079-0.213s-0.111-0.097-0.183-0.083c-0.044,0.008-0.073,0.044-0.11,0.062
C26.321,24.516,26.128,24.51,26.128,24.509L26.128,24.509z"></path>
<path d="M26.111,24.419l0.096,0.07c-0.103,0.167-0.134,0.182-0.108,0.257c0.017,0.05,0.005,0.137-0.068,0.185
c-0.073,0.049-0.174,0.028-0.222-0.045c-0.049-0.073-0.024-0.146,0.026-0.199c0.031-0.033,0.076-0.038,0.112-0.06
C26.015,24.586,26.111,24.419,26.111,24.419L26.111,24.419z"></path>
<path d="M25.448,23.019l0.009,0.118c0.196,0.002,0.225-0.018,0.275,0.045c0.033,0.041,0.113,0.076,0.193,0.04
c0.08-0.037,0.116-0.133,0.079-0.213c-0.036-0.08-0.111-0.098-0.182-0.083c-0.044,0.009-0.073,0.043-0.11,0.062
C25.641,23.025,25.448,23.019,25.448,23.019L25.448,23.019z"></path>
<path d="M25.488,23.061l0.083,0.084c-0.127,0.149-0.161,0.159-0.147,0.237c0.009,0.052-0.016,0.136-0.096,0.172
c-0.08,0.036-0.176,0.001-0.213-0.079c-0.036-0.08,0-0.147,0.057-0.192c0.035-0.027,0.081-0.026,0.12-0.042
C25.367,23.211,25.488,23.061,25.488,23.061L25.488,23.061z"></path>
<path d="M24.789,21.624l0.009,0.118c0.196,0.001,0.225-0.018,0.275,0.044c0.033,0.041,0.113,0.077,0.193,0.041
c0.08-0.037,0.116-0.133,0.079-0.213c-0.037-0.08-0.111-0.097-0.182-0.083c-0.044,0.009-0.073,0.043-0.11,0.063
C24.981,21.63,24.789,21.624,24.789,21.624L24.789,21.624z"></path>
<path d="M24.843,21.599l0.083,0.084c-0.127,0.15-0.161,0.158-0.147,0.237c0.009,0.052-0.016,0.136-0.096,0.173
c-0.08,0.036-0.176,0-0.212-0.08c-0.036-0.08,0-0.147,0.057-0.192c0.035-0.027,0.081-0.026,0.12-0.042
C24.722,21.749,24.843,21.599,24.843,21.599L24.843,21.599z"></path>
<path d="M24.086,20.151l0.009,0.118c0.196,0.001,0.225-0.018,0.275,0.044c0.034,0.041,0.113,0.077,0.193,0.04
c0.08-0.037,0.116-0.132,0.08-0.212s-0.111-0.097-0.183-0.083c-0.044,0.009-0.073,0.044-0.11,0.063
C24.279,20.158,24.086,20.151,24.086,20.151L24.086,20.151z"></path>
<path d="M24.141,20.126l0.083,0.084c-0.127,0.149-0.161,0.158-0.147,0.237c0.009,0.052-0.016,0.135-0.096,0.172
s-0.176,0.001-0.212-0.079s-0.001-0.148,0.057-0.192c0.035-0.027,0.081-0.026,0.12-0.042C24.02,20.277,24.141,20.126,24.141,20.126
L24.141,20.126z"></path>
<polygon fill="#F5D402" points="26.791,25.902 27.125,26.085 27.044,26.458 26.709,26.274 	"></polygon>
<path fill="#F5D402" d="M25.324,22.67c-0.07,0.029-0.175-0.277-0.251-0.444c-0.079-0.172-0.238-0.437-0.192-0.457
c0.049-0.023,0.115,0.116,0.195,0.292C25.156,22.236,25.39,22.642,25.324,22.67L25.324,22.67z"></path>
<path fill="#F5D402" d="M24.603,21.06c-0.07,0.029-0.147-0.171-0.224-0.338c-0.078-0.172-0.155-0.293-0.109-0.314
c0.049-0.022,0.123,0.128,0.188,0.269C24.52,20.812,24.668,21.033,24.603,21.06L24.603,21.06z"></path>
<path fill="#F5D402" d="M26.271,24.71c-0.055,0.015-0.295-0.488-0.49-0.915c-0.194-0.426-0.339-0.771-0.294-0.791
c0.05-0.022,0.207,0.38,0.402,0.806C26.083,24.235,26.312,24.698,26.271,24.71L26.271,24.71z"></path>
<path fill="#097754" d="M23.659,19.206c0,0-0.008,0.24,0.071,0.376c0.08,0.136,0.257,0.19,0.257,0.19s0.008-0.24-0.071-0.376
C23.836,19.261,23.659,19.206,23.659,19.206z"></path>
<path fill="#097754" d="M23.493,19.75c0,0,0.208,0.012,0.329,0.104c0.121,0.092,0.167,0.285,0.167,0.285s-0.138,0.014-0.259-0.079
C23.61,19.968,23.493,19.75,23.493,19.75z"></path>
<path fill="#097754" d="M24.147,19.265c0,0-0.069,0.159-0.062,0.331c0.008,0.171,0.108,0.364,0.108,0.364s0.09-0.206,0.083-0.377
C24.268,19.411,24.171,19.313,24.147,19.265L24.147,19.265z"></path>
<path fill="#097754" d="M23.796,20.81c0,0,0.103,0.143,0.26,0.221c0.158,0.078,0.393,0.081,0.393,0.081s-0.117-0.152-0.275-0.23
C24.016,20.804,23.796,20.81,23.796,20.81L23.796,20.81z"></path>
<path fill="#097754" d="M23.847,21.142c0,0,0.075,0.147,0.213,0.21s0.419,0.058,0.419,0.058s-0.108-0.138-0.246-0.201
C24.095,21.146,23.847,21.142,23.847,21.142L23.847,21.142z"></path>
<path fill="#097754" d="M24.639,20.356c0,0-0.083,0.138-0.075,0.289s0.107,0.317,0.107,0.317s0.07-0.189,0.062-0.341
C24.725,20.469,24.639,20.356,24.639,20.356L24.639,20.356z"></path>
<path fill="#097754" d="M24.945,20.55c0,0-0.143,0.191-0.163,0.387c-0.021,0.196,0.081,0.398,0.081,0.398s0.172-0.173,0.192-0.369
C25.076,20.771,24.945,20.55,24.945,20.55L24.945,20.55z"></path>
<path fill="#097754" d="M24.553,22.363c0,0,0.017,0.071,0.077,0.146c0.06,0.074,0.161,0.154,0.161,0.154s0.099-0.032,0.221-0.005
c0.123,0.026,0.285,0.135,0.285,0.135s-0.175-0.261-0.356-0.362C24.758,22.329,24.553,22.363,24.553,22.363L24.553,22.363z"></path>
<path fill="#097754" d="M24.535,22.812c0,0,0.226-0.097,0.413-0.071c0.186,0.024,0.354,0.172,0.354,0.172S25.051,23,24.864,22.976
C24.677,22.95,24.535,22.812,24.535,22.812L24.535,22.812z"></path>
<path fill="#097754" d="M25.492,21.76c0,0-0.2,0.212-0.217,0.396c-0.017,0.184,0.163,0.355,0.163,0.355s-0.009-0.118,0.022-0.196
c0.031-0.077,0.097-0.16,0.097-0.16s0.028-0.095,0.017-0.171C25.558,21.877,25.492,21.76,25.492,21.76L25.492,21.76z"></path>
<path fill="#097754" d="M25.779,22.006c0,0-0.189,0.19-0.239,0.395c-0.05,0.205,0.039,0.423,0.039,0.423s0.172-0.135,0.222-0.34
C25.851,22.279,25.779,22.006,25.779,22.006L25.779,22.006z"></path>
<path fill="#097754" d="M26.252,23.237c0,0,0.085,0.179,0.107,0.328c0.021,0.149,0.001,0.201,0.001,0.201s-0.088,0.087-0.128,0.138
c-0.051,0.065-0.059,0.187-0.059,0.187s-0.178-0.265-0.15-0.457C26.052,23.44,26.252,23.237,26.252,23.237L26.252,23.237z"></path>
<path fill="#097754" d="M26.626,23.65c0,0-0.228,0.151-0.317,0.305c-0.09,0.154-0.043,0.312-0.043,0.312s0.162-0.014,0.252-0.168
C26.607,23.944,26.626,23.65,26.626,23.65L26.626,23.65z"></path>
<path fill="#097754" d="M25.132,24.285c0,0,0.328-0.009,0.528,0.04c0.201,0.05,0.273,0.157,0.273,0.157s-0.225,0.105-0.425,0.056
C25.308,24.489,25.132,24.285,25.132,24.285L25.132,24.285z"></path>
<path fill="#097754" d="M25.078,23.896c0,0,0.147,0.229,0.338,0.312c0.263,0.114,0.568,0.059,0.568,0.059s-0.166-0.203-0.394-0.293
C25.363,23.886,25.078,23.896,25.078,23.896L25.078,23.896z"></path>
<path d="M36.291,19.398l0.043,0.09c0,0-0.069,0.024-0.101,0.085c-0.031,0.062,0.021,0.149,0.021,0.149s-0.36-0.032-0.416,0.005
c-0.051,0.033,0.021,0.282-0.013,0.493c-0.047,0.293-0.162,0.269-0.167,0.326c-0.005,0.055,0.044,0.142,0.044,0.142
s-0.067,0.021-0.081,0.05c-0.023,0.045,0.016,0.129-0.012,0.184c-0.157,0.308-0.389,0.761-0.542,1.062
c-0.021,0.042-0.078,0.058-0.107,0.114c-0.026,0.052-0.005,0.128-0.005,0.128s-0.102,0.006-0.137,0.075
c-0.037,0.073-0.015,0.173-0.015,0.173s-0.064,0.008-0.096,0.069c-0.034,0.066,0.022,0.101,0.008,0.13
c-0.205,0.403-0.447,0.879-0.596,1.169c-0.054,0.106-0.244,0.128-0.354,0.345c-0.107,0.21,0.047,0.365,0.047,0.365
s-0.159,0.014-0.202,0.097c-0.043,0.085-0.009,0.213,0.106,0.271c0.114,0.059,0.239,0.012,0.283-0.073
c0.042-0.083-0.043-0.22-0.043-0.22s0.215,0.031,0.322-0.18c0.11-0.216,0.018-0.381,0.072-0.487c0.147-0.29,0.39-0.767,0.596-1.169
c0.015-0.029,0.075-0.005,0.108-0.071c0.031-0.061,0-0.117,0-0.117s0.095-0.041,0.131-0.114c0.036-0.068-0.018-0.154-0.018-0.154
s0.074-0.026,0.101-0.079c0.028-0.057,0.008-0.112,0.028-0.154c0.153-0.3,0.385-0.753,0.541-1.061
c0.028-0.055,0.119-0.074,0.142-0.12c0.015-0.028-0.008-0.095-0.008-0.095s0.1-0.01,0.142-0.046
c0.043-0.037-0.045-0.117,0.165-0.327c0.15-0.151,0.395-0.24,0.391-0.3c-0.004-0.067-0.24-0.34-0.24-0.34s0.1-0.008,0.132-0.07
c0.031-0.062,0.01-0.133,0.01-0.133l0.099-0.017v-0.469L36.291,19.398z"></path>
<path d="M33.021,25.934c-0.016,0.029-0.019,0.069,0,0.104c0,0-0.12-0.037-0.16-0.018c-0.039,0.02,0,0.582,0,0.582
s0.476-0.301,0.469-0.343c-0.008-0.045-0.107-0.121-0.107-0.121c0.039-0.006,0.068-0.03,0.083-0.06
c0.017-0.031,0.019-0.119-0.09-0.174c-0.041-0.021-0.076-0.027-0.105-0.024C33.061,25.886,33.03,25.915,33.021,25.934
L33.021,25.934z"></path>
<path fill="#F5D402" d="M36.378,19.417l0.225,0.114l-0.002-0.271L36.378,19.417z"></path>
<path fill="#F5D402" d="M36.291,19.581c-0.029,0.057-0.001,0.129,0.062,0.162c0.064,0.032,0.139,0.012,0.168-0.044
s0.001-0.13-0.062-0.162c-0.024-0.012-0.05-0.017-0.074-0.016C36.345,19.524,36.31,19.545,36.291,19.581L36.291,19.581z"></path>
<path fill="#F5D402" d="M35.904,19.787c-0.024,0.016,0.008,0.219,0.001,0.391c-0.006,0.163-0.059,0.209-0.087,0.265
c-0.026,0.051-0.121,0.112-0.121,0.112l0.078,0.079c0,0,0.051-0.08,0.132-0.237c0.095-0.186,0.092-0.523,0.119-0.541
c0.024-0.016,0.223-0.064,0.223-0.064s-0.182-0.01-0.282-0.009C35.934,19.782,35.909,19.784,35.904,19.787z"></path>
<path fill="#F5D402" d="M35.924,20.724c0,0,0.027-0.073,0.118-0.252c0.11-0.217,0.346-0.374,0.352-0.413
c0.006-0.041-0.082-0.23-0.082-0.23s-0.208,0.04-0.237,0.068c-0.028,0.027-0.016,0.309-0.126,0.525
c-0.092,0.18-0.137,0.246-0.137,0.246L35.924,20.724z"></path>
<path fill="#F5D402" d="M36.455,20.074c0.001,0.033-0.272,0.229-0.367,0.415c-0.08,0.158-0.114,0.246-0.114,0.246l0.109,0.017
c0,0-0.008-0.112,0.019-0.164c0.028-0.056,0.036-0.125,0.164-0.226c0.136-0.107,0.319-0.2,0.317-0.229
c-0.002-0.026-0.205-0.278-0.205-0.278S36.454,20.045,36.455,20.074L36.455,20.074z"></path>
<path fill="#F5D402" d="M35.653,21.291c0.164-0.323,0.215-0.345,0.235-0.385c0.022-0.044,0.017-0.103-0.057-0.14
c-0.027-0.014-0.051-0.018-0.071-0.015c-0.034,0.003-0.06,0.025-0.073,0.053c-0.021,0.041-0.01,0.095-0.174,0.418l-0.374,0.732
c0,0-0.039,0.072,0.034,0.109c0.073,0.038,0.105-0.037,0.105-0.037L35.653,21.291z"></path>
<path fill="#F5D402" d="M34.993,22.13c-0.021,0.041,0.014,0.1,0.078,0.132c0.064,0.033,0.133,0.026,0.153-0.014
s-0.016-0.099-0.08-0.131c-0.032-0.017-0.064-0.023-0.092-0.021C35.024,22.099,35.003,22.11,34.993,22.13z"></path>
<path fill="#F5D402" d="M34.854,22.339c-0.026,0.052,0.015,0.126,0.092,0.165s0.162,0.029,0.188-0.022
c0.026-0.052-0.015-0.125-0.092-0.165c-0.028-0.015-0.058-0.023-0.085-0.023C34.911,22.29,34.871,22.306,34.854,22.339
L34.854,22.339z"></path>
<path fill="#F5D402" d="M34.767,22.571c-0.02,0.039,0.015,0.098,0.079,0.131c0.064,0.032,0.134,0.026,0.153-0.014
c0.021-0.04-0.015-0.1-0.078-0.132c-0.032-0.017-0.066-0.022-0.094-0.021C34.8,22.539,34.777,22.551,34.767,22.571L34.767,22.571z"></path>
<path fill="#F5D402" d="M34.711,22.793c0,0-0.415,0.815-0.562,1.104c-0.047,0.092-0.243,0.149-0.32,0.301
c-0.078,0.151-0.023,0.295,0.078,0.347c0.102,0.051,0.25,0.014,0.327-0.14c0.078-0.151,0.008-0.344,0.055-0.437
c0.146-0.287,0.562-1.104,0.562-1.104s0.041-0.072-0.032-0.109c-0.018-0.01-0.034-0.011-0.048-0.008
C34.73,22.752,34.711,22.793,34.711,22.793z"></path>
<path fill="#F5D402" d="M33.661,24.688c-0.031,0.062,0.005,0.143,0.08,0.182c0.076,0.038,0.164,0.02,0.195-0.041
c0.03-0.061-0.007-0.143-0.083-0.181c-0.027-0.015-0.057-0.021-0.085-0.021C33.722,24.628,33.681,24.65,33.661,24.688
L33.661,24.688z"></path>
<path fill="#F5D402" d="M33.108,25.936c-0.023,0.001-0.043,0.009-0.051,0.024c-0.017,0.031,0.017,0.08,0.073,0.109
c0.057,0.028,0.115,0.025,0.132-0.006c0.015-0.031-0.018-0.08-0.074-0.108C33.16,25.94,33.132,25.936,33.108,25.936L33.108,25.936z
"></path>
<path fill="#F5D402" d="M32.914,26.089v0.403l0.327-0.235c0,0-0.044-0.079-0.142-0.129C33.003,26.079,32.914,26.089,32.914,26.089
L32.914,26.089z"></path>
<path fill="#F5D402" d="M33.121,17.12c0-0.221,0.291-0.438,0.291-0.438h-7.076c0,0,0.29,0.217,0.29,0.438v5.266
c0,0.139,0.043,0.229,0.111,0.317c0.068,0.095,0.213,0.227,0.363,0.324c0.464,0.303,1.242,0.62,1.83,0.888
c0.49,0.223,0.689,0.312,0.943,0.628c0.255-0.315,0.457-0.405,0.946-0.628c0.587-0.268,1.364-0.585,1.829-0.888
c0.15-0.098,0.296-0.229,0.363-0.324c0.068-0.088,0.109-0.179,0.109-0.317V17.12z"></path>
<path fill="#D10429" d="M26.794,20.1V17.12c0-0.169-0.085-0.271-0.085-0.271h6.332c0,0-0.086,0.103-0.086,0.271l0.002,2.979
l-3.081,0.933L26.794,20.1z"></path>
<path fill="#0B45BB" d="M32.956,20.1l-1.907-0.036h-2.347L26.794,20.1v2.286c0,0.115,0.12,0.385,0.807,0.728
c1.137,0.566,2.011,0.831,2.273,1.153c0.262-0.322,1.135-0.587,2.273-1.153c0.688-0.343,0.807-0.612,0.807-0.728L32.956,20.1z"></path>
<path d="M31.002,19.98c0,0,1.101-0.277,1.101-1.454c0-0.919-1.103-1.375-1.134-1.594c-0.108,0.379,0.369,0.903,0.369,1.524
c0,0.803-0.593,0.841-0.593,0.841c-0.138,0-0.194,0.099-0.249,0.099c-0.116-0.012-0.171-0.161-0.287-0.161
c-0.108,0-0.191,0.167-0.335,0.167c-0.143,0-0.224-0.167-0.333-0.167c-0.115,0-0.169,0.148-0.287,0.161
c-0.055,0-0.11-0.099-0.249-0.099c0,0-0.592-0.039-0.592-0.841c0-0.621,0.477-1.145,0.369-1.524
c-0.032,0.22-1.135,0.675-1.135,1.594c0,1.176,1.101,1.454,1.101,1.454l-0.314,0.572c0,0,0.455,0.023,0.696,0.229
c0.291,0.249,0.263,0.774,0.263,1.157c0,0.302-0.038,0.619-0.193,0.751c-0.208,0.176-0.348,0.188-0.348,0.396
c0,0.173,0.132,0.207,0.348,0.321c0.276,0.146,0.264,0.341,0.674,0.341c0.411,0,0.4-0.195,0.676-0.341
c0.215-0.114,0.348-0.148,0.348-0.321c0-0.207-0.141-0.22-0.348-0.396c-0.154-0.132-0.193-0.449-0.193-0.751
c0-0.383-0.028-0.909,0.263-1.157c0.241-0.206,0.696-0.229,0.696-0.229L31.002,19.98z"></path>
<path d="M29.874,17.014l-0.191,0.543l-0.521-0.248l0.248,0.521l-0.542,0.193l0.542,0.193l-0.248,0.519l0.521-0.247l0.191,0.542
l0.193-0.542l0.521,0.247l-0.248-0.519l0.542-0.193L30.34,17.83l0.248-0.521l-0.521,0.248L29.874,17.014z"></path>
<path d="M28.702,20.063c0,0-0.68-0.166-0.933-0.501c-0.444,0.399-0.975,0.538-0.975,0.538s0.553,0.25,0.975,0.568
C27.962,20.39,28.702,20.063,28.702,20.063L28.702,20.063z"></path>
<path d="M31.048,20.063c0,0,0.74,0.327,0.934,0.604c0.421-0.318,0.974-0.568,0.974-0.568s-0.529-0.139-0.974-0.538
C31.728,19.897,31.048,20.063,31.048,20.063L31.048,20.063z"></path>
<path d="M28.98,20.787l-0.264,0.265l0.264,0.264l0.265-0.264L28.98,20.787z"></path>
<path d="M30.77,20.787l-0.264,0.265l0.264,0.264l0.264-0.264L30.77,20.787z"></path>
<path d="M28.913,22.331c0,0.335-0.032,0.511-0.032,0.511s0.372-0.11,0.447-0.488c0.035-0.178,0.073-0.831-0.106-0.942l-0.486-0.096
C28.789,21.446,28.913,21.848,28.913,22.331L28.913,22.331z"></path>
<path d="M30.527,21.412c-0.179,0.111-0.14,0.764-0.105,0.942c0.074,0.379,0.447,0.488,0.447,0.488s-0.033-0.176-0.033-0.511
c0-0.483,0.125-0.885,0.178-1.015L30.527,21.412z"></path>
<path d="M27.767,21.43c-0.168,0.042-0.269,0.213-0.228,0.38c0.006,0.026,0.018,0.05,0.029,0.073
c-0.024-0.009-0.05-0.014-0.077-0.016c-0.011-0.001-0.022,0-0.033,0c-0.158,0.005-0.291,0.13-0.302,0.292
c-0.012,0.173,0.119,0.321,0.292,0.333c0.025,0.002,0.05,0.001,0.075-0.004c-0.015,0.021-0.027,0.042-0.038,0.067
c-0.064,0.16,0.014,0.345,0.174,0.409s0.343-0.016,0.408-0.176c0.01-0.024,0.015-0.049,0.019-0.073
c0.015,0.02,0.032,0.039,0.052,0.056c0.133,0.111,0.332,0.094,0.442-0.039c0.111-0.132,0.094-0.329-0.039-0.44
c-0.02-0.017-0.042-0.029-0.065-0.041c0.024-0.007,0.047-0.018,0.07-0.031c0.146-0.093,0.191-0.288,0.099-0.434
c-0.063-0.101-0.174-0.153-0.285-0.146c-0.05,0.004-0.101,0.02-0.146,0.048c-0.022,0.015-0.042,0.03-0.06,0.048
c0-0.025-0.002-0.051-0.008-0.077c-0.037-0.147-0.172-0.244-0.317-0.237C27.809,21.423,27.788,21.425,27.767,21.43L27.767,21.43z"></path>
<path d="M31.095,22.342c0.033,0.319,0.293,0.587,0.613,0.664c-0.054-0.09-0.091-0.189-0.103-0.296
c-0.039-0.379,0.254-0.686,0.654-0.686c0.063,0,0.124,0.008,0.185,0.021c-0.142-0.231-0.407-0.392-0.697-0.392
C31.347,21.654,31.054,21.962,31.095,22.342z"></path>
<path fill="#FFD200" d="M28.253,18.456c0,0.604,0.322,0.961,0.752,0.961c0.082,0,0.172,0.111,0.25,0.111
c0.125,0,0.21-0.14,0.287-0.14c0.098,0,0.164,0.153,0.333,0.153s0.236-0.153,0.334-0.153c0.077,0,0.161,0.14,0.287,0.14
c0.078,0,0.167-0.111,0.249-0.111c0.431,0,0.753-0.356,0.753-0.961c0-0.493-0.414-1.094-0.368-1.191c0,0,0.807,0.579,0.807,1.261
c0,1.099-1.115,1.37-1.115,1.37l0.251,0.564c0,0-0.345,0.052-0.557,0.222c-0.281,0.227-0.285,0.84-0.285,1.254
c0,0.488,0.018,0.694,0.194,0.827c0.186,0.14,0.326,0.17,0.326,0.312c0,0.124-0.146,0.175-0.333,0.258
c-0.213,0.094-0.235,0.258-0.544,0.258c-0.31,0-0.329-0.164-0.543-0.258c-0.188-0.083-0.333-0.134-0.333-0.258
c0-0.143,0.14-0.173,0.326-0.312c0.177-0.133,0.195-0.339,0.195-0.827c0-0.415-0.004-1.027-0.286-1.254
c-0.21-0.17-0.556-0.222-0.556-0.222l0.25-0.564c0,0-1.114-0.271-1.114-1.37c0-0.683,0.807-1.261,0.807-1.261
C28.667,17.362,28.253,17.963,28.253,18.456L28.253,18.456z"></path>
<path fill="#FFD200" d="M29.453,22.993c-0.219,0-0.358,0.047-0.358,0.113s0.139,0.111,0.358,0.111c0.059,0,0.125-0.034,0.125-0.111
S29.511,22.993,29.453,22.993L29.453,22.993z"></path>
<path fill="#FFD200" d="M30.297,22.993c-0.058,0-0.125,0.036-0.125,0.113s0.066,0.111,0.125,0.111c0.219,0,0.358-0.045,0.358-0.111
S30.516,22.993,30.297,22.993L30.297,22.993z"></path>
<path fill="#FFD200" d="M29.876,17.379l0.123,0.346l0.332-0.159L30.173,17.9l0.345,0.123l-0.345,0.123l0.157,0.331l-0.332-0.157
l-0.124,0.344l-0.123-0.344l-0.331,0.157l0.157-0.331l-0.344-0.123l0.344-0.123l-0.157-0.333l0.331,0.159L29.876,17.379
L29.876,17.379z"></path>
<path fill="#FFD200" d="M28.338,20.084l-0.57,0.423l-0.007,0.009l-0.012-0.01l-0.631-0.396c0,0,0.402-0.139,0.64-0.38
C27.982,19.986,28.338,20.084,28.338,20.084L28.338,20.084z"></path>
<path fill="#FFD200" d="M32.632,20.11c0,0-0.421,0.209-0.632,0.396l-0.012,0.01l-0.007-0.009c-0.199-0.229-0.569-0.423-0.569-0.423
s0.355-0.098,0.579-0.354C32.229,19.971,32.632,20.11,32.632,20.11z"></path>
<path fill="#FFD200" d="M28.98,20.914l0.138,0.138l-0.138,0.14l-0.14-0.14L28.98,20.914z"></path>
<path fill="#FFD200" d="M30.77,20.914l0.14,0.138l-0.14,0.14l-0.138-0.14L30.77,20.914z"></path>
<path fill="#FFD200" d="M29.168,21.517c0.096,0.133,0.08,0.349,0.08,0.649c0,0.302-0.228,0.417-0.228,0.417
c0-0.726-0.075-0.9-0.114-1.12L29.168,21.517z"></path>
<path fill="#FFD200" d="M30.843,21.463c-0.04,0.22-0.114,0.395-0.114,1.12c0,0-0.227-0.115-0.227-0.417
c0-0.3-0.017-0.516,0.08-0.649L30.843,21.463L30.843,21.463z"></path>
<path id="leaf" fill="#FFD200" d="M28.094,21.738c0.007,0.027,0.008,0.053,0.005,0.08c-0.001,0.022-0.008,0.042-0.015,0.062
c-0.038-0.014-0.078-0.02-0.121-0.02c-0.105,0-0.2,0.046-0.265,0.119c-0.018-0.015-0.032-0.031-0.044-0.051
c-0.014-0.022-0.026-0.045-0.032-0.072c-0.033-0.129,0.047-0.262,0.177-0.295c0.016-0.004,0.033-0.006,0.049-0.007
C27.962,21.549,28.066,21.624,28.094,21.738L28.094,21.738z"></path>
<path id="leaf_1_" fill="#FFD200" d="M28.458,22.192c-0.024,0.016-0.05,0.024-0.075,0.029c-0.021,0.006-0.042,0.006-0.063,0.005
c0.001-0.039-0.005-0.081-0.018-0.122c-0.032-0.1-0.105-0.175-0.195-0.214c0.009-0.021,0.02-0.04,0.035-0.058
c0.017-0.021,0.036-0.039,0.059-0.053c0.114-0.071,0.264-0.036,0.335,0.078c0.009,0.015,0.016,0.03,0.022,0.045
C28.597,22.009,28.558,22.13,28.458,22.192L28.458,22.192z"></path>
<path id="leaf_2_" fill="#FFD200" d="M28.138,22.68c-0.022-0.019-0.038-0.039-0.051-0.062c-0.011-0.019-0.018-0.038-0.023-0.059
c0.038-0.011,0.075-0.029,0.109-0.055c0.086-0.062,0.135-0.155,0.145-0.252c0.022,0.002,0.044,0.007,0.065,0.016
c0.024,0.009,0.047,0.021,0.068,0.039c0.104,0.086,0.117,0.24,0.03,0.343c-0.011,0.014-0.023,0.024-0.037,0.034
C28.356,22.755,28.228,22.755,28.138,22.68L28.138,22.68z"></path>
<path id="leaf_3_" fill="#FFD200" d="M27.576,22.524c0.01-0.025,0.025-0.047,0.042-0.067c0.015-0.016,0.031-0.028,0.049-0.041
c0.022,0.033,0.052,0.062,0.086,0.088c0.085,0.062,0.189,0.08,0.284,0.06c0.005,0.021,0.007,0.044,0.006,0.067
c-0.001,0.025-0.006,0.052-0.016,0.077c-0.05,0.124-0.192,0.185-0.317,0.134c-0.015-0.006-0.03-0.015-0.044-0.023
C27.572,22.757,27.532,22.635,27.576,22.524L27.576,22.524z"></path>
<path id="leaf_4_" fill="#FFD200" d="M27.549,21.943c0.028,0.001,0.054,0.01,0.078,0.02c0.02,0.009,0.037,0.021,0.054,0.034
c-0.025,0.032-0.044,0.068-0.057,0.108c-0.032,0.101-0.018,0.205,0.032,0.289c-0.02,0.012-0.04,0.021-0.062,0.026
c-0.025,0.007-0.051,0.011-0.079,0.009c-0.134-0.009-0.235-0.126-0.225-0.26c0-0.017,0.004-0.033,0.008-0.05
C27.329,22.011,27.432,21.935,27.549,21.943L27.549,21.943z"></path>
<circle fill="#FFD200" cx="27.963" cy="22.216" r="0.236"></circle>
<path fill="#FFD200" d="M32.098,21.898c-0.392,0.075-0.673,0.421-0.632,0.824c-0.124-0.104-0.216-0.242-0.231-0.396
c-0.032-0.301,0.186-0.532,0.513-0.532C31.873,21.795,31.993,21.834,32.098,21.898L32.098,21.898z"></path>
<ellipse cx="29.358" cy="23.101" rx="0.224" ry="0.1"></ellipse>
<ellipse cx="30.429" cy="23.104" rx="0.215" ry="0.089"></ellipse>
</g>
</svg>