<svg version="1.0" id="Ebene_2" xmlns="http://www.w3.org/2000/svg" xmlns:xlink="http://www.w3.org/1999/xlink" x="0px" y="0px" viewBox="0 0 610.667 458" enable-background="new 0 0 610.667 458" xml:space="preserve">
<rect x="244.215" fill="#FF0000" width="366.452" height="458"></rect>
<rect fill="#006600" width="244.267" height="458"></rect>
<path fill="#FFFF00" stroke="#000000" stroke-width="0.573" stroke-linecap="round" stroke-linejoin="round" d="M323.898,289.699
c-30.748-0.927-171.74-88.934-172.707-102.948l7.786-12.984c13.985,20.322,158.123,105.911,172.281,102.877l-7.359,13.052"></path>
<path fill="#FFFF00" stroke="#000000" stroke-width="0.573" stroke-linecap="round" stroke-linejoin="round" d="M157.338,172.003
c-2.758,7.422,36.791,31.874,84.377,60.817c47.583,28.938,88.613,46.823,91.655,44.259c0.185-0.332,1.494-2.586,1.375-2.568
c-0.57,0.859-1.958,1.129-4.123,0.506c-12.855-3.708-46.385-19.098-87.909-44.279c-41.523-25.183-77.651-48.389-83.266-58.25
c-0.39-0.683-0.668-1.929-0.612-2.899l-0.136-0.002l-1.196,2.089L157.338,172.003L157.338,172.003L157.338,172.003z
M324.622,290.105c-0.522,0.946-1.495,0.979-3.342,0.775c-11.499-1.272-46.397-18.243-87.693-42.963
c-48.048-28.763-87.732-54.971-83.426-61.821l1.171-2.071l0.23,0.073c-3.871,11.608,78.315,58.602,83.155,61.599
c47.555,29.461,87.646,46.666,91.193,42.193l-1.29,2.221v-0.002L324.622,290.105z"></path>
<path fill="#FFFF00" stroke="#000000" stroke-width="0.573" stroke-linecap="round" stroke-linejoin="round" d="M244.44,195.239
c30.775-0.243,68.752-4.206,90.606-12.916l-4.71-7.65c-12.917,7.149-51.102,11.851-86.157,12.555
c-41.459-0.382-70.726-4.243-85.388-14.081l-4.445,8.146C181.302,192.699,208.923,195.122,244.44,195.239"></path>
<path fill="#FFFF00" stroke="#000000" stroke-width="0.573" stroke-linecap="round" stroke-linejoin="round" d="M336.316,182.496
c-0.753,1.203-15.006,6.118-36.003,9.746c-14.236,2.171-32.806,4.025-55.982,4.048c-22.017,0.021-40.003-1.547-53.62-3.393
c-22.041-3.455-33.417-8.263-37.622-9.963c0.401-0.8,0.66-1.362,1.049-2.108c12.107,4.82,23.535,7.727,36.923,9.787
c13.527,1.832,31.296,3.421,53.206,3.401c23.067-0.023,41.433-2.02,55.587-4.125c21.532-3.473,33.292-7.942,34.944-10.018
l1.521,2.625H336.316L336.316,182.496z M332.183,174.739c-2.333,1.874-13.962,5.997-34.421,9.265
c-13.653,1.956-31.014,3.708-53.194,3.729c-21.072,0.02-38.288-1.399-51.383-3.307c-20.777-2.714-31.835-7.608-35.821-9.036
c0.396-0.686,0.8-1.366,1.214-2.049c3.104,1.562,13.774,5.894,34.835,8.877c12.946,1.836,30.188,3.204,51.155,3.183
c22.075-0.023,39.238-1.809,52.805-3.754c20.563-2.83,31.63-8.088,33.311-9.406l1.498,2.495V174.739L332.183,174.739z"></path>
<path fill="#FFFF00" stroke="#000000" stroke-width="0.573" stroke-linecap="round" stroke-linejoin="round" d="M143.385,232.316
c18.929,10.182,60.97,15.312,100.754,15.664c36.224,0.059,83.414-5.6,101.062-14.95l-0.485-10.189
c-5.521,8.627-56.093,16.903-100.97,16.564c-44.878-0.338-86.551-7.27-100.442-16.243l0.082,9.152"></path>
<path fill="#FFFF00" stroke="#000000" stroke-width="0.573" stroke-linecap="round" stroke-linejoin="round" d="M346.167,230.851
v2.431c-2.651,3.17-19.281,7.965-40.138,11.34c-15.872,2.434-36.565,4.269-62.351,4.269c-24.496,0-44.033-1.747-59.182-4.072
c-23.947-3.487-39.264-9.595-42.339-11.416l0.014-2.835c9.235,6.141,34.258,10.632,42.661,12.008
c15.052,2.31,34.471,4.043,58.845,4.043c25.664,0,46.243-1.822,62.014-4.24c14.962-2.16,36.277-7.782,40.474-11.525L346.167,230.851
L346.167,230.851z M346.178,222.208v2.43c-2.652,3.169-19.282,7.964-40.139,11.339c-15.872,2.434-36.564,4.268-62.351,4.268
c-24.497,0-44.032-1.744-59.183-4.072c-23.947-3.485-39.264-9.592-42.339-11.415l0.014-2.834
c9.235,6.139,34.259,10.632,42.662,12.005c15.051,2.312,34.47,4.047,58.846,4.047c25.663,0,46.241-1.824,62.014-4.244
c14.963-2.161,36.277-7.782,40.474-11.524L346.178,222.208L346.178,222.208z"></path>
<path fill="#FFFF00" stroke="#000000" stroke-width="0.573" stroke-linecap="round" stroke-linejoin="round" d="M244.054,287.949
c-43.533-0.261-80.833-11.867-88.71-13.786l5.744,8.992c13.913,5.853,50.303,14.575,83.384,13.608
c33.082-0.965,61.993-3.527,82.367-13.445l5.888-9.318C318.843,280.539,271.591,287.881,244.054,287.949"></path>
<path fill="#FFFF00" stroke="#000000" stroke-width="0.55" stroke-linecap="round" stroke-linejoin="round" d="M329.048,281.23
c-0.864,1.323-1.747,2.629-2.642,3.897c-9.611,3.39-24.752,6.946-31.142,7.984c-13.051,2.688-33.246,4.676-51.168,4.685
c-38.562-0.564-70.129-8.113-84.979-14.554l-1.199-2.059l0.196-0.311l2.032,0.788c26.41,9.448,56.071,13.219,84.169,13.895
c17.849,0.063,35.718-2.046,50.167-4.63c22.158-4.439,31.118-7.786,33.867-9.304L329.048,281.23L329.048,281.23L329.048,281.23z
M334.156,272.81c0.021,0.025,0.043,0.051,0.065,0.078c-0.646,1.093-1.314,2.204-1.998,3.321c-5.125,1.83-19.033,5.901-39.345,8.741
c-13.383,1.823-21.701,3.589-48.324,4.105c-49.886-1.27-82.186-11.023-89.858-13.43l-1.137-2.181
c28.91,7.547,58.443,12.815,90.997,13.354c24.357-0.519,34.72-2.312,47.991-4.123c23.685-3.683,35.617-7.581,39.199-8.708
c-0.043-0.064-0.097-0.132-0.156-0.202l2.568-0.959L334.156,272.81L334.156,272.81z"></path>
<path fill="#FFFF00" stroke="#000000" stroke-width="0.573" stroke-linecap="round" stroke-linejoin="round" d="M334.676,224.276
c0.141,28.637-14.514,54.336-26.316,65.672c-16.7,16.039-38.843,26.357-64.701,26.832c-28.874,0.53-56.099-18.294-63.402-26.563
c-14.277-16.167-25.901-36.697-26.273-64.367c1.769-31.255,14.038-53.027,31.824-67.957c17.786-14.93,41.468-22.2,61.19-21.682
c22.756,0.602,49.337,11.764,67.704,33.925C326.735,184.657,331.945,200.414,334.676,224.276L334.676,224.276z M243.905,126.221
c55.453,0,101.062,45.126,101.062,100.458c0,55.33-45.609,100.459-101.062,100.459c-55.454,0-100.684-45.128-100.684-100.459
C143.222,171.347,188.451,126.221,243.905,126.221"></path>
<path fill="#FFFF00" stroke="#000000" stroke-width="0.573" stroke-linecap="round" stroke-linejoin="round" d="M244.176,125.877
c55.503,0,100.772,45.273,100.772,100.782S299.679,327.44,244.176,327.44c-55.504,0-100.772-45.272-100.772-100.781
S188.673,125.877,244.176,125.877L244.176,125.877z M145.622,226.66c0,54.207,44.514,98.563,98.554,98.563
c54.041,0,98.555-44.356,98.555-98.563c0-54.209-44.516-98.566-98.555-98.566S145.622,172.453,145.622,226.66z"></path>
<path fill="#FFFF00" stroke="#000000" stroke-width="0.573" stroke-linecap="round" stroke-linejoin="round" d="M244.257,134.254
c50.615,0,92.306,41.546,92.306,92.316c0,50.772-41.691,92.316-92.306,92.316s-92.306-41.544-92.306-92.316
C151.951,175.8,193.645,134.254,244.257,134.254L244.257,134.254z M154.168,226.57c0,49.55,40.69,90.097,90.089,90.097
c49.398,0,90.089-40.547,90.089-90.097c0-49.552-40.689-90.099-90.089-90.099C194.858,136.471,154.168,177.018,154.168,226.57z"></path>
<path fill="#FFFF00" stroke="#000000" stroke-width="0.573" stroke-linecap="round" stroke-linejoin="round" d="M248.318,125.47
h-8.637l0.01,202.498h8.667L248.318,125.47z"></path>
<path fill="#FFFF00" stroke="#000000" stroke-width="0.573" stroke-linecap="round" stroke-linejoin="round" d="M247.453,124.316
h2.199l0.019,204.828h-2.201L247.453,124.316L247.453,124.316z M238.882,124.318h2.214l0.004,204.829h-2.217L238.882,124.318
L238.882,124.318z"></path>
<path fill="#FFFF00" stroke="#000000" stroke-width="0.573" stroke-linecap="round" stroke-linejoin="round" d="M345.017,230.562
v-7.486l-6.097-5.679l-34.604-9.16l-49.872-5.089l-60.049,3.053l-42.747,10.178l-8.631,6.391v7.489l21.862-9.809l51.907-8.142
h49.871l36.64,4.071l25.444,6.107L345.017,230.562z"></path>
<path fill="#FFFF00" stroke="#000000" stroke-width="0.573" stroke-linecap="round" stroke-linejoin="round" d="M244.216,211.055
c23.799-0.044,46.889,2.255,65.205,5.821c18.897,3.778,32.198,8.505,36.746,13.812l-0.006,2.628
c-5.484-6.605-23.381-11.448-37.166-14.216c-18.176-3.536-41.112-5.818-64.779-5.775c-24.974,0.047-48.23,2.413-66.14,5.907
c-14.371,2.852-33.536,8.516-35.929,14.103V230.6c1.314-3.868,15.584-9.647,35.606-13.655
C195.797,213.426,219.095,211.101,244.216,211.055L244.216,211.055z M244.227,202.412c23.798-0.043,46.888,2.257,65.205,5.821
c18.897,3.78,32.198,8.504,36.747,13.812l-0.006,2.628c-5.485-6.604-23.382-11.447-37.167-14.214
c-18.176-3.538-41.111-5.821-64.779-5.775c-24.975,0.045-48.117,2.412-66.029,5.905c-13.868,2.629-33.816,8.518-36.042,14.106
v-2.738c1.314-3.826,15.874-9.813,35.607-13.655C195.807,204.783,219.105,202.459,244.227,202.412L244.227,202.412z"></path>
<path fill="#FFFF00" stroke="#000000" stroke-width="0.573" stroke-linecap="round" stroke-linejoin="round" d="M243.738,158.324
c37.504-0.188,70.216,5.244,85.183,12.91l5.459,9.444c-13.009-7.01-48.3-14.299-90.588-13.209
c-34.456,0.211-71.271,3.792-89.744,13.648l6.519-10.899c15.159-7.862,50.911-11.851,83.172-11.892"></path>
<path fill="#FFFF00" stroke="#000000" stroke-width="0.573" stroke-linecap="round" stroke-linejoin="round" d="M244.237,166.12
c21.389-0.057,42.059,1.15,58.497,4.116c15.31,2.849,29.908,7.125,31.996,9.424l1.618,2.86c-5.077-3.315-17.71-7.006-33.932-10.083
c-16.291-3.061-36.945-4.076-58.216-4.02c-24.145-0.083-42.902,1.191-59,3.999c-17.025,3.187-28.838,7.736-31.751,9.899l1.585-3.023
c5.662-2.889,14.646-6.371,29.743-9.089C201.424,167.163,220.381,166.251,244.237,166.12L244.237,166.12L244.237,166.12z
M244.228,157.485c20.471-0.053,40.683,1.086,56.438,3.919c12.427,2.419,24.716,6.195,29.214,9.556l2.367,3.761
c-4.023-4.473-19.171-8.711-32.542-11.085c-15.635-2.697-35.006-3.764-55.477-3.934c-21.484,0.061-41.337,1.375-56.743,4.181
c-14.698,2.797-24.182,6.108-28.196,8.694l2.081-3.142c5.538-2.915,14.486-5.593,25.753-7.782
C202.643,158.827,222.619,157.546,244.228,157.485L244.228,157.485z"></path>
<path fill="#FFFF00" stroke="#000000" stroke-width="0.573" stroke-linecap="round" stroke-linejoin="round" d="M294.292,268.55
c-18.543-3.461-37.117-3.964-50.092-3.812c-62.5,0.731-82.689,12.833-85.154,16.497l-4.67-7.615
c15.912-11.533,49.946-18.001,90.162-17.339c20.882,0.342,38.904,1.729,54.063,4.664l-4.312,7.606"></path>
<path fill="#FFFF00" stroke="#000000" stroke-width="0.55" stroke-linecap="round" stroke-linejoin="round" d="M243.84,263.664
c17.386,0.26,34.452,0.978,50.923,4.05l-1.193,2.105c-15.298-2.824-31.607-3.905-49.67-3.816
c-23.067-0.181-46.396,1.974-66.707,7.803c-6.409,1.783-17.019,5.903-18.101,9.309l-1.187-1.957
c0.342-2.013,6.755-6.189,18.742-9.557c23.265-6.663,45.027-7.785,67.193-7.938V263.664L243.84,263.664z M244.629,254.915
c18.012,0.337,36.614,1.17,54.696,4.751l-1.242,2.192c-16.329-3.241-31.927-4.321-53.348-4.651c-23.139,0.041-47.684,1.691-70,8.18
c-7.205,2.1-19.64,6.637-20.054,10.229l-1.187-2.104c0.27-3.262,11.035-7.519,20.72-10.337
C196.702,256.638,221.312,254.957,244.629,254.915L244.629,254.915z"></path>
<path fill="#FFFF00" stroke="#000000" stroke-width="0.573" stroke-linecap="round" stroke-linejoin="round" d="M333.404,274.778
l-7.51,11.652l-21.578-19.163l-55.978-37.658l-63.103-34.604l-32.762-11.206l6.981-12.947l2.372-1.292l20.355,5.089l67.173,34.604
l38.676,24.427L320.6,257.09l13.231,15.267L333.404,274.778z"></path>
<path fill="#FFFF00" stroke="#000000" stroke-width="0.573" stroke-linecap="round" stroke-linejoin="round" d="M151.293,184.104
c5.746-3.897,47.977,14.916,92.165,41.56c44.071,26.72,86.183,56.916,82.38,62.567l-1.249,1.966l-0.574,0.452
c0.123-0.089,0.758-0.863-0.062-2.957c-1.879-6.179-31.75-30.017-81.314-59.943c-48.32-28.813-88.589-46.178-92.616-41.214
L151.293,184.104l-0.002-0.001L151.293,184.104z M334.941,274.612c3.634-7.177-35.537-36.685-84.101-65.414
c-49.681-28.158-85.487-44.733-92.027-39.791l-1.453,2.646c-0.013,0.145,0.053-0.181,0.36-0.417c1.189-1.038,3.16-0.968,4.05-0.984
c11.261,0.169,43.424,14.971,88.553,40.842c19.773,11.517,83.529,52.406,83.287,63.905c0.018,0.989,0.081,1.191-0.29,1.681
L334.941,274.612L334.941,274.612L334.941,274.612z"></path>
<path fill="#FFFFFF" stroke="#000000" stroke-width="0.6704" d="M183.811,237.762c0,16.561,6.782,31.538,17.768,42.484
c11.008,10.97,25.965,17.892,42.553,17.892c16.672,0,31.803-6.771,42.763-17.699c10.96-10.925,17.753-26.005,17.757-42.624h-0.002
v-80.597l-120.851-0.143l0.012,80.687H183.811L183.811,237.762z"></path>
<path fill="#FF0000" stroke="#000000" stroke-width="0.5073" d="M186.071,237.874v0.046c0,15.834,6.556,30.252,17.074,40.72
c10.538,10.488,25.051,17.009,40.928,17.009c15.96,0,30.444-6.473,40.938-16.921c10.491-10.447,16.994-24.867,16.996-40.757h-0.002
v-78.19l-115.864-0.02l-0.072,78.113 M278.708,183.171l0.004,49.761l-0.042,5.264h0.001c0,1.385-0.083,2.963-0.246,4.307
c-0.941,7.869-4.559,14.726-9.917,20.06c-6.274,6.244-14.933,10.118-24.475,10.118c-9.494,0-17.953-4.008-24.254-10.279
c-6.462-6.433-10.208-15.252-10.208-24.373l-0.014-54.983l69.148,0.124L278.708,183.171L278.708,183.171z"></path>
<path fill="#FFFF00" d="M193.571,180.175c0.137-5.619,4.125-6.949,4.154-6.969c0.029-0.018,4.307,1.433,4.293,7.022L193.571,180.175
"></path>
<path fill="#FFFF00" stroke="#000000" stroke-width="0.5" d="M190.132,173.315l-0.693,6.458l4.214,0.009
c0.04-5.342,4.043-6.231,4.141-6.212c0.091-0.005,4.059,1.182,4.166,6.212h4.225l-0.764-6.507L190.132,173.315L190.132,173.315
L190.132,173.315z"></path>
<path fill="#FFFF00" stroke="#000000" stroke-width="0.5" d="M189.154,179.8h17.248c0.364,0,0.661,0.358,0.661,0.797
c0,0.438-0.297,0.795-0.661,0.795h-17.248c-0.364,0-0.66-0.357-0.66-0.795C188.494,180.158,188.79,179.8,189.154,179.8z"></path>
<path fill="#FFFF00" stroke="#000000" stroke-width="0.5" d="M195.424,179.769c0.019-3.373,2.302-4.327,2.314-4.325
c0.002,0,2.384,0.984,2.403,4.325H195.424"></path>
<path fill="#FFFF00" stroke="#000000" stroke-width="0.5" d="M189.521,170.629h16.534c0.348,0,0.634,0.324,0.634,0.717
s-0.286,0.717-0.634,0.717h-16.534c-0.349,0-0.633-0.321-0.633-0.717C188.888,170.953,189.172,170.629,189.521,170.629z"></path>
<path fill="#FFFF00" stroke="#000000" stroke-width="0.5" d="M189.867,172.074h15.814c0.333,0,0.606,0.323,0.606,0.717
c0,0.396-0.273,0.718-0.606,0.718h-15.814c-0.333,0-0.605-0.322-0.605-0.718C189.261,172.397,189.534,172.074,189.867,172.074z"></path>
<path fill="#FFFF00" stroke="#000000" stroke-width="0.5" d="M194.977,161.296l1.248,0.002v0.888h0.911v-0.907l1.28,0.004v0.903
h0.912v-0.907h1.28l-0.002,2.047c0,0.321-0.258,0.529-0.559,0.529h-4.488c-0.302,0-0.581-0.24-0.582-0.535l-0.003-2.023
L194.977,161.296L194.977,161.296z"></path>
<path fill="#FFFF00" stroke="#000000" stroke-width="0.5" d="M199.678,164.034l0.282,6.566l-4.379-0.016l0.291-6.568
L199.678,164.034"></path>
<path id="cp1" fill="#FFFF00" stroke="#000000" stroke-width="0.5" d="M194.334,167.078l0.134,3.538l-4.2,0.002l0.12-3.54h3.948
H194.334L194.334,167.078z"></path>
<path id="cp1_1_" fill="#FFFF00" stroke="#000000" stroke-width="0.5" d="M205.132,167.078l0.133,3.538l-4.198,0.002l0.119-3.54
H205.132L205.132,167.078L205.132,167.078z"></path>
<path id="cp2" fill="#FFFF00" stroke="#000000" stroke-width="0.5" d="M189.612,164.512l1.221,0.003v0.888h0.893v-0.909l1.251,0.005
v0.905h0.895v-0.909l1.252,0.002l-0.002,2.048c0,0.319-0.253,0.527-0.546,0.527h-4.393c-0.295,0-0.568-0.239-0.569-0.536
L189.612,164.512L189.612,164.512L189.612,164.512z"></path>
<path id="cp2_1_" fill="#FFFF00" stroke="#000000" stroke-width="0.5" d="M200.41,164.512l1.221,0.003v0.888h0.894v-0.909
l1.25,0.005v0.905h0.896v-0.909l1.251,0.002l-0.002,2.048c0,0.319-0.252,0.527-0.544,0.527h-4.394c-0.295,0-0.568-0.239-0.57-0.536
L200.41,164.512L200.41,164.512L200.41,164.512z"></path>
<path d="M197.348,166.109c-0.028-0.638,0.891-0.644,0.88,0v1.564h-0.88V166.109"></path>
<path id="cp3" d="M191.923,168.379c-0.004-0.616,0.851-0.629,0.841,0v1.208h-0.841V168.379"></path>
<path id="cp3_1_" d="M202.753,168.379c-0.003-0.616,0.852-0.629,0.841,0v1.208h-0.841V168.379"></path>
<path fill="#FFFF00" d="M193.571,227.319c0.137-5.62,4.125-6.95,4.154-6.969c0.029-0.019,4.307,1.433,4.293,7.021L193.571,227.319"></path>
<path fill="#FFFF00" stroke="#000000" stroke-width="0.5" d="M190.132,220.459l-0.693,6.458l4.214,0.009
c0.04-5.342,4.043-6.231,4.141-6.212c0.091-0.004,4.059,1.182,4.166,6.212h4.225l-0.764-6.506l-15.289,0.038V220.459
L190.132,220.459z"></path>
<path fill="#FFFF00" stroke="#000000" stroke-width="0.5" d="M189.154,226.942h17.248c0.364,0,0.661,0.359,0.661,0.798
c0,0.438-0.297,0.795-0.661,0.795h-17.248c-0.364,0-0.66-0.357-0.66-0.795C188.494,227.301,188.79,226.942,189.154,226.942z"></path>
<path fill="#FFFF00" stroke="#000000" stroke-width="0.5" d="M195.424,226.912c0.019-3.371,2.302-4.325,2.314-4.323
c0.002,0,2.384,0.984,2.403,4.323H195.424"></path>
<path fill="#FFFF00" stroke="#000000" stroke-width="0.5" d="M189.521,217.771h16.534c0.348,0,0.634,0.325,0.634,0.718
c0,0.395-0.286,0.718-0.634,0.718h-16.534c-0.349,0-0.633-0.322-0.633-0.718C188.888,218.097,189.172,217.771,189.521,217.771z"></path>
<path fill="#FFFF00" stroke="#000000" stroke-width="0.5" d="M189.867,219.218h15.814c0.333,0,0.606,0.322,0.606,0.717
s-0.273,0.716-0.606,0.716h-15.814c-0.333,0-0.605-0.322-0.605-0.716S189.534,219.218,189.867,219.218z"></path>
<path fill="#FFFF00" stroke="#000000" stroke-width="0.5" d="M194.977,208.438l1.248,0.002v0.888h0.911v-0.906l1.28,0.004v0.903
h0.912v-0.907h1.28l-0.002,2.047c0,0.321-0.258,0.53-0.559,0.53h-4.488c-0.302,0-0.581-0.242-0.582-0.536l-0.003-2.023h0.001
L194.977,208.438z"></path>
<path fill="#FFFF00" stroke="#000000" stroke-width="0.5" d="M199.678,211.177l0.282,6.567l-4.379-0.017l0.291-6.567
L199.678,211.177"></path>
<path id="cp1_2_" fill="#FFFF00" stroke="#000000" stroke-width="0.5" d="M194.334,214.22l0.134,3.54l-4.2,0.002l0.12-3.542h3.948
H194.334L194.334,214.22z"></path>
<path id="cp1_3_" fill="#FFFF00" stroke="#000000" stroke-width="0.5" d="M205.132,214.22l0.133,3.54l-4.198,0.002l0.119-3.542
H205.132L205.132,214.22L205.132,214.22z"></path>
<path id="cp2_2_" fill="#FFFF00" stroke="#000000" stroke-width="0.5" d="M189.612,211.655l1.221,0.004v0.886h0.893v-0.907
l1.251,0.004v0.904h0.895v-0.908l1.252,0.002l-0.002,2.047c0,0.32-0.253,0.528-0.546,0.528h-4.393c-0.295,0-0.568-0.239-0.569-0.535
l-0.003-2.023l0,0L189.612,211.655z"></path>
<path id="cp2_3_" fill="#FFFF00" stroke="#000000" stroke-width="0.5" d="M200.41,211.655l1.221,0.004v0.886h0.894v-0.907
l1.25,0.004v0.904h0.896v-0.908l1.251,0.002l-0.002,2.047c0,0.32-0.252,0.528-0.544,0.528h-4.394c-0.295,0-0.568-0.239-0.57-0.535
l-0.002-2.023l0,0L200.41,211.655z"></path>
<path d="M197.348,213.253c-0.028-0.638,0.891-0.645,0.88,0v1.564h-0.88V213.253"></path>
<path id="cp3_2_" d="M191.923,215.523c-0.004-0.617,0.851-0.63,0.841,0v1.208h-0.841V215.523"></path>
<path id="cp3_3_" d="M202.753,215.523c-0.003-0.617,0.852-0.63,0.841,0v1.208h-0.841V215.523"></path>
<path fill="#FFFF00" d="M211.954,276.391c-3.891-4.057-2.024-7.823-2.019-7.858c0.006-0.032,4.051-2.046,8.007,1.901
L211.954,276.391"></path>
<path fill="#FFFF00" stroke="#000000" stroke-width="0.5" d="M204.662,273.998l4.093,5.042l2.976-2.983
c-3.762-3.794-1.571-7.261-1.49-7.316c0.061-0.067,3.699-2.048,7.343,1.421l2.978-2.997l-5.155-4.044l-10.746,10.876
L204.662,273.998L204.662,273.998z"></path>
<path fill="#FFFF00" stroke="#000000" stroke-width="0.5" d="M208.574,279.26l12.153-12.239c0.256-0.258,0.72-0.216,1.032,0.094
c0.31,0.308,0.355,0.771,0.098,1.029l-12.152,12.238c-0.257,0.258-0.719,0.218-1.03-0.091
C208.364,279.981,208.318,279.518,208.574,279.26z"></path>
<path fill="#FFFF00" stroke="#000000" stroke-width="0.5" d="M212.97,274.789c-2.379-2.39-1.447-4.682-1.438-4.689
c0.001,0,2.378-0.998,4.762,1.342L212.97,274.789"></path>
<path fill="#FFFF00" stroke="#000000" stroke-width="0.5" d="M202.326,272.538l11.648-11.732c0.247-0.247,0.678-0.222,0.957,0.056
c0.28,0.277,0.308,0.708,0.062,0.955l-11.65,11.732c-0.246,0.246-0.675,0.223-0.956-0.056
C202.109,273.216,202.079,272.785,202.326,272.538z"></path>
<path fill="#FFFF00" stroke="#000000" stroke-width="0.5" d="M203.595,273.311l11.143-11.222c0.234-0.236,0.656-0.203,0.934,0.075
c0.28,0.278,0.317,0.698,0.083,0.935l-11.143,11.223c-0.234,0.235-0.656,0.202-0.936-0.076
C203.397,273.968,203.359,273.547,203.595,273.311z"></path>
<path fill="#FFFF00" stroke="#000000" stroke-width="0.5" d="M199.546,262.091l0.881-0.885l0.63,0.625l0.642-0.646l-0.644-0.639
l0.905-0.904l0.64,0.637l0.644-0.649l-0.643-0.639l0.901-0.909l1.451,1.445c0.229,0.227,0.195,0.557-0.017,0.77l-3.164,3.186
c-0.213,0.214-0.581,0.241-0.789,0.034l-1.438-1.423L199.546,262.091L199.546,262.091z"></path>
<path fill="#FFFF00" stroke="#000000" stroke-width="0.5" d="M204.802,260.684l4.858,4.427l-3.097,3.095l-4.457-4.832
L204.802,260.684"></path>
<path id="cp1_4_" fill="#FFFF00" stroke="#000000" stroke-width="0.5" d="M203.196,266.619l2.606,2.399l-2.957,2.98l-2.43-2.579
L203.196,266.619L203.196,266.619L203.196,266.619z"></path>
<path id="cp1_5_" fill="#FFFF00" stroke="#000000" stroke-width="0.5" d="M210.805,258.957l2.605,2.399l-2.956,2.98l-2.429-2.579
L210.805,258.957L210.805,258.957L210.805,258.957z"></path>
<path id="cp2_4_" fill="#FFFF00" stroke="#000000" stroke-width="0.5" d="M198.05,268.163l0.862-0.864l0.63,0.625l0.629-0.633
l-0.644-0.64l0.884-0.886l0.642,0.637l0.63-0.634l-0.644-0.641l0.882-0.887l1.451,1.443c0.228,0.226,0.197,0.552-0.01,0.76
l-3.095,3.118c-0.208,0.208-0.57,0.233-0.781,0.026l-1.438-1.424L198.05,268.163L198.05,268.163z"></path>
<path id="cp2_5_" fill="#FFFF00" stroke="#000000" stroke-width="0.5" d="M205.657,260.501l0.863-0.864l0.63,0.625l0.628-0.633
l-0.644-0.641l0.884-0.885l0.642,0.638l0.63-0.635l-0.644-0.641l0.883-0.888l1.452,1.445c0.227,0.225,0.195,0.551-0.011,0.759
l-3.096,3.118c-0.207,0.208-0.57,0.234-0.78,0.026l-1.438-1.424l0,0V260.501z"></path>
<path d="M204.633,263.801c-0.472-0.432,0.171-1.089,0.62-0.627l1.11,1.103l-0.621,0.625L204.633,263.801"></path>
<path id="cp3_4_" d="M202.421,269.249c-0.439-0.434,0.154-1.048,0.593-0.598l0.858,0.853l-0.592,0.596L202.421,269.249"></path>
<path id="cp3_5_" d="M210.052,261.564c-0.439-0.434,0.154-1.048,0.592-0.598l0.858,0.852l-0.592,0.597L210.052,261.564"></path>
<path fill="#FFFF00" d="M240.099,180.175c0.137-5.619,4.124-6.949,4.153-6.969c0.029-0.018,4.307,1.433,4.292,7.022L240.099,180.175
"></path>
<path fill="#FFFF00" stroke="#000000" stroke-width="0.5" d="M236.658,173.315l-0.694,6.458l4.214,0.009
c0.041-5.342,4.045-6.231,4.142-6.212c0.09-0.005,4.06,1.182,4.166,6.212h4.225l-0.763-6.507L236.658,173.315L236.658,173.315
L236.658,173.315z"></path>
<path fill="#FFFF00" stroke="#000000" stroke-width="0.5" d="M235.682,179.8h17.247c0.364,0,0.66,0.358,0.66,0.797
c0,0.438-0.296,0.795-0.66,0.795h-17.247c-0.364,0-0.662-0.357-0.662-0.795C235.02,180.158,235.318,179.8,235.682,179.8z"></path>
<path fill="#FFFF00" stroke="#000000" stroke-width="0.5" d="M241.95,179.769c0.019-3.373,2.303-4.327,2.315-4.325
c0,0,2.383,0.984,2.402,4.325H241.95"></path>
<path fill="#FFFF00" stroke="#000000" stroke-width="0.5" d="M236.047,170.629h16.534c0.348,0,0.633,0.324,0.633,0.717
s-0.285,0.717-0.633,0.717h-16.534c-0.348,0-0.634-0.321-0.634-0.717C235.413,170.953,235.7,170.629,236.047,170.629z"></path>
<path fill="#FFFF00" stroke="#000000" stroke-width="0.5" d="M236.393,172.074h15.814c0.333,0,0.605,0.323,0.605,0.717
c0,0.396-0.272,0.718-0.605,0.718h-15.814c-0.333,0-0.606-0.322-0.606-0.718C235.787,172.397,236.061,172.074,236.393,172.074z"></path>
<path fill="#FFFF00" stroke="#000000" stroke-width="0.5" d="M241.502,161.296l1.25,0.002v0.888h0.912v-0.907l1.278,0.004v0.903
h0.915v-0.907h1.28l-0.002,2.047c0,0.321-0.26,0.529-0.559,0.529h-4.491c-0.301,0-0.58-0.24-0.581-0.535L241.502,161.296
L241.502,161.296L241.502,161.296z"></path>
<path fill="#FFFF00" stroke="#000000" stroke-width="0.5" d="M246.206,164.034l0.281,6.566l-4.379-0.016l0.289-6.568
L246.206,164.034"></path>
<path id="cp1_6_" fill="#FFFF00" stroke="#000000" stroke-width="0.5" d="M240.862,167.078l0.133,3.538l-4.198,0.002l0.117-3.54
H240.862L240.862,167.078L240.862,167.078z"></path>
<path id="cp1_7_" fill="#FFFF00" stroke="#000000" stroke-width="0.5" d="M251.659,167.078l0.134,3.538l-4.199,0.002l0.118-3.54
H251.659L251.659,167.078L251.659,167.078z"></path>
<path id="cp2_6_" fill="#FFFF00" stroke="#000000" stroke-width="0.5" d="M236.139,164.512l1.221,0.003v0.888h0.894v-0.909
l1.251,0.005v0.905h0.895v-0.909l1.252,0.002l-0.002,2.048c0,0.319-0.254,0.527-0.546,0.527h-4.394
c-0.294,0-0.569-0.239-0.569-0.536l-0.004-2.023L236.139,164.512L236.139,164.512z"></path>
<path id="cp2_7_" fill="#FFFF00" stroke="#000000" stroke-width="0.5" d="M246.937,164.512l1.22,0.003v0.888h0.893v-0.909
l1.252,0.005v0.905h0.895v-0.909l1.252,0.002l-0.002,2.048c0,0.319-0.253,0.527-0.547,0.527h-4.393
c-0.294,0-0.568-0.239-0.568-0.536l-0.004-2.023L246.937,164.512L246.937,164.512z"></path>
<path d="M243.874,166.109c-0.026-0.638,0.893-0.644,0.883,0v1.564h-0.883V166.109"></path>
<path id="cp3_6_" d="M238.449,168.379c-0.002-0.616,0.853-0.629,0.842,0v1.208h-0.841L238.449,168.379"></path>
<path id="cp3_7_" d="M249.28,168.379c-0.003-0.616,0.852-0.629,0.841,0v1.208h-0.84L249.28,168.379"></path>
<path fill="#FFFF00" d="M294.75,180.175c-0.137-5.619-4.124-6.949-4.152-6.969c-0.029-0.018-4.307,1.433-4.292,7.022L294.75,180.175
"></path>
<path fill="#FFFF00" stroke="#000000" stroke-width="0.5" d="M298.191,173.315l0.694,6.458l-4.214,0.009
c-0.041-5.342-4.045-6.231-4.142-6.212c-0.09-0.005-4.06,1.182-4.166,6.212h-4.225l0.762-6.507L298.191,173.315L298.191,173.315
L298.191,173.315z"></path>
<path fill="#FFFF00" stroke="#000000" stroke-width="0.5" d="M299.167,179.8h-17.247c-0.364,0-0.661,0.358-0.661,0.797
c0,0.438,0.297,0.795,0.661,0.795h17.247c0.364,0,0.661-0.357,0.661-0.795C299.829,180.158,299.531,179.8,299.167,179.8z"></path>
<path fill="#FFFF00" stroke="#000000" stroke-width="0.5" d="M292.899,179.769c-0.019-3.373-2.303-4.327-2.315-4.325
c0,0-2.383,0.984-2.402,4.325H292.899"></path>
<path fill="#FFFF00" stroke="#000000" stroke-width="0.5" d="M298.802,170.629h-16.534c-0.349,0-0.633,0.324-0.633,0.717
s0.284,0.717,0.633,0.717h16.534c0.348,0,0.634-0.321,0.634-0.717C299.436,170.953,299.15,170.629,298.802,170.629z"></path>
<path fill="#FFFF00" stroke="#000000" stroke-width="0.5" d="M298.456,172.074h-15.814c-0.333,0-0.605,0.323-0.605,0.717
c0,0.396,0.272,0.718,0.605,0.718h15.814c0.333,0,0.606-0.322,0.606-0.718C299.062,172.397,298.789,172.074,298.456,172.074z"></path>
<path fill="#FFFF00" stroke="#000000" stroke-width="0.5" d="M293.347,161.296l-1.25,0.002v0.888h-0.911v-0.907l-1.278,0.004v0.903
h-0.915v-0.907h-1.28l0.002,2.047c0,0.321,0.258,0.529,0.559,0.529h4.49c0.301,0,0.58-0.24,0.581-0.535L293.347,161.296
L293.347,161.296L293.347,161.296z"></path>
<path fill="#FFFF00" stroke="#000000" stroke-width="0.5" d="M288.644,164.034l-0.281,6.566l4.379-0.016l-0.29-6.568
L288.644,164.034"></path>
<path id="cp1_8_" fill="#FFFF00" stroke="#000000" stroke-width="0.5" d="M293.987,167.078l-0.133,3.538l4.198,0.002l-0.118-3.54
H293.987L293.987,167.078L293.987,167.078z"></path>
<path id="cp1_9_" fill="#FFFF00" stroke="#000000" stroke-width="0.5" d="M283.19,167.078l-0.134,3.538l4.199,0.002l-0.118-3.54
H283.19L283.19,167.078L283.19,167.078z"></path>
<path id="cp2_8_" fill="#FFFF00" stroke="#000000" stroke-width="0.5" d="M298.71,164.512l-1.221,0.003v0.888h-0.894v-0.909
l-1.251,0.005v0.905h-0.895v-0.909l-1.252,0.002l0.002,2.048c0,0.319,0.253,0.527,0.545,0.527h4.395
c0.294,0,0.568-0.239,0.568-0.536L298.71,164.512L298.71,164.512L298.71,164.512z"></path>
<path id="cp2_9_" fill="#FFFF00" stroke="#000000" stroke-width="0.5" d="M287.913,164.512l-1.221,0.003v0.888h-0.893v-0.909
l-1.252,0.005v0.905h-0.895v-0.909l-1.252,0.002l0.002,2.048c0,0.319,0.253,0.527,0.546,0.527h4.393
c0.294,0,0.569-0.239,0.569-0.536l0.004-2.023L287.913,164.512L287.913,164.512z"></path>
<path d="M290.976,166.109c0.026-0.638-0.893-0.644-0.882,0v1.564h0.882V166.109"></path>
<path id="cp3_8_" d="M296.4,168.379c0.002-0.616-0.853-0.629-0.842,0v1.208h0.841L296.4,168.379"></path>
<path id="cp3_9_" d="M285.57,168.379c0.003-0.616-0.852-0.629-0.842,0v1.208h0.841L285.57,168.379"></path>
<path fill="#FFFF00" d="M294.75,227.319c-0.137-5.62-4.124-6.95-4.152-6.969c-0.029-0.019-4.307,1.433-4.292,7.021L294.75,227.319"></path>
<path fill="#FFFF00" stroke="#000000" stroke-width="0.5" d="M298.191,220.459l0.694,6.458l-4.214,0.009
c-0.041-5.342-4.045-6.231-4.142-6.212c-0.09-0.004-4.06,1.182-4.166,6.212h-4.225l0.762-6.506l15.29,0.038L298.191,220.459
L298.191,220.459z"></path>
<path fill="#FFFF00" stroke="#000000" stroke-width="0.5" d="M299.167,226.942h-17.247c-0.364,0-0.661,0.359-0.661,0.798
c0,0.438,0.297,0.795,0.661,0.795h17.247c0.364,0,0.661-0.357,0.661-0.795C299.829,227.301,299.531,226.942,299.167,226.942z"></path>
<path fill="#FFFF00" stroke="#000000" stroke-width="0.5" d="M292.899,226.912c-0.019-3.371-2.303-4.325-2.315-4.323
c0,0-2.383,0.984-2.402,4.323H292.899"></path>
<path fill="#FFFF00" stroke="#000000" stroke-width="0.5" d="M298.802,217.771h-16.534c-0.349,0-0.633,0.325-0.633,0.718
c0,0.395,0.284,0.718,0.633,0.718h16.534c0.348,0,0.634-0.322,0.634-0.718C299.436,218.097,299.15,217.771,298.802,217.771z"></path>
<path fill="#FFFF00" stroke="#000000" stroke-width="0.5" d="M298.456,219.218h-15.814c-0.333,0-0.605,0.322-0.605,0.717
s0.272,0.716,0.605,0.716h15.814c0.333,0,0.606-0.322,0.606-0.716S298.789,219.218,298.456,219.218z"></path>
<path fill="#FFFF00" stroke="#000000" stroke-width="0.5" d="M293.347,208.438l-1.25,0.002v0.888h-0.911v-0.906l-1.278,0.004v0.903
h-0.915v-0.907h-1.28l0.002,2.047c0,0.321,0.258,0.53,0.559,0.53h4.49c0.301,0,0.58-0.242,0.581-0.536l0.003-2.023h-0.001V208.438z"></path>
<path fill="#FFFF00" stroke="#000000" stroke-width="0.5" d="M288.644,211.177l-0.281,6.567l4.379-0.017l-0.29-6.567
L288.644,211.177"></path>
<path id="cp1_10_" fill="#FFFF00" stroke="#000000" stroke-width="0.5" d="M293.987,214.22l-0.133,3.54l4.198,0.002l-0.118-3.542
H293.987L293.987,214.22L293.987,214.22z"></path>
<path id="cp1_11_" fill="#FFFF00" stroke="#000000" stroke-width="0.5" d="M283.19,214.22l-0.134,3.54l4.199,0.002l-0.118-3.542
H283.19L283.19,214.22L283.19,214.22z"></path>
<path id="cp2_10_" fill="#FFFF00" stroke="#000000" stroke-width="0.5" d="M298.71,211.655l-1.221,0.004v0.886h-0.894v-0.907
l-1.251,0.004v0.904h-0.895v-0.908l-1.252,0.002l0.002,2.047c0,0.32,0.253,0.528,0.545,0.528h4.395c0.294,0,0.568-0.239,0.568-0.535
l0.003-2.023h-0.001V211.655z"></path>
<path id="cp2_11_" fill="#FFFF00" stroke="#000000" stroke-width="0.5" d="M287.913,211.655l-1.221,0.004v0.886h-0.893v-0.907
l-1.252,0.004v0.904h-0.895v-0.908l-1.252,0.002l0.002,2.047c0,0.32,0.253,0.528,0.546,0.528h4.393c0.294,0,0.569-0.239,0.569-0.535
l0.004-2.023h-0.001L287.913,211.655z"></path>
<path d="M290.976,213.253c0.026-0.638-0.893-0.645-0.882,0v1.564h0.882V213.253"></path>
<path id="cp3_10_" d="M296.4,215.523c0.002-0.617-0.853-0.63-0.842,0v1.208h0.841L296.4,215.523"></path>
<path id="cp3_11_" d="M285.57,215.523c0.003-0.617-0.852-0.63-0.842,0v1.208h0.841L285.57,215.523"></path>
<path fill="#FFFF00" d="M276.369,276.391c3.89-4.057,2.025-7.823,2.019-7.858c-0.007-0.032-4.05-2.046-8.006,1.901L276.369,276.391"></path>
<path fill="#FFFF00" stroke="#000000" stroke-width="0.5" d="M283.661,273.998l-4.093,5.042l-2.976-2.983
c3.763-3.794,1.571-7.261,1.489-7.316c-0.06-0.067-3.698-2.048-7.343,1.421l-2.976-2.997l5.154-4.044l10.746,10.876L283.661,273.998
L283.661,273.998z"></path>
<path fill="#FFFF00" stroke="#000000" stroke-width="0.5" d="M279.749,279.26l-12.152-12.239c-0.256-0.258-0.722-0.216-1.032,0.094
c-0.312,0.308-0.356,0.771-0.1,1.029l12.152,12.238c0.256,0.258,0.72,0.218,1.031-0.091
C279.959,279.981,280.005,279.518,279.749,279.26z"></path>
<path fill="#FFFF00" stroke="#000000" stroke-width="0.5" d="M275.353,274.789c2.378-2.39,1.447-4.682,1.438-4.689
c0,0-2.377-0.998-4.761,1.342L275.353,274.789"></path>
<path fill="#FFFF00" stroke="#000000" stroke-width="0.5" d="M285.998,272.538l-11.651-11.732c-0.244-0.247-0.676-0.222-0.955,0.056
s-0.307,0.708-0.062,0.955l11.651,11.732c0.245,0.246,0.674,0.223,0.954-0.056C286.214,273.216,286.243,272.785,285.998,272.538z"></path>
<path fill="#FFFF00" stroke="#000000" stroke-width="0.5" d="M284.728,273.311l-11.143-11.222c-0.234-0.236-0.655-0.203-0.935,0.075
s-0.316,0.698-0.082,0.935l11.143,11.223c0.235,0.235,0.655,0.202,0.936-0.076C284.927,273.968,284.962,273.547,284.728,273.311z"></path>
<path fill="#FFFF00" stroke="#000000" stroke-width="0.5" d="M288.776,262.091l-0.882-0.885l-0.628,0.625l-0.642-0.646l0.643-0.639
l-0.905-0.904l-0.641,0.637l-0.643-0.649l0.643-0.639l-0.902-0.909l-1.451,1.445c-0.228,0.227-0.193,0.557,0.018,0.77l3.164,3.186
c0.211,0.214,0.58,0.241,0.789,0.034l1.438-1.423L288.776,262.091L288.776,262.091z"></path>
<path fill="#FFFF00" stroke="#000000" stroke-width="0.5" d="M283.521,260.684l-4.857,4.427l3.097,3.095l4.455-4.832
L283.521,260.684"></path>
<path id="cp1_12_" fill="#FFFF00" stroke="#000000" stroke-width="0.5" d="M285.125,266.619l-2.605,2.399l2.957,2.98l2.429-2.579
L285.125,266.619L285.125,266.619L285.125,266.619z"></path>
<path id="cp1_13_" fill="#FFFF00" stroke="#000000" stroke-width="0.5" d="M277.518,258.957l-2.606,2.399l2.958,2.98l2.429-2.579
L277.518,258.957L277.518,258.957L277.518,258.957z"></path>
<path id="cp2_12_" fill="#FFFF00" stroke="#000000" stroke-width="0.5" d="M290.274,268.163l-0.863-0.864l-0.63,0.625l-0.629-0.633
l0.645-0.64l-0.884-0.886l-0.642,0.637l-0.631-0.634l0.645-0.641l-0.884-0.887l-1.451,1.443c-0.227,0.226-0.196,0.552,0.01,0.76
l3.096,3.118c0.208,0.208,0.57,0.233,0.78,0.026l1.439-1.424V268.163L290.274,268.163z"></path>
<path id="cp2_13_" fill="#FFFF00" stroke="#000000" stroke-width="0.5" d="M282.666,260.501l-0.863-0.864l-0.629,0.625l-0.63-0.633
l0.645-0.641l-0.884-0.885l-0.643,0.638l-0.631-0.635l0.645-0.641l-0.884-0.888l-1.451,1.445c-0.227,0.225-0.197,0.551,0.01,0.759
l3.095,3.118c0.208,0.208,0.57,0.234,0.781,0.026l1.438-1.424h-0.001L282.666,260.501z"></path>
<path d="M283.689,263.801c0.472-0.432-0.17-1.089-0.622-0.627l-1.109,1.103l0.62,0.625L283.689,263.801"></path>
<path id="cp3_12_" d="M285.901,269.249c0.44-0.434-0.153-1.048-0.592-0.598l-0.857,0.853l0.592,0.596L285.901,269.249"></path>
<path id="cp3_13_" d="M278.27,261.564c0.44-0.434-0.153-1.048-0.592-0.598l-0.857,0.852l0.592,0.597L278.27,261.564"></path>
<path fill="#003399" d="M236.773,229.005v0.005c0,2.252,0.864,4.303,2.25,5.791c1.389,1.492,3.304,2.42,5.397,2.42
c2.103,0,4.013-0.922,5.397-2.407c1.381-1.485,2.24-3.534,2.24-5.794V218.06l-15.259-0.013L236.773,229.005"></path>
<circle fill="#FFFFFF" cx="240.271" cy="222.215" r="1.512"></circle>
<circle fill="#FFFFFF" cx="248.738" cy="222.222" r="1.513"></circle>
<circle fill="#FFFFFF" cx="244.496" cy="226.286" r="1.512"></circle>
<circle fill="#FFFFFF" cx="240.271" cy="230.542" r="1.513"></circle>
<circle fill="#FFFFFF" cx="248.728" cy="230.531" r="1.512"></circle>
<path fill="#003399" d="M236.773,202.527v0.004c0,2.252,0.864,4.303,2.25,5.791c1.389,1.493,3.304,2.42,5.397,2.42
c2.103,0,4.013-0.921,5.397-2.407c1.381-1.484,2.24-3.534,2.24-5.794v-10.96l-15.259-0.013L236.773,202.527"></path>
<circle fill="#FFFFFF" cx="240.271" cy="195.736" r="1.513"></circle>
<circle fill="#FFFFFF" cx="248.738" cy="195.744" r="1.512"></circle>
<circle fill="#FFFFFF" cx="244.496" cy="199.808" r="1.513"></circle>
<circle fill="#FFFFFF" cx="240.271" cy="204.063" r="1.512"></circle>
<circle fill="#FFFFFF" cx="248.728" cy="204.052" r="1.513"></circle>
<path fill="#003399" d="M215.604,229.005v0.005c0,2.252,0.865,4.303,2.251,5.791c1.39,1.492,3.304,2.42,5.396,2.42
c2.104,0,4.015-0.922,5.398-2.407c1.382-1.485,2.241-3.534,2.241-5.794V218.06l-15.259-0.013L215.604,229.005"></path>
<circle fill="#FFFFFF" cx="219.103" cy="222.215" r="1.512"></circle>
<circle fill="#FFFFFF" cx="227.568" cy="222.222" r="1.513"></circle>
<circle fill="#FFFFFF" cx="223.327" cy="226.286" r="1.512"></circle>
<circle fill="#FFFFFF" cx="219.103" cy="230.542" r="1.513"></circle>
<circle fill="#FFFFFF" cx="227.559" cy="230.531" r="1.512"></circle>
<path fill="#003399" d="M257.886,229.005v0.005c0,2.252,0.865,4.303,2.251,5.791c1.39,1.492,3.303,2.42,5.396,2.42
c2.104,0,4.015-0.922,5.397-2.407c1.383-1.485,2.242-3.534,2.242-5.794V218.06l-15.259-0.013L257.886,229.005"></path>
<circle fill="#FFFFFF" cx="261.385" cy="222.215" r="1.512"></circle>
<circle fill="#FFFFFF" cx="269.851" cy="222.222" r="1.513"></circle>
<circle fill="#FFFFFF" cx="265.611" cy="226.286" r="1.512"></circle>
<circle fill="#FFFFFF" cx="261.385" cy="230.542" r="1.513"></circle>
<circle fill="#FFFFFF" cx="269.842" cy="230.531" r="1.512"></circle>
<path fill="#003399" d="M236.773,255.247v0.006c0,2.25,0.864,4.302,2.25,5.79c1.389,1.493,3.304,2.42,5.397,2.42
c2.103,0,4.013-0.921,5.397-2.408c1.381-1.484,2.24-3.533,2.24-5.794v-10.959l-15.259-0.013L236.773,255.247"></path>
<circle fill="#FFFFFF" cx="240.271" cy="248.458" r="1.512"></circle>
<circle fill="#FFFFFF" cx="248.738" cy="248.464" r="1.512"></circle>
<circle fill="#FFFFFF" cx="244.496" cy="252.529" r="1.512"></circle>
<circle fill="#FFFFFF" cx="240.271" cy="256.784" r="1.512"></circle>
<circle fill="#FFFFFF" cx="248.728" cy="256.773" r="1.512"></circle>
</svg>