<svg version="1.1" id="Ebene_1" xmlns="http://www.w3.org/2000/svg" xmlns:xlink="http://www.w3.org/1999/xlink" x="0px" y="0px" viewBox="0 0 60 42" enable-background="new 0 0 60 42" xml:space="preserve">
<g transform="matrix(.9375 0 0 .9375 14.13 0)">
<path fill="#FFFFFF" d="M-15.072,0h64v44.8h-64V0z"></path>
<path fill="#DE2918" d="M-15.072,29.867h64V44.8h-64V29.867z"></path>
<path fill="#08399C" d="M-15.072,14.934h64v14.933h-64V14.934z"></path>
<path fill="#DE2918" d="M8.362,8.136c-0.352,5.394-0.553,8.351-1.374,9.718c-0.888,1.469-1.753,2.545-5.218,3.84
c-3.466-1.296-4.329-2.371-5.217-3.841c-0.822-1.368-1.023-4.323-1.375-9.718l0.512-0.172c1.031-0.315,1.8-0.568,2.369-0.68
c0.815-0.172,1.507-0.368,3.698-0.413c2.19,0.037,2.886,0.245,3.701,0.417c0.565,0.12,1.367,0.357,2.39,0.678l0.515,0.17H8.362z"></path>
<path fill="#08399C" d="M7.858,7.958c-0.333,5.383-0.611,7.848-1.045,9.033c-0.842,2.029-2.176,3.142-5.045,4.204
c-2.87-1.062-4.204-2.176-5.046-4.205c-0.434-1.184-0.708-3.643-1.031-9.039c1.009-0.315,1.801-0.561,2.369-0.674
c0.815-0.172,1.508-0.376,3.698-0.414c2.19,0.038,2.891,0.241,3.706,0.414c0.569,0.112,1.377,0.359,2.395,0.679V7.958z"></path>
<path fill="#FFCC00" d="M1.764,9.607l0.138,0.326l0.604,0.083l-0.392,0.236l0.379,0.253l-0.551,0.092l-0.168,0.295l-0.189-0.304
l-0.525-0.074l0.357-0.258L1.051,10.02l0.581-0.089L1.764,9.607"></path>
<path fill="#FFFFFF" d="M6.605,15.717L6.27,15.452l-0.243-0.398l-0.474-0.411l-0.247-0.416l-0.474-0.424l-0.232-0.416l-0.252-0.204
l-0.167-0.16l-0.429,0.376l-0.233,0.408L3.227,14.07l-0.32-0.25l-0.242-0.426L1.768,11.8L0.87,13.394L0.629,13.82l-0.32,0.25
l-0.291-0.265l-0.234-0.408l-0.429-0.376l-0.167,0.16l-0.252,0.204l-0.232,0.416l-0.474,0.424l-0.247,0.416l-0.474,0.411
l-0.242,0.398l-0.334,0.271c0.173,1.478,1.116,2.635,1.629,3.165c0.573,0.556,1.754,1.3,3.197,1.793
c1.448-0.482,2.645-1.236,3.218-1.793C5.488,18.358,6.43,17.201,6.605,15.717"></path>
<path fill="#FFCC00" d="M3.207,7.341l0.138,0.326l0.605,0.083L3.558,7.985l0.379,0.253L3.385,8.331L3.218,8.626L3.029,8.322
L2.505,8.247l0.357-0.259L2.494,7.753l0.581-0.089L3.207,7.341"></path>
<path fill="#FFCC00" d="M0.321,7.335l0.137,0.326l0.605,0.083L0.672,7.98L1.05,8.233L0.499,8.326L0.332,8.621L0.143,8.317
l-0.524-0.074l0.357-0.259l-0.368-0.235l0.581-0.089L0.321,7.335"></path>
<path fill="#08399C" d="M5.856,17.765l-0.654,0.002l-0.603-0.045l-0.73-0.358l-0.823,0.005l-0.713,0.348l-0.562,0.05l-0.562-0.05
l-0.713-0.348l-0.823-0.005l-0.731,0.358l-0.603,0.045l-0.661-0.009l-0.32-0.541l0.012-0.012l0.978,0.162l0.603-0.045l0.73-0.358
l0.823,0.005l0.713,0.348l0.562,0.05l0.562-0.05l0.713-0.348l0.823-0.005l0.73,0.358l0.603,0.045l0.952-0.167l0.013,0.025
L5.856,17.765"></path>
<path fill="#08399C" d="M-1.711,18.597l0.647-0.045l0.731-0.358l0.823,0.005l0.713,0.348l0.562,0.05l0.562-0.05l0.713-0.348
l0.823-0.005l0.73,0.358l0.656,0.045l0.423-0.522l-0.015-0.011l-0.453,0.132l-0.603-0.045l-0.73-0.358l-0.823,0.005l-0.713,0.348
l-0.562,0.049l-0.562-0.049l-0.713-0.348l-0.823-0.005l-0.73,0.358l-0.603,0.045l-0.444-0.112l-0.005,0.022L-1.711,18.597"></path>
</g>
</svg>