<svg version="1.0" xmlns="http://www.w3.org/2000/svg" xmlns:xlink="http://www.w3.org/1999/xlink" x="0px" y="0px" viewBox="0 0 610.667 458" enable-background="new 0 0 610.667 458" xml:space="preserve">
<g id="Ebene_2">
</g>
<g id="Ebene_1">
<g>
<rect x="-0.687" y="0.8" fill="#FFFFFF" width="612" height="457.12"></rect>
<rect x="-0.687" y="185.825" fill="#CF142B" width="612" height="87.07"></rect>
<rect x="295.113" y="0.8" fill="#CF142B" width="81.601" height="457.12"></rect>
<polygon fill="#00247D" points="-0.687,153.173 96.937,153.173 -0.687,101.377"></polygon>
<polygon fill="#00247D" points="3.301,0.8 264.513,0.8 264.513,141.909"></polygon>
<polygon fill="#CF142B" points="129.108,153.173 192.725,153.173 -0.687,49.854 -0.687,84.475"></polygon>
<polygon fill="#00247D" points="-0.687,363.808 97.488,316.43 -0.687,316.43"></polygon>
<polygon fill="#00247D" points="2.893,459.193 264.513,458.442 264.513,318.868"></polygon>
<polygon fill="#CF142B" points="-0.687,444.293 257.138,316.43 192.011,316.43 -0.687,412.272"></polygon>
<polygon fill="#00247D" points="407.313,0.8 407.313,141.146 611.313,31.601 611.313,0.8 "></polygon>
<polygon fill="#00247D" points="575.858,153.173 611.313,153.173 611.313,133.67"></polygon>
<polygon fill="#CF142B" points="415.035,153.173 480.08,153.173 611.313,82.08 611.313,48.569"></polygon>
<polygon fill="#00247D" points="407.313,319.619 407.313,457.92 611.313,457.92 611.313,427.227"></polygon>
<polygon fill="#00247D" points="571.523,307.288 611.354,328.587 611.313,307.332"></polygon>
<polygon fill="#CF142B" points="479.356,316.43 543.697,316.43 611.313,349.462 611.292,382.626"></polygon>
</g>
</g>
</svg>